%TF.GenerationSoftware,KiCad,Pcbnew,4.0.7*%
%TF.CreationDate,2017-11-04T19:59:08+02:00*%
%TF.ProjectId,BleTouchDimmer,426C65546F75636844696D6D65722E6B,rev?*%
%TF.FileFunction,Legend,Bot*%
%FSLAX46Y46*%
G04 Gerber Fmt 4.6, Leading zero omitted, Abs format (unit mm)*
G04 Created by KiCad (PCBNEW 4.0.7) date 11/04/17 19:59:08*
%MOMM*%
%LPD*%
G01*
G04 APERTURE LIST*
%ADD10C,0.100000*%
%ADD11C,0.300000*%
%ADD12C,0.120000*%
%ADD13C,0.150000*%
G04 APERTURE END LIST*
D10*
D11*
X150021427Y-66176857D02*
X149807141Y-66248286D01*
X149735713Y-66319714D01*
X149664284Y-66462571D01*
X149664284Y-66676857D01*
X149735713Y-66819714D01*
X149807141Y-66891143D01*
X149949999Y-66962571D01*
X150521427Y-66962571D01*
X150521427Y-65462571D01*
X150021427Y-65462571D01*
X149878570Y-65534000D01*
X149807141Y-65605429D01*
X149735713Y-65748286D01*
X149735713Y-65891143D01*
X149807141Y-66034000D01*
X149878570Y-66105429D01*
X150021427Y-66176857D01*
X150521427Y-66176857D01*
X148807141Y-66962571D02*
X148949999Y-66891143D01*
X149021427Y-66748286D01*
X149021427Y-65462571D01*
X147664285Y-66891143D02*
X147807142Y-66962571D01*
X148092856Y-66962571D01*
X148235713Y-66891143D01*
X148307142Y-66748286D01*
X148307142Y-66176857D01*
X148235713Y-66034000D01*
X148092856Y-65962571D01*
X147807142Y-65962571D01*
X147664285Y-66034000D01*
X147592856Y-66176857D01*
X147592856Y-66319714D01*
X148307142Y-66462571D01*
X147164285Y-65462571D02*
X146307142Y-65462571D01*
X146735713Y-66962571D02*
X146735713Y-65462571D01*
X145592856Y-66962571D02*
X145735714Y-66891143D01*
X145807142Y-66819714D01*
X145878571Y-66676857D01*
X145878571Y-66248286D01*
X145807142Y-66105429D01*
X145735714Y-66034000D01*
X145592856Y-65962571D01*
X145378571Y-65962571D01*
X145235714Y-66034000D01*
X145164285Y-66105429D01*
X145092856Y-66248286D01*
X145092856Y-66676857D01*
X145164285Y-66819714D01*
X145235714Y-66891143D01*
X145378571Y-66962571D01*
X145592856Y-66962571D01*
X143807142Y-65962571D02*
X143807142Y-66962571D01*
X144449999Y-65962571D02*
X144449999Y-66748286D01*
X144378571Y-66891143D01*
X144235713Y-66962571D01*
X144021428Y-66962571D01*
X143878571Y-66891143D01*
X143807142Y-66819714D01*
X142449999Y-66891143D02*
X142592856Y-66962571D01*
X142878570Y-66962571D01*
X143021428Y-66891143D01*
X143092856Y-66819714D01*
X143164285Y-66676857D01*
X143164285Y-66248286D01*
X143092856Y-66105429D01*
X143021428Y-66034000D01*
X142878570Y-65962571D01*
X142592856Y-65962571D01*
X142449999Y-66034000D01*
X141807142Y-66962571D02*
X141807142Y-65462571D01*
X141164285Y-66962571D02*
X141164285Y-66176857D01*
X141235714Y-66034000D01*
X141378571Y-65962571D01*
X141592856Y-65962571D01*
X141735714Y-66034000D01*
X141807142Y-66105429D01*
X140449999Y-66962571D02*
X140449999Y-65462571D01*
X140092856Y-65462571D01*
X139878571Y-65534000D01*
X139735713Y-65676857D01*
X139664285Y-65819714D01*
X139592856Y-66105429D01*
X139592856Y-66319714D01*
X139664285Y-66605429D01*
X139735713Y-66748286D01*
X139878571Y-66891143D01*
X140092856Y-66962571D01*
X140449999Y-66962571D01*
X138949999Y-66962571D02*
X138949999Y-65962571D01*
X138949999Y-65462571D02*
X139021428Y-65534000D01*
X138949999Y-65605429D01*
X138878571Y-65534000D01*
X138949999Y-65462571D01*
X138949999Y-65605429D01*
X138235713Y-66962571D02*
X138235713Y-65962571D01*
X138235713Y-66105429D02*
X138164285Y-66034000D01*
X138021427Y-65962571D01*
X137807142Y-65962571D01*
X137664285Y-66034000D01*
X137592856Y-66176857D01*
X137592856Y-66962571D01*
X137592856Y-66176857D02*
X137521427Y-66034000D01*
X137378570Y-65962571D01*
X137164285Y-65962571D01*
X137021427Y-66034000D01*
X136949999Y-66176857D01*
X136949999Y-66962571D01*
X136235713Y-66962571D02*
X136235713Y-65962571D01*
X136235713Y-66105429D02*
X136164285Y-66034000D01*
X136021427Y-65962571D01*
X135807142Y-65962571D01*
X135664285Y-66034000D01*
X135592856Y-66176857D01*
X135592856Y-66962571D01*
X135592856Y-66176857D02*
X135521427Y-66034000D01*
X135378570Y-65962571D01*
X135164285Y-65962571D01*
X135021427Y-66034000D01*
X134949999Y-66176857D01*
X134949999Y-66962571D01*
X133664285Y-66891143D02*
X133807142Y-66962571D01*
X134092856Y-66962571D01*
X134235713Y-66891143D01*
X134307142Y-66748286D01*
X134307142Y-66176857D01*
X134235713Y-66034000D01*
X134092856Y-65962571D01*
X133807142Y-65962571D01*
X133664285Y-66034000D01*
X133592856Y-66176857D01*
X133592856Y-66319714D01*
X134307142Y-66462571D01*
X132949999Y-66962571D02*
X132949999Y-65962571D01*
X132949999Y-66248286D02*
X132878571Y-66105429D01*
X132807142Y-66034000D01*
X132664285Y-65962571D01*
X132521428Y-65962571D01*
X131092857Y-65462571D02*
X130592857Y-66962571D01*
X130092857Y-65462571D01*
X128807143Y-66962571D02*
X129664286Y-66962571D01*
X129235714Y-66962571D02*
X129235714Y-65462571D01*
X129378571Y-65676857D01*
X129521429Y-65819714D01*
X129664286Y-65891143D01*
X142235714Y-68726857D02*
X141735714Y-68726857D01*
X141521428Y-69512571D02*
X142235714Y-69512571D01*
X142235714Y-68012571D01*
X141521428Y-68012571D01*
X140235714Y-68512571D02*
X140235714Y-69726857D01*
X140307143Y-69869714D01*
X140378571Y-69941143D01*
X140521428Y-70012571D01*
X140735714Y-70012571D01*
X140878571Y-69941143D01*
X140235714Y-69441143D02*
X140378571Y-69512571D01*
X140664285Y-69512571D01*
X140807143Y-69441143D01*
X140878571Y-69369714D01*
X140950000Y-69226857D01*
X140950000Y-68798286D01*
X140878571Y-68655429D01*
X140807143Y-68584000D01*
X140664285Y-68512571D01*
X140378571Y-68512571D01*
X140235714Y-68584000D01*
X138950000Y-69441143D02*
X139092857Y-69512571D01*
X139378571Y-69512571D01*
X139521428Y-69441143D01*
X139592857Y-69298286D01*
X139592857Y-68726857D01*
X139521428Y-68584000D01*
X139378571Y-68512571D01*
X139092857Y-68512571D01*
X138950000Y-68584000D01*
X138878571Y-68726857D01*
X138878571Y-68869714D01*
X139592857Y-69012571D01*
X138235714Y-69512571D02*
X138235714Y-68512571D01*
X138235714Y-68798286D02*
X138164286Y-68655429D01*
X138092857Y-68584000D01*
X137950000Y-68512571D01*
X137807143Y-68512571D01*
X137521429Y-68512571D02*
X136950000Y-68512571D01*
X137307143Y-68012571D02*
X137307143Y-69298286D01*
X137235715Y-69441143D01*
X137092857Y-69512571D01*
X136950000Y-69512571D01*
X142271428Y-70705429D02*
X142199999Y-70634000D01*
X142057142Y-70562571D01*
X141699999Y-70562571D01*
X141557142Y-70634000D01*
X141485713Y-70705429D01*
X141414285Y-70848286D01*
X141414285Y-70991143D01*
X141485713Y-71205429D01*
X142342856Y-72062571D01*
X141414285Y-72062571D01*
X140485714Y-70562571D02*
X140342857Y-70562571D01*
X140200000Y-70634000D01*
X140128571Y-70705429D01*
X140057142Y-70848286D01*
X139985714Y-71134000D01*
X139985714Y-71491143D01*
X140057142Y-71776857D01*
X140128571Y-71919714D01*
X140200000Y-71991143D01*
X140342857Y-72062571D01*
X140485714Y-72062571D01*
X140628571Y-71991143D01*
X140700000Y-71919714D01*
X140771428Y-71776857D01*
X140842857Y-71491143D01*
X140842857Y-71134000D01*
X140771428Y-70848286D01*
X140700000Y-70705429D01*
X140628571Y-70634000D01*
X140485714Y-70562571D01*
X138557143Y-72062571D02*
X139414286Y-72062571D01*
X138985714Y-72062571D02*
X138985714Y-70562571D01*
X139128571Y-70776857D01*
X139271429Y-70919714D01*
X139414286Y-70991143D01*
X138057143Y-70562571D02*
X137057143Y-70562571D01*
X137700000Y-72062571D01*
X153784857Y-108176143D02*
X153570571Y-108247571D01*
X153213428Y-108247571D01*
X153070571Y-108176143D01*
X152999142Y-108104714D01*
X152927714Y-107961857D01*
X152927714Y-107819000D01*
X152999142Y-107676143D01*
X153070571Y-107604714D01*
X153213428Y-107533286D01*
X153499142Y-107461857D01*
X153642000Y-107390429D01*
X153713428Y-107319000D01*
X153784857Y-107176143D01*
X153784857Y-107033286D01*
X153713428Y-106890429D01*
X153642000Y-106819000D01*
X153499142Y-106747571D01*
X153142000Y-106747571D01*
X152927714Y-106819000D01*
X152284857Y-108247571D02*
X152284857Y-106747571D01*
X151713429Y-106747571D01*
X151570571Y-106819000D01*
X151499143Y-106890429D01*
X151427714Y-107033286D01*
X151427714Y-107247571D01*
X151499143Y-107390429D01*
X151570571Y-107461857D01*
X151713429Y-107533286D01*
X152284857Y-107533286D01*
X150927714Y-106747571D02*
X149999143Y-106747571D01*
X150499143Y-107319000D01*
X150284857Y-107319000D01*
X150142000Y-107390429D01*
X150070571Y-107461857D01*
X149999143Y-107604714D01*
X149999143Y-107961857D01*
X150070571Y-108104714D01*
X150142000Y-108176143D01*
X150284857Y-108247571D01*
X150713429Y-108247571D01*
X150856286Y-108176143D01*
X150927714Y-108104714D01*
X151371857Y-110462143D02*
X151157571Y-110533571D01*
X150800428Y-110533571D01*
X150657571Y-110462143D01*
X150586142Y-110390714D01*
X150514714Y-110247857D01*
X150514714Y-110105000D01*
X150586142Y-109962143D01*
X150657571Y-109890714D01*
X150800428Y-109819286D01*
X151086142Y-109747857D01*
X151229000Y-109676429D01*
X151300428Y-109605000D01*
X151371857Y-109462143D01*
X151371857Y-109319286D01*
X151300428Y-109176429D01*
X151229000Y-109105000D01*
X151086142Y-109033571D01*
X150729000Y-109033571D01*
X150514714Y-109105000D01*
X149871857Y-110533571D02*
X149871857Y-109033571D01*
X149300429Y-109033571D01*
X149157571Y-109105000D01*
X149086143Y-109176429D01*
X149014714Y-109319286D01*
X149014714Y-109533571D01*
X149086143Y-109676429D01*
X149157571Y-109747857D01*
X149300429Y-109819286D01*
X149871857Y-109819286D01*
X148443286Y-109176429D02*
X148371857Y-109105000D01*
X148229000Y-109033571D01*
X147871857Y-109033571D01*
X147729000Y-109105000D01*
X147657571Y-109176429D01*
X147586143Y-109319286D01*
X147586143Y-109462143D01*
X147657571Y-109676429D01*
X148514714Y-110533571D01*
X147586143Y-110533571D01*
X149466857Y-112621143D02*
X149252571Y-112692571D01*
X148895428Y-112692571D01*
X148752571Y-112621143D01*
X148681142Y-112549714D01*
X148609714Y-112406857D01*
X148609714Y-112264000D01*
X148681142Y-112121143D01*
X148752571Y-112049714D01*
X148895428Y-111978286D01*
X149181142Y-111906857D01*
X149324000Y-111835429D01*
X149395428Y-111764000D01*
X149466857Y-111621143D01*
X149466857Y-111478286D01*
X149395428Y-111335429D01*
X149324000Y-111264000D01*
X149181142Y-111192571D01*
X148824000Y-111192571D01*
X148609714Y-111264000D01*
X147966857Y-112692571D02*
X147966857Y-111192571D01*
X147395429Y-111192571D01*
X147252571Y-111264000D01*
X147181143Y-111335429D01*
X147109714Y-111478286D01*
X147109714Y-111692571D01*
X147181143Y-111835429D01*
X147252571Y-111906857D01*
X147395429Y-111978286D01*
X147966857Y-111978286D01*
X145681143Y-112692571D02*
X146538286Y-112692571D01*
X146109714Y-112692571D02*
X146109714Y-111192571D01*
X146252571Y-111406857D01*
X146395429Y-111549714D01*
X146538286Y-111621143D01*
X146462714Y-114835714D02*
X146534143Y-114907143D01*
X146748429Y-114978571D01*
X146891286Y-114978571D01*
X147105571Y-114907143D01*
X147248429Y-114764286D01*
X147319857Y-114621429D01*
X147391286Y-114335714D01*
X147391286Y-114121429D01*
X147319857Y-113835714D01*
X147248429Y-113692857D01*
X147105571Y-113550000D01*
X146891286Y-113478571D01*
X146748429Y-113478571D01*
X146534143Y-113550000D01*
X146462714Y-113621429D01*
X145819857Y-114978571D02*
X145819857Y-113478571D01*
X145248429Y-113478571D01*
X145105571Y-113550000D01*
X145034143Y-113621429D01*
X144962714Y-113764286D01*
X144962714Y-113978571D01*
X145034143Y-114121429D01*
X145105571Y-114192857D01*
X145248429Y-114264286D01*
X145819857Y-114264286D01*
X167544714Y-106453714D02*
X167616143Y-106525143D01*
X167830429Y-106596571D01*
X167973286Y-106596571D01*
X168187571Y-106525143D01*
X168330429Y-106382286D01*
X168401857Y-106239429D01*
X168473286Y-105953714D01*
X168473286Y-105739429D01*
X168401857Y-105453714D01*
X168330429Y-105310857D01*
X168187571Y-105168000D01*
X167973286Y-105096571D01*
X167830429Y-105096571D01*
X167616143Y-105168000D01*
X167544714Y-105239429D01*
X166901857Y-106596571D02*
X166901857Y-105096571D01*
X166330429Y-105096571D01*
X166187571Y-105168000D01*
X166116143Y-105239429D01*
X166044714Y-105382286D01*
X166044714Y-105596571D01*
X166116143Y-105739429D01*
X166187571Y-105810857D01*
X166330429Y-105882286D01*
X166901857Y-105882286D01*
X171818857Y-108684143D02*
X171604571Y-108755571D01*
X171247428Y-108755571D01*
X171104571Y-108684143D01*
X171033142Y-108612714D01*
X170961714Y-108469857D01*
X170961714Y-108327000D01*
X171033142Y-108184143D01*
X171104571Y-108112714D01*
X171247428Y-108041286D01*
X171533142Y-107969857D01*
X171676000Y-107898429D01*
X171747428Y-107827000D01*
X171818857Y-107684143D01*
X171818857Y-107541286D01*
X171747428Y-107398429D01*
X171676000Y-107327000D01*
X171533142Y-107255571D01*
X171176000Y-107255571D01*
X170961714Y-107327000D01*
X170318857Y-108755571D02*
X170318857Y-107255571D01*
X169747429Y-107255571D01*
X169604571Y-107327000D01*
X169533143Y-107398429D01*
X169461714Y-107541286D01*
X169461714Y-107755571D01*
X169533143Y-107898429D01*
X169604571Y-107969857D01*
X169747429Y-108041286D01*
X170318857Y-108041286D01*
X168033143Y-108755571D02*
X168890286Y-108755571D01*
X168461714Y-108755571D02*
X168461714Y-107255571D01*
X168604571Y-107469857D01*
X168747429Y-107612714D01*
X168890286Y-107684143D01*
X174104857Y-110843143D02*
X173890571Y-110914571D01*
X173533428Y-110914571D01*
X173390571Y-110843143D01*
X173319142Y-110771714D01*
X173247714Y-110628857D01*
X173247714Y-110486000D01*
X173319142Y-110343143D01*
X173390571Y-110271714D01*
X173533428Y-110200286D01*
X173819142Y-110128857D01*
X173962000Y-110057429D01*
X174033428Y-109986000D01*
X174104857Y-109843143D01*
X174104857Y-109700286D01*
X174033428Y-109557429D01*
X173962000Y-109486000D01*
X173819142Y-109414571D01*
X173462000Y-109414571D01*
X173247714Y-109486000D01*
X172604857Y-110914571D02*
X172604857Y-109414571D01*
X172033429Y-109414571D01*
X171890571Y-109486000D01*
X171819143Y-109557429D01*
X171747714Y-109700286D01*
X171747714Y-109914571D01*
X171819143Y-110057429D01*
X171890571Y-110128857D01*
X172033429Y-110200286D01*
X172604857Y-110200286D01*
X171176286Y-109557429D02*
X171104857Y-109486000D01*
X170962000Y-109414571D01*
X170604857Y-109414571D01*
X170462000Y-109486000D01*
X170390571Y-109557429D01*
X170319143Y-109700286D01*
X170319143Y-109843143D01*
X170390571Y-110057429D01*
X171247714Y-110914571D01*
X170319143Y-110914571D01*
X176009857Y-113256143D02*
X175795571Y-113327571D01*
X175438428Y-113327571D01*
X175295571Y-113256143D01*
X175224142Y-113184714D01*
X175152714Y-113041857D01*
X175152714Y-112899000D01*
X175224142Y-112756143D01*
X175295571Y-112684714D01*
X175438428Y-112613286D01*
X175724142Y-112541857D01*
X175867000Y-112470429D01*
X175938428Y-112399000D01*
X176009857Y-112256143D01*
X176009857Y-112113286D01*
X175938428Y-111970429D01*
X175867000Y-111899000D01*
X175724142Y-111827571D01*
X175367000Y-111827571D01*
X175152714Y-111899000D01*
X174509857Y-113327571D02*
X174509857Y-111827571D01*
X173938429Y-111827571D01*
X173795571Y-111899000D01*
X173724143Y-111970429D01*
X173652714Y-112113286D01*
X173652714Y-112327571D01*
X173724143Y-112470429D01*
X173795571Y-112541857D01*
X173938429Y-112613286D01*
X174509857Y-112613286D01*
X173152714Y-111827571D02*
X172224143Y-111827571D01*
X172724143Y-112399000D01*
X172509857Y-112399000D01*
X172367000Y-112470429D01*
X172295571Y-112541857D01*
X172224143Y-112684714D01*
X172224143Y-113041857D01*
X172295571Y-113184714D01*
X172367000Y-113256143D01*
X172509857Y-113327571D01*
X172938429Y-113327571D01*
X173081286Y-113256143D01*
X173152714Y-113184714D01*
X207240143Y-70227000D02*
X206525857Y-70227000D01*
X207383000Y-70655571D02*
X206883000Y-69155571D01*
X206383000Y-70655571D01*
X209307857Y-73195571D02*
X209307857Y-71695571D01*
X208450714Y-73195571D02*
X209093571Y-72338429D01*
X208450714Y-71695571D02*
X209307857Y-72552714D01*
X114057857Y-71417571D02*
X114057857Y-69917571D01*
X113200714Y-71417571D02*
X113843571Y-70560429D01*
X113200714Y-69917571D02*
X114057857Y-70774714D01*
X111863143Y-73021000D02*
X111148857Y-73021000D01*
X112006000Y-73449571D02*
X111506000Y-71949571D01*
X111006000Y-73449571D01*
X177799857Y-114312000D02*
X177942714Y-114240571D01*
X178157000Y-114240571D01*
X178371285Y-114312000D01*
X178514143Y-114454857D01*
X178585571Y-114597714D01*
X178657000Y-114883429D01*
X178657000Y-115097714D01*
X178585571Y-115383429D01*
X178514143Y-115526286D01*
X178371285Y-115669143D01*
X178157000Y-115740571D01*
X178014143Y-115740571D01*
X177799857Y-115669143D01*
X177728428Y-115597714D01*
X177728428Y-115097714D01*
X178014143Y-115097714D01*
X177085571Y-115740571D02*
X177085571Y-114240571D01*
X176228428Y-115740571D01*
X176228428Y-114240571D01*
X175514142Y-115740571D02*
X175514142Y-114240571D01*
X175156999Y-114240571D01*
X174942714Y-114312000D01*
X174799856Y-114454857D01*
X174728428Y-114597714D01*
X174656999Y-114883429D01*
X174656999Y-115097714D01*
X174728428Y-115383429D01*
X174799856Y-115526286D01*
X174942714Y-115669143D01*
X175156999Y-115740571D01*
X175514142Y-115740571D01*
X155955857Y-103898000D02*
X156098714Y-103826571D01*
X156313000Y-103826571D01*
X156527285Y-103898000D01*
X156670143Y-104040857D01*
X156741571Y-104183714D01*
X156813000Y-104469429D01*
X156813000Y-104683714D01*
X156741571Y-104969429D01*
X156670143Y-105112286D01*
X156527285Y-105255143D01*
X156313000Y-105326571D01*
X156170143Y-105326571D01*
X155955857Y-105255143D01*
X155884428Y-105183714D01*
X155884428Y-104683714D01*
X156170143Y-104683714D01*
X155241571Y-105326571D02*
X155241571Y-103826571D01*
X154384428Y-105326571D01*
X154384428Y-103826571D01*
X153670142Y-105326571D02*
X153670142Y-103826571D01*
X153312999Y-103826571D01*
X153098714Y-103898000D01*
X152955856Y-104040857D01*
X152884428Y-104183714D01*
X152812999Y-104469429D01*
X152812999Y-104683714D01*
X152884428Y-104969429D01*
X152955856Y-105112286D01*
X153098714Y-105255143D01*
X153312999Y-105326571D01*
X153670142Y-105326571D01*
X211581857Y-74434000D02*
X211724714Y-74362571D01*
X211939000Y-74362571D01*
X212153285Y-74434000D01*
X212296143Y-74576857D01*
X212367571Y-74719714D01*
X212439000Y-75005429D01*
X212439000Y-75219714D01*
X212367571Y-75505429D01*
X212296143Y-75648286D01*
X212153285Y-75791143D01*
X211939000Y-75862571D01*
X211796143Y-75862571D01*
X211581857Y-75791143D01*
X211510428Y-75719714D01*
X211510428Y-75219714D01*
X211796143Y-75219714D01*
X210867571Y-75862571D02*
X210867571Y-74362571D01*
X210010428Y-75862571D01*
X210010428Y-74362571D01*
X209296142Y-75862571D02*
X209296142Y-74362571D01*
X208938999Y-74362571D01*
X208724714Y-74434000D01*
X208581856Y-74576857D01*
X208510428Y-74719714D01*
X208438999Y-75005429D01*
X208438999Y-75219714D01*
X208510428Y-75505429D01*
X208581856Y-75648286D01*
X208724714Y-75791143D01*
X208938999Y-75862571D01*
X209296142Y-75862571D01*
X118490857Y-67576000D02*
X118633714Y-67504571D01*
X118848000Y-67504571D01*
X119062285Y-67576000D01*
X119205143Y-67718857D01*
X119276571Y-67861714D01*
X119348000Y-68147429D01*
X119348000Y-68361714D01*
X119276571Y-68647429D01*
X119205143Y-68790286D01*
X119062285Y-68933143D01*
X118848000Y-69004571D01*
X118705143Y-69004571D01*
X118490857Y-68933143D01*
X118419428Y-68861714D01*
X118419428Y-68361714D01*
X118705143Y-68361714D01*
X117776571Y-69004571D02*
X117776571Y-67504571D01*
X116919428Y-69004571D01*
X116919428Y-67504571D01*
X116205142Y-69004571D02*
X116205142Y-67504571D01*
X115847999Y-67504571D01*
X115633714Y-67576000D01*
X115490856Y-67718857D01*
X115419428Y-67861714D01*
X115347999Y-68147429D01*
X115347999Y-68361714D01*
X115419428Y-68647429D01*
X115490856Y-68790286D01*
X115633714Y-68933143D01*
X115847999Y-69004571D01*
X116205142Y-69004571D01*
D12*
X105316023Y-69877914D02*
X112316381Y-62877557D01*
X108073740Y-72635631D02*
X105316023Y-69877914D01*
X115781204Y-66342381D02*
X109487953Y-72635631D01*
X112316381Y-62877557D02*
X115781204Y-66342381D01*
X109487953Y-72635631D02*
X108073740Y-72635631D01*
X207780369Y-68466953D02*
X207780369Y-67052740D01*
X217538443Y-71295381D02*
X214073619Y-74760204D01*
X214073619Y-74760204D02*
X207780369Y-68466953D01*
X207780369Y-67052740D02*
X210538086Y-64295023D01*
X210538086Y-64295023D02*
X217538443Y-71295381D01*
X160785079Y-109155983D02*
X150192619Y-119748443D01*
X158027363Y-106398267D02*
X160785079Y-109155983D01*
X146727796Y-116283619D02*
X156613149Y-106398267D01*
X150192619Y-119748443D02*
X146727796Y-116283619D01*
X156613149Y-106398267D02*
X158027363Y-106398267D01*
X174017733Y-115592149D02*
X174017733Y-117006363D01*
X160667557Y-109171619D02*
X164132381Y-105706796D01*
X164132381Y-105706796D02*
X174017733Y-115592149D01*
X174017733Y-117006363D02*
X171260017Y-119764079D01*
X171260017Y-119764079D02*
X160667557Y-109171619D01*
D13*
X108134349Y-65281047D02*
X108639425Y-65786123D01*
X108774113Y-65853466D01*
X108908800Y-65853466D01*
X109043487Y-65786123D01*
X109110830Y-65718779D01*
X108134349Y-66695260D02*
X108538410Y-66291199D01*
X108336380Y-66493229D02*
X107629273Y-65786123D01*
X107797632Y-65819794D01*
X107932319Y-65819794D01*
X108033334Y-65786123D01*
X215134953Y-67113349D02*
X214629877Y-67618425D01*
X214562534Y-67753113D01*
X214562534Y-67887800D01*
X214629877Y-68022487D01*
X214697221Y-68089830D01*
X214764564Y-66877647D02*
X214764564Y-66810303D01*
X214730893Y-66709288D01*
X214562533Y-66540929D01*
X214461518Y-66507257D01*
X214394175Y-66507257D01*
X214293159Y-66540929D01*
X214225816Y-66608272D01*
X214158473Y-66742959D01*
X214158473Y-67551082D01*
X213720740Y-67113349D01*
X155867656Y-114303047D02*
X156372732Y-114808123D01*
X156507420Y-114875466D01*
X156642107Y-114875466D01*
X156776794Y-114808123D01*
X156844137Y-114740779D01*
X155194221Y-114976482D02*
X155530939Y-114639764D01*
X155901328Y-114942810D01*
X155833984Y-114942810D01*
X155732969Y-114976481D01*
X155564610Y-115144841D01*
X155530938Y-115245856D01*
X155530938Y-115313199D01*
X155564610Y-115414215D01*
X155732969Y-115582574D01*
X155833984Y-115616245D01*
X155901328Y-115616245D01*
X156002343Y-115582574D01*
X156170702Y-115414214D01*
X156204374Y-115313199D01*
X156204374Y-115245856D01*
X166112953Y-114846656D02*
X165607877Y-115351732D01*
X165540534Y-115486420D01*
X165540534Y-115621107D01*
X165607877Y-115755794D01*
X165675221Y-115823137D01*
X165473190Y-114206893D02*
X165607877Y-114341580D01*
X165641549Y-114442595D01*
X165641549Y-114509939D01*
X165607877Y-114678297D01*
X165506862Y-114846656D01*
X165237488Y-115116030D01*
X165136473Y-115149702D01*
X165069129Y-115149702D01*
X164968114Y-115116030D01*
X164833426Y-114981343D01*
X164799755Y-114880328D01*
X164799755Y-114812984D01*
X164833426Y-114711969D01*
X165001785Y-114543610D01*
X165102801Y-114509938D01*
X165170144Y-114509938D01*
X165271159Y-114543610D01*
X165405847Y-114678297D01*
X165439519Y-114779312D01*
X165439519Y-114846656D01*
X165405846Y-114947672D01*
M02*
