%TF.GenerationSoftware,KiCad,Pcbnew,4.0.7*%
%TF.CreationDate,2017-11-04T21:18:15+02:00*%
%TF.ProjectId,BleTouchDimmer,426C65546F75636844696D6D65722E6B,rev?*%
%TF.FileFunction,Paste,Top*%
%FSLAX46Y46*%
G04 Gerber Fmt 4.6, Leading zero omitted, Abs format (unit mm)*
G04 Created by KiCad (PCBNEW 4.0.7) date 11/04/17 21:18:15*
%MOMM*%
%LPD*%
G01*
G04 APERTURE LIST*
%ADD10C,0.100000*%
%ADD11R,2.750000X1.000000*%
%ADD12R,0.900000X2.500000*%
%ADD13R,1.300000X1.500000*%
%ADD14R,0.800100X0.800100*%
%ADD15R,0.900000X1.700000*%
%ADD16R,1.700000X0.900000*%
%ADD17R,1.550000X2.100000*%
%ADD18R,3.048000X1.651000*%
%ADD19R,6.096000X6.096000*%
%ADD20R,0.800000X0.750000*%
%ADD21R,0.750000X0.800000*%
%ADD22R,0.800000X0.800000*%
%ADD23R,0.900000X0.800000*%
%ADD24R,0.900000X0.500000*%
%ADD25R,0.500000X0.900000*%
%ADD26R,2.000000X1.500000*%
%ADD27R,2.000000X3.800000*%
%ADD28O,0.900000X2.500000*%
%ADD29O,2.500000X0.900000*%
%ADD30R,6.000000X6.000000*%
G04 APERTURE END LIST*
D10*
D11*
X124287000Y-78200000D03*
X118537000Y-78200000D03*
X118537000Y-74200000D03*
X124287000Y-74200000D03*
D12*
X189791000Y-79756000D03*
X186891000Y-79756000D03*
X189791000Y-74168000D03*
X186891000Y-74168000D03*
X194998000Y-79756000D03*
X192098000Y-79756000D03*
X194998000Y-74168000D03*
X192098000Y-74168000D03*
D13*
X174697000Y-79375000D03*
X174697000Y-76835000D03*
X183697000Y-76835000D03*
X183697000Y-79375000D03*
D14*
X184211000Y-69611240D03*
X182311000Y-69611240D03*
X183261000Y-71610220D03*
D13*
X182626000Y-85090000D03*
X182626000Y-87630000D03*
X182626000Y-90170000D03*
X173626000Y-90170000D03*
X173626000Y-87630000D03*
X173626000Y-85090000D03*
D14*
X173395640Y-109844800D03*
X173395640Y-111744800D03*
X175394620Y-110794800D03*
D15*
X185367000Y-85026500D03*
X188267000Y-85026500D03*
X180160000Y-93726000D03*
X183060000Y-93726000D03*
X180160000Y-98552000D03*
X183060000Y-98552000D03*
X192860000Y-113030000D03*
X195760000Y-113030000D03*
D16*
X199644000Y-95070000D03*
X199644000Y-97970000D03*
X199644000Y-104214000D03*
X199644000Y-107114000D03*
D13*
X182935000Y-102235000D03*
X182935000Y-104775000D03*
X182935000Y-107315000D03*
X173935000Y-107315000D03*
X173935000Y-104775000D03*
X173935000Y-102235000D03*
D17*
X142557500Y-94996000D03*
X140017500Y-94996000D03*
X140017500Y-88496000D03*
X142557500Y-88496000D03*
D18*
X195580000Y-98806000D03*
D19*
X189230000Y-96520000D03*
D18*
X195580000Y-94234000D03*
X195580000Y-108966000D03*
D19*
X189230000Y-106680000D03*
D18*
X195580000Y-104394000D03*
D20*
X173470000Y-67818000D03*
X171970000Y-67818000D03*
X140918500Y-76073000D03*
X142418500Y-76073000D03*
D21*
X131635500Y-76593000D03*
X131635500Y-78093000D03*
D22*
X129641600Y-72021800D03*
X129641600Y-73621800D03*
D23*
X115681000Y-71435000D03*
X115681000Y-69535000D03*
X113681000Y-70485000D03*
X200009000Y-67818000D03*
X198009000Y-68768000D03*
X198009000Y-66868000D03*
X116570000Y-80010000D03*
X114570000Y-80960000D03*
X114570000Y-79060000D03*
X114570000Y-82870000D03*
X114570000Y-84770000D03*
X116570000Y-83820000D03*
D24*
X129692400Y-75094400D03*
X129692400Y-76594400D03*
D25*
X163310000Y-111125000D03*
X161810000Y-111125000D03*
X164350000Y-113030000D03*
X165850000Y-113030000D03*
X167120000Y-114935000D03*
X165620000Y-114935000D03*
X169025000Y-116840000D03*
X167525000Y-116840000D03*
X112192500Y-82169000D03*
X110692500Y-82169000D03*
X110692500Y-84709000D03*
X112192500Y-84709000D03*
X111835500Y-116268500D03*
X113335500Y-116268500D03*
D20*
X123964000Y-88900000D03*
X125464000Y-88900000D03*
X116129500Y-116205000D03*
X114629500Y-116205000D03*
X123964000Y-90678000D03*
X125464000Y-90678000D03*
D22*
X123101000Y-116205000D03*
X121501000Y-116205000D03*
X171920000Y-69469000D03*
X173520000Y-69469000D03*
X180594000Y-73571000D03*
X180594000Y-71971000D03*
X175006000Y-114820600D03*
X175006000Y-113220600D03*
D25*
X112764000Y-72263000D03*
X111264000Y-72263000D03*
X205093000Y-66421000D03*
X203593000Y-66421000D03*
D24*
X111887000Y-89547000D03*
X111887000Y-91047000D03*
D25*
X120003000Y-116205000D03*
X118503000Y-116205000D03*
D24*
X170243500Y-70981000D03*
X170243500Y-69481000D03*
D25*
X172224000Y-71247000D03*
X173724000Y-71247000D03*
D24*
X180721000Y-69100000D03*
X180721000Y-70600000D03*
X178943000Y-71870000D03*
X178943000Y-70370000D03*
D25*
X175195800Y-116484400D03*
X176695800Y-116484400D03*
D24*
X176657000Y-113219800D03*
X176657000Y-114719800D03*
D26*
X138405000Y-75134500D03*
X138405000Y-70534500D03*
X138405000Y-72834500D03*
D27*
X132105000Y-72834500D03*
D28*
X111590000Y-94840000D03*
X112860000Y-94840000D03*
X114130000Y-94840000D03*
X115400000Y-94840000D03*
X116670000Y-94840000D03*
X117940000Y-94840000D03*
X119210000Y-94840000D03*
X120480000Y-94840000D03*
X121750000Y-94840000D03*
X123020000Y-94840000D03*
X124290000Y-94840000D03*
X125560000Y-94840000D03*
X126830000Y-94840000D03*
X128100000Y-94840000D03*
D29*
X129590000Y-98125000D03*
X129590000Y-99395000D03*
X129590000Y-100665000D03*
X129590000Y-101935000D03*
X129590000Y-103205000D03*
X129590000Y-104475000D03*
X129590000Y-105745000D03*
X129590000Y-107015000D03*
X129590000Y-108285000D03*
X129590000Y-109555000D03*
D28*
X128100000Y-112840000D03*
X126830000Y-112840000D03*
X125560000Y-112840000D03*
X124290000Y-112840000D03*
X123020000Y-112840000D03*
X121750000Y-112840000D03*
X120480000Y-112840000D03*
X119210000Y-112840000D03*
X117940000Y-112840000D03*
X116670000Y-112840000D03*
X115400000Y-112840000D03*
X114130000Y-112840000D03*
X112860000Y-112840000D03*
X111590000Y-112840000D03*
D30*
X119290000Y-104140000D03*
M02*
