%TF.GenerationSoftware,KiCad,Pcbnew,4.0.7*%
%TF.CreationDate,2017-11-04T19:59:07+02:00*%
%TF.ProjectId,BleTouchDimmer,426C65546F75636844696D6D65722E6B,rev?*%
%TF.FileFunction,Copper,L2,Bot,Signal*%
%FSLAX46Y46*%
G04 Gerber Fmt 4.6, Leading zero omitted, Abs format (unit mm)*
G04 Created by KiCad (PCBNEW 4.0.7) date 11/04/17 19:59:07*
%MOMM*%
%LPD*%
G01*
G04 APERTURE LIST*
%ADD10C,0.100000*%
%ADD11C,2.500000*%
%ADD12R,2.500000X2.500000*%
%ADD13R,2.000000X2.000000*%
%ADD14C,2.000000*%
%ADD15C,2.000000*%
%ADD16O,2.000000X2.600000*%
%ADD17R,2.000000X2.600000*%
%ADD18O,2.600000X2.000000*%
%ADD19R,2.600000X2.000000*%
%ADD20C,1.600000*%
%ADD21C,0.600000*%
%ADD22C,0.300000*%
%ADD23C,0.500000*%
%ADD24C,0.400000*%
%ADD25C,1.000000*%
%ADD26C,3.000000*%
%ADD27C,0.254000*%
G04 APERTURE END LIST*
D10*
D11*
X207010000Y-89060000D03*
X207010000Y-94060000D03*
D12*
X207010000Y-104060000D03*
D11*
X207010000Y-99060000D03*
D13*
X168369000Y-100090000D03*
D14*
X168369000Y-95090000D03*
X168369000Y-85090000D03*
X168369000Y-80090000D03*
X148369000Y-80090000D03*
X148369000Y-85090000D03*
X148369000Y-90090000D03*
X148369000Y-95090000D03*
X148369000Y-100090000D03*
D15*
X109396030Y-70606234D02*
X108971766Y-70181970D01*
X111192081Y-68810183D02*
X110767817Y-68385919D01*
D10*
G36*
X112563868Y-65175654D02*
X114402346Y-67014132D01*
X112988132Y-68428346D01*
X111149654Y-66589868D01*
X112563868Y-65175654D01*
X112563868Y-65175654D01*
G37*
G36*
X215240346Y-71542868D02*
X213401868Y-73381346D01*
X211987654Y-71967132D01*
X213826132Y-70128654D01*
X215240346Y-71542868D01*
X215240346Y-71542868D01*
G37*
D15*
X211605817Y-70171081D02*
X212030081Y-69746817D01*
X209809766Y-68375030D02*
X210234030Y-67950766D01*
D16*
X161925000Y-71755000D03*
X159385000Y-71755000D03*
X156845000Y-71755000D03*
X154305000Y-71755000D03*
X151765000Y-71755000D03*
X149225000Y-71755000D03*
D17*
X146685000Y-71755000D03*
D18*
X107315000Y-79629000D03*
X107315000Y-82169000D03*
X107315000Y-84709000D03*
X107315000Y-87249000D03*
X107315000Y-89789000D03*
D19*
X107315000Y-92329000D03*
D15*
X156705073Y-108427663D02*
X157129337Y-108851927D01*
X154909022Y-110223714D02*
X155333286Y-110647978D01*
X153112970Y-112019766D02*
X153537234Y-112444030D01*
X151316919Y-113815817D02*
X151741183Y-114240081D01*
D10*
G36*
X149945132Y-117450346D02*
X148106654Y-115611868D01*
X149520868Y-114197654D01*
X151359346Y-116036132D01*
X149945132Y-117450346D01*
X149945132Y-117450346D01*
G37*
G36*
X162965654Y-108924132D02*
X164804132Y-107085654D01*
X166218346Y-108499868D01*
X164379868Y-110338346D01*
X162965654Y-108924132D01*
X162965654Y-108924132D01*
G37*
D15*
X166600183Y-110295919D02*
X166175919Y-110720183D01*
X168396234Y-112091970D02*
X167971970Y-112516234D01*
X170192286Y-113888022D02*
X169768022Y-114312286D01*
X171988337Y-115684073D02*
X171564073Y-116108337D01*
D20*
X207184000Y-83280000D03*
X202184000Y-81280000D03*
D13*
X140826500Y-81788000D03*
D14*
X135826500Y-81788000D03*
D20*
X194056000Y-86868000D03*
X199056000Y-89668000D03*
D21*
X157775990Y-111792007D03*
X142748000Y-102743000D03*
X142494000Y-100711000D03*
X142494000Y-104267000D03*
X142494000Y-105918000D03*
X142621000Y-107696000D03*
X145796000Y-104255010D03*
X151638000Y-104140002D03*
X152526998Y-105906010D03*
X149479000Y-105906010D03*
X145796000Y-105918000D03*
X152908000Y-107696000D03*
X149479000Y-107696004D03*
X145923000Y-107696000D03*
X152781000Y-109474000D03*
X149479000Y-109474000D03*
X145796000Y-109474000D03*
X151130006Y-111125000D03*
X147066000Y-111124984D03*
X143383000Y-111125000D03*
X160020000Y-102870000D03*
X151511000Y-101219000D03*
X154686000Y-100838000D03*
X160020000Y-100711000D03*
X157480000Y-100838000D03*
X162814000Y-92964000D03*
X175260000Y-69977000D03*
X165100000Y-71120000D03*
X195072000Y-68768000D03*
X127635000Y-64389000D03*
X122047000Y-64897000D03*
X168577561Y-68591911D03*
X168656000Y-69215000D03*
X177419000Y-69088000D03*
X187452000Y-68834000D03*
X187452000Y-65913000D03*
X200152000Y-66167000D03*
X204089000Y-64516000D03*
X111506000Y-77851000D03*
X109728000Y-78359000D03*
X122516010Y-89662000D03*
X122516010Y-90551000D03*
X115189000Y-87122000D03*
X114681000Y-85979006D03*
X111252002Y-88265000D03*
X110236000Y-88264994D03*
X109347000Y-88265000D03*
X111252000Y-92583000D03*
X110363000Y-93218000D03*
X109347000Y-93853000D03*
X163449000Y-106426000D03*
X162774772Y-104506000D03*
X172212000Y-106172000D03*
X170265831Y-107229169D03*
X168402000Y-109220000D03*
X174371000Y-108966000D03*
X170180000Y-110363000D03*
X162941000Y-87630000D03*
X162941000Y-98679000D03*
X162433000Y-102616000D03*
X171767629Y-112087065D03*
X154559000Y-98425000D03*
X157607000Y-98552000D03*
X160147000Y-98552000D03*
X177038000Y-118237000D03*
X133096000Y-101600000D03*
X134578838Y-99482162D03*
X136398000Y-111125000D03*
X132842000Y-105664000D03*
X141859000Y-114935000D03*
X130302000Y-113919000D03*
X124598673Y-114648011D03*
X143764000Y-116459000D03*
X134239000Y-114046000D03*
X142875000Y-113411000D03*
X145796000Y-115570000D03*
X148336000Y-117475000D03*
X124460000Y-117094000D03*
X147193000Y-74549000D03*
X150495000Y-74168000D03*
X153035000Y-74168000D03*
X155575000Y-74295000D03*
X154305000Y-88773000D03*
X157353000Y-88519000D03*
X160782000Y-88011000D03*
X154051000Y-80518000D03*
X157607000Y-80137000D03*
X159766000Y-77978000D03*
X161925000Y-75819000D03*
X140716000Y-73025000D03*
X116713000Y-65278000D03*
X140970000Y-73914000D03*
X182372000Y-68580000D03*
X116332000Y-117133000D03*
X173355000Y-114046000D03*
X162687000Y-116332000D03*
X158242000Y-116332000D03*
X153543000Y-116332000D03*
X155829000Y-114173000D03*
X160528000Y-114173000D03*
X212471000Y-65278000D03*
X215646000Y-69723000D03*
X215646000Y-69723000D03*
X210947000Y-73914000D03*
X106045000Y-95758000D03*
X106172000Y-111887000D03*
X106172000Y-104013000D03*
X132715000Y-109855000D03*
X168508092Y-70356775D03*
X180721000Y-64770000D03*
X167385996Y-64770000D03*
X129540000Y-64770000D03*
X173228000Y-117856000D03*
X177927000Y-114681000D03*
X180721000Y-68199000D03*
X112776000Y-76581000D03*
X112776000Y-73533000D03*
X126492000Y-90805000D03*
X126492000Y-90043000D03*
X126492000Y-89408000D03*
X126492000Y-88519000D03*
X125603000Y-109347000D03*
X125603000Y-108712000D03*
X129540000Y-77470000D03*
X128905000Y-77470000D03*
X128270000Y-77470000D03*
X127635000Y-77470000D03*
X127000000Y-76835000D03*
X127635000Y-76835000D03*
X128270000Y-76835000D03*
X114935000Y-91821000D03*
X114173000Y-89535000D03*
X112395000Y-87248998D03*
X112395002Y-92075000D03*
X194818000Y-95758000D03*
X196342000Y-95758000D03*
X184150000Y-94488000D03*
X184150000Y-93472000D03*
X197358000Y-112268000D03*
X197358000Y-113792000D03*
X197104000Y-102616000D03*
X195580000Y-102616000D03*
X117475000Y-99949000D03*
X117983000Y-68199000D03*
X115062000Y-100076000D03*
X117602000Y-110998000D03*
X113030000Y-99060000D03*
X116078000Y-98171000D03*
X116078000Y-77597000D03*
X130302000Y-79756000D03*
X130302000Y-79756000D03*
X144526000Y-78359000D03*
X114130000Y-114935000D03*
X144678400Y-94996000D03*
X145592800Y-94996000D03*
X145897600Y-85090000D03*
X165735000Y-116840000D03*
X164084000Y-114808000D03*
X160655000Y-112903000D03*
X158369000Y-110998000D03*
X109601000Y-82169000D03*
X109601000Y-86106000D03*
X111506000Y-83439000D03*
X110744000Y-79375000D03*
X144017998Y-100457000D03*
X144145000Y-110363000D03*
X138684000Y-100457000D03*
X141605000Y-111887004D03*
X139573000Y-108966000D03*
X139573004Y-114300000D03*
X138175996Y-107061000D03*
X162687000Y-105410000D03*
X138175998Y-112776000D03*
X136652000Y-105156000D03*
X162560000Y-103632000D03*
X136652000Y-108204000D03*
X161974012Y-101600006D03*
X176276000Y-67691000D03*
X169164000Y-67691000D03*
X120904000Y-67183000D03*
X119126000Y-110490000D03*
X136779000Y-100584000D03*
X120523000Y-110871000D03*
X121666000Y-71374006D03*
X122936000Y-110744000D03*
X124333004Y-65913000D03*
X124333000Y-110744000D03*
X112902994Y-80899000D03*
X113284000Y-78994000D03*
X128270000Y-83947000D03*
X128270000Y-93218000D03*
X117729000Y-116205000D03*
X115443000Y-114681000D03*
X187960000Y-102616000D03*
X189230000Y-102616000D03*
X190500000Y-102616000D03*
X187960000Y-100584000D03*
X189230000Y-100584000D03*
X190500000Y-100584000D03*
X190500000Y-101600000D03*
X189230000Y-101600000D03*
X187960000Y-101600000D03*
D22*
X164211000Y-103378000D02*
X164211000Y-103083542D01*
X164211000Y-103083542D02*
X163327474Y-102200016D01*
X163327474Y-102200016D02*
X163127018Y-102200016D01*
X156917205Y-108639795D02*
X156917205Y-110933222D01*
X156917205Y-110933222D02*
X157475991Y-111492008D01*
X157475991Y-111492008D02*
X157775990Y-111792007D01*
D23*
X159856984Y-113873001D02*
X157775990Y-111792007D01*
X160528000Y-114173000D02*
X160228001Y-113873001D01*
X160228001Y-113873001D02*
X159856984Y-113873001D01*
D22*
X142494000Y-102997000D02*
X142748000Y-102743000D01*
X142494000Y-100711000D02*
X142494000Y-102489000D01*
X142494000Y-102489000D02*
X142748000Y-102743000D01*
X142494000Y-104267000D02*
X142494000Y-102997000D01*
X142494000Y-105918000D02*
X142494000Y-104267000D01*
X142621000Y-107696000D02*
X142621000Y-106045000D01*
X142621000Y-106045000D02*
X142494000Y-105918000D01*
X142621000Y-109938736D02*
X142621000Y-107696000D01*
X143383000Y-111125000D02*
X143383000Y-110700736D01*
X143383000Y-110700736D02*
X142621000Y-109938736D01*
X151511000Y-101219000D02*
X151511000Y-104013002D01*
X151638000Y-104564266D02*
X151638000Y-104140002D01*
X151638000Y-105017012D02*
X151638000Y-104564266D01*
X152526998Y-105906010D02*
X151638000Y-105017012D01*
X151511000Y-104013002D02*
X151638000Y-104140002D01*
X149606000Y-107315000D02*
X149479000Y-107188000D01*
X149479000Y-106330274D02*
X149479000Y-105906010D01*
X149479000Y-107188000D02*
X149479000Y-106330274D01*
X149479000Y-107398736D02*
X149479000Y-107696004D01*
X149606000Y-107315000D02*
X149562736Y-107315000D01*
X149562736Y-107315000D02*
X149479000Y-107398736D01*
X149479000Y-109474000D02*
X149479000Y-107696004D01*
X146222999Y-107396001D02*
X145923000Y-107696000D01*
X146304000Y-107315000D02*
X146222999Y-107396001D01*
X149606000Y-107315000D02*
X146304000Y-107315000D01*
X152356736Y-109474000D02*
X152781000Y-109474000D01*
X150078998Y-109474000D02*
X152356736Y-109474000D01*
X149778999Y-109174001D02*
X150078998Y-109474000D01*
X149778999Y-109174001D02*
X149479000Y-109474000D01*
X149778999Y-109092007D02*
X149778999Y-109174001D01*
X149687001Y-109000009D02*
X149778999Y-109092007D01*
X149190975Y-109000009D02*
X147365999Y-110824985D01*
X149687001Y-109000009D02*
X149190975Y-109000009D01*
X147065984Y-111125000D02*
X147066000Y-111124984D01*
X143383000Y-111125000D02*
X147065984Y-111125000D01*
X147365999Y-110824985D02*
X147066000Y-111124984D01*
X160020000Y-100711000D02*
X160020000Y-102870000D01*
X154559000Y-100711000D02*
X154686000Y-100838000D01*
X154559000Y-98425000D02*
X154559000Y-100711000D01*
X157607000Y-100711000D02*
X157480000Y-100838000D01*
X157607000Y-98552000D02*
X157607000Y-100711000D01*
X142875000Y-113411000D02*
X145276010Y-113411000D01*
X145276010Y-113411000D02*
X149687001Y-109000009D01*
X162941000Y-87630000D02*
X162941000Y-92837000D01*
X162941000Y-92837000D02*
X162814000Y-92964000D01*
X116713000Y-65278000D02*
X121666000Y-65278000D01*
X121666000Y-65278000D02*
X122047000Y-64897000D01*
X181483000Y-69469000D02*
X177800000Y-69469000D01*
X177800000Y-69469000D02*
X177419000Y-69088000D01*
X182372000Y-68580000D02*
X181483000Y-69469000D01*
X204089000Y-64516000D02*
X202438000Y-66167000D01*
X202438000Y-66167000D02*
X200152000Y-66167000D01*
D23*
X109728000Y-78359000D02*
X110998000Y-78359000D01*
X110998000Y-78359000D02*
X111506000Y-77851000D01*
X114256736Y-85979006D02*
X114681000Y-85979006D01*
X112152990Y-85979006D02*
X114256736Y-85979006D01*
X111252002Y-86879994D02*
X112152990Y-85979006D01*
X111252002Y-88265000D02*
X111252002Y-86879994D01*
X111252000Y-92583000D02*
X111252000Y-88265002D01*
X111252000Y-88265002D02*
X111252002Y-88265000D01*
X110235994Y-88265000D02*
X110236000Y-88264994D01*
X109347000Y-88265000D02*
X110235994Y-88265000D01*
X109982000Y-93218000D02*
X110363000Y-93218000D01*
X109347000Y-93853000D02*
X109982000Y-93218000D01*
D22*
X170265831Y-107229169D02*
X171154831Y-107229169D01*
X171154831Y-107229169D02*
X172212000Y-106172000D01*
X171767629Y-112087065D02*
X174371000Y-109483694D01*
X174371000Y-109483694D02*
X174371000Y-108966000D01*
X162941000Y-98679000D02*
X162941000Y-87630000D01*
X154305000Y-98171000D02*
X154559000Y-98425000D01*
X154305000Y-88773000D02*
X154305000Y-98171000D01*
X157353000Y-98298000D02*
X157607000Y-98552000D01*
X157353000Y-88519000D02*
X157353000Y-98298000D01*
X134278839Y-99782161D02*
X134578838Y-99482162D01*
X132842000Y-101219000D02*
X134278839Y-99782161D01*
X132842000Y-105664000D02*
X132842000Y-101219000D01*
X132715000Y-109855000D02*
X132715000Y-105791000D01*
X132715000Y-105791000D02*
X132842000Y-105664000D01*
X126969000Y-116713000D02*
X126663662Y-116713000D01*
X126663662Y-116713000D02*
X124598673Y-114648011D01*
X143085736Y-116713000D02*
X126969000Y-116713000D01*
X143764000Y-116459000D02*
X143339736Y-116459000D01*
X143339736Y-116459000D02*
X143085736Y-116713000D01*
X140081000Y-116205000D02*
X136398000Y-116205000D01*
X136398000Y-116205000D02*
X134239000Y-114046000D01*
X142575001Y-113710999D02*
X140081000Y-116205000D01*
X142875000Y-113411000D02*
X142575001Y-113710999D01*
X145796000Y-115570000D02*
X145034000Y-115570000D01*
X145034000Y-115570000D02*
X142875000Y-113411000D01*
X148336000Y-117475000D02*
X147701000Y-117475000D01*
X147701000Y-117475000D02*
X145796000Y-115570000D01*
X153035000Y-116332000D02*
X151466644Y-117900356D01*
X151466644Y-117900356D02*
X148761356Y-117900356D01*
X148761356Y-117900356D02*
X148336000Y-117475000D01*
X153543000Y-116332000D02*
X153035000Y-116332000D01*
X159766000Y-77978000D02*
X159258000Y-77978000D01*
X159258000Y-77978000D02*
X155575000Y-74295000D01*
X161925000Y-73355000D02*
X161925000Y-75819000D01*
X161925000Y-71755000D02*
X161925000Y-73355000D01*
D23*
X171776205Y-115896205D02*
X171776205Y-115624795D01*
X171776205Y-115624795D02*
X173355000Y-114046000D01*
X158242000Y-116332000D02*
X162687000Y-116332000D01*
X155829000Y-114173000D02*
X155702000Y-114173000D01*
X155702000Y-114173000D02*
X153543000Y-116332000D01*
X213614000Y-71755000D02*
X215646000Y-69723000D01*
X106172000Y-104013000D02*
X106172000Y-95885000D01*
X106172000Y-95885000D02*
X106045000Y-95758000D01*
X106172000Y-104013000D02*
X106172000Y-111887000D01*
X167385996Y-64770000D02*
X167385996Y-69658943D01*
X167385996Y-69658943D02*
X168083828Y-70356775D01*
X168083828Y-70356775D02*
X168508092Y-70356775D01*
X180721000Y-68199000D02*
X180721000Y-64770000D01*
X129540000Y-77470000D02*
X129540000Y-64770000D01*
X129540000Y-66040000D02*
X129540000Y-64770000D01*
X127635000Y-76835000D02*
X127000000Y-76835000D01*
X127635000Y-76835000D02*
X128270000Y-76835000D01*
X127635000Y-77470000D02*
X127635000Y-76835000D01*
X128270000Y-77470000D02*
X127635000Y-77470000D01*
X128905000Y-77470000D02*
X128270000Y-77470000D01*
X129540000Y-77470000D02*
X128905000Y-77470000D01*
D24*
X173228000Y-117856000D02*
X176403000Y-114681000D01*
D23*
X176403000Y-114681000D02*
X177927000Y-114681000D01*
X112776000Y-73533000D02*
X112776000Y-76581000D01*
X126492000Y-89408000D02*
X126492000Y-90043000D01*
D25*
X125603000Y-89027000D02*
X125603000Y-91694000D01*
X125603000Y-77807736D02*
X125603000Y-89027000D01*
D23*
X125603000Y-89027000D02*
X125984000Y-89027000D01*
X125984000Y-89027000D02*
X126492000Y-88519000D01*
D25*
X125603000Y-91694000D02*
X125603000Y-108712000D01*
X125603000Y-109347000D02*
X125603000Y-108712000D01*
X127000000Y-76835000D02*
X126575736Y-76835000D01*
X126575736Y-76835000D02*
X125603000Y-77807736D01*
D23*
X129540000Y-77470000D02*
X141270000Y-77470000D01*
X141270000Y-77470000D02*
X146685000Y-72055000D01*
X146685000Y-72055000D02*
X146685000Y-71755000D01*
X127000000Y-77470000D02*
X127635000Y-77470000D01*
X127000000Y-76835000D02*
X127000000Y-77470000D01*
X114173000Y-91059000D02*
X114635001Y-91521001D01*
X114173000Y-89535000D02*
X114173000Y-91059000D01*
X114635001Y-91521001D02*
X114935000Y-91821000D01*
X112395002Y-87249000D02*
X112395000Y-87248998D01*
X112395002Y-92075000D02*
X112395002Y-87249000D01*
D22*
X117774999Y-99649001D02*
X117475000Y-99949000D01*
X118282999Y-99141001D02*
X117774999Y-99649001D01*
X118282999Y-68498999D02*
X118282999Y-99141001D01*
X117983000Y-68199000D02*
X118282999Y-68498999D01*
X115062000Y-102108000D02*
X115062000Y-100076000D01*
X115062000Y-108033736D02*
X115062000Y-102108000D01*
X117602000Y-110998000D02*
X117602000Y-110573736D01*
X117602000Y-110573736D02*
X115062000Y-108033736D01*
D23*
X114130000Y-114935000D02*
X112903000Y-113708000D01*
X112903000Y-113708000D02*
X112903000Y-99187000D01*
X112903000Y-99187000D02*
X113030000Y-99060000D01*
X116377999Y-97871001D02*
X116078000Y-98171000D01*
X116078000Y-77597000D02*
X116631996Y-78150996D01*
X116631996Y-97617004D02*
X116377999Y-97871001D01*
X116631996Y-78150996D02*
X116631996Y-97617004D01*
X144526000Y-78359000D02*
X143129000Y-79756000D01*
X143129000Y-79756000D02*
X130302000Y-79756000D01*
D25*
X145846800Y-85565064D02*
X145846800Y-94742000D01*
X145846800Y-94742000D02*
X145592800Y-94996000D01*
X145897600Y-85090000D02*
X145897600Y-85514264D01*
X145897600Y-85514264D02*
X145846800Y-85565064D01*
D22*
X161124002Y-99999994D02*
X161632001Y-99491995D01*
X162415644Y-106396646D02*
X161124002Y-105105004D01*
X165735000Y-116840000D02*
X165735000Y-113665000D01*
X156845000Y-72055000D02*
X156845000Y-71755000D01*
X161632001Y-76842001D02*
X156845000Y-72055000D01*
X162415644Y-110345644D02*
X162415644Y-106396646D01*
X165735000Y-113665000D02*
X162415644Y-110345644D01*
X161124002Y-105105004D02*
X161124002Y-99999994D01*
X161632001Y-99491995D02*
X161632001Y-76842001D01*
X154305000Y-71755000D02*
X154305000Y-74930000D01*
X161163000Y-111506000D02*
X164084000Y-114427000D01*
X154305000Y-74930000D02*
X159004000Y-79629000D01*
X159004000Y-79629000D02*
X159004000Y-104902000D01*
X159004000Y-104902000D02*
X161163000Y-107061000D01*
X161163000Y-107061000D02*
X161163000Y-111506000D01*
X164084000Y-114427000D02*
X164084000Y-114808000D01*
X159893000Y-112141000D02*
X160355001Y-112603001D01*
X160355001Y-112603001D02*
X160655000Y-112903000D01*
X159893000Y-107442000D02*
X159893000Y-112141000D01*
X155956000Y-79756000D02*
X155956000Y-103505000D01*
X151765000Y-75565000D02*
X155956000Y-79756000D01*
X155956000Y-103505000D02*
X159893000Y-107442000D01*
X151765000Y-71755000D02*
X151765000Y-75565000D01*
X158668999Y-107868999D02*
X158668999Y-110698001D01*
X152527000Y-101727000D02*
X158668999Y-107868999D01*
X149225000Y-76200000D02*
X152527000Y-79502000D01*
X149225000Y-71755000D02*
X149225000Y-76200000D01*
X152527000Y-79502000D02*
X152527000Y-101727000D01*
X158668999Y-110698001D02*
X158369000Y-110998000D01*
D23*
X109601000Y-84155000D02*
X109601000Y-82169000D01*
X109601000Y-86106000D02*
X109601000Y-84155000D01*
X110744000Y-79375000D02*
X111252000Y-79883000D01*
X111252000Y-79883000D02*
X111252000Y-83185000D01*
X111252000Y-83185000D02*
X111506000Y-83439000D01*
D22*
X144145000Y-100584002D02*
X144017998Y-100457000D01*
X144145000Y-110363000D02*
X144145000Y-100584002D01*
X141605000Y-103378000D02*
X138983999Y-100756999D01*
X141605000Y-111887004D02*
X141605000Y-103378000D01*
X138983999Y-100756999D02*
X138684000Y-100457000D01*
X139573004Y-108966004D02*
X139573000Y-108966000D01*
X139573004Y-114300000D02*
X139573004Y-108966004D01*
X138175998Y-112776000D02*
X138175998Y-107061002D01*
X138175998Y-107061002D02*
X138175996Y-107061000D01*
X166388051Y-110508051D02*
X167378000Y-109518102D01*
X167378000Y-109518102D02*
X167378000Y-108323000D01*
X167378000Y-108323000D02*
X164465000Y-105410000D01*
X164465000Y-105410000D02*
X163111264Y-105410000D01*
X163111264Y-105410000D02*
X162687000Y-105410000D01*
X136652000Y-108204000D02*
X136652000Y-105156000D01*
X168184102Y-112304102D02*
X168184102Y-112231898D01*
X168184102Y-112231898D02*
X169291000Y-111125000D01*
X163365264Y-104013000D02*
X162984264Y-103632000D01*
X169291000Y-111125000D02*
X169291000Y-108712000D01*
X164592000Y-104013000D02*
X163365264Y-104013000D01*
X169291000Y-108712000D02*
X164592000Y-104013000D01*
X162984264Y-103632000D02*
X162560000Y-103632000D01*
X162398276Y-101600006D02*
X161974012Y-101600006D01*
X171323000Y-109347000D02*
X163576006Y-101600006D01*
X171323000Y-111471018D02*
X171323000Y-109347000D01*
X169980154Y-112813864D02*
X171323000Y-111471018D01*
X169980154Y-114100154D02*
X169980154Y-112813864D01*
X163576006Y-101600006D02*
X162398276Y-101600006D01*
D26*
X207010000Y-94060000D02*
X203448000Y-94060000D01*
X203448000Y-94060000D02*
X199056000Y-89668000D01*
D22*
X119126000Y-110490000D02*
X119634000Y-109982000D01*
X119634000Y-109982000D02*
X119634000Y-68453000D01*
X119634000Y-68453000D02*
X120604001Y-67482999D01*
X120604001Y-67482999D02*
X120904000Y-67183000D01*
X169164000Y-67691000D02*
X176276000Y-67691000D01*
X136779000Y-100584000D02*
X136270992Y-100584000D01*
X136270992Y-100584000D02*
X135001000Y-101853992D01*
X135001000Y-102278256D02*
X135001000Y-101853992D01*
X135001000Y-109728000D02*
X135001000Y-102278256D01*
X132969000Y-111760000D02*
X135001000Y-109728000D01*
X121412000Y-111760000D02*
X132969000Y-111760000D01*
X120523000Y-110871000D02*
X121412000Y-111760000D01*
D23*
X121666000Y-71798270D02*
X121666000Y-71374006D01*
X121666000Y-109474000D02*
X121666000Y-71798270D01*
X122936000Y-110744000D02*
X121666000Y-109474000D01*
X121666000Y-71465998D02*
X121666000Y-71374006D01*
D22*
X124333000Y-65913004D02*
X124333004Y-65913000D01*
X124333000Y-66040000D02*
X124333000Y-65913004D01*
X124333000Y-66294000D02*
X124333000Y-66040000D01*
X124333000Y-110744000D02*
X124333000Y-66040000D01*
D23*
X113202993Y-80599001D02*
X112902994Y-80899000D01*
X113284000Y-80517994D02*
X113202993Y-80599001D01*
X113284000Y-78994000D02*
X113284000Y-80517994D01*
X128270000Y-83947000D02*
X128270000Y-93218000D01*
X116078000Y-114681000D02*
X117602000Y-116205000D01*
X117602000Y-116205000D02*
X117729000Y-116205000D01*
X115443000Y-114681000D02*
X116078000Y-114681000D01*
D26*
X183134000Y-101600000D02*
X190500000Y-101600000D01*
X179578000Y-98298000D02*
X183007000Y-101727000D01*
X170180000Y-98298000D02*
X179578000Y-98298000D01*
X168388000Y-100090000D02*
X170180000Y-98298000D01*
X168369000Y-100090000D02*
X168388000Y-100090000D01*
D27*
G36*
X197993000Y-114173000D02*
X195072000Y-114173000D01*
X195072000Y-101727000D01*
X197993000Y-101727000D01*
X197993000Y-114173000D01*
X197993000Y-114173000D01*
G37*
X197993000Y-114173000D02*
X195072000Y-114173000D01*
X195072000Y-101727000D01*
X197993000Y-101727000D01*
X197993000Y-114173000D01*
G36*
X197231000Y-96139000D02*
X182499000Y-96139000D01*
X182499000Y-92837000D01*
X197231000Y-92837000D01*
X197231000Y-96139000D01*
X197231000Y-96139000D01*
G37*
X197231000Y-96139000D02*
X182499000Y-96139000D01*
X182499000Y-92837000D01*
X197231000Y-92837000D01*
X197231000Y-96139000D01*
G36*
X191643000Y-102743000D02*
X186817000Y-102743000D01*
X186817000Y-100457000D01*
X191643000Y-100457000D01*
X191643000Y-102743000D01*
X191643000Y-102743000D01*
G37*
X191643000Y-102743000D02*
X186817000Y-102743000D01*
X186817000Y-100457000D01*
X191643000Y-100457000D01*
X191643000Y-102743000D01*
G36*
X208659742Y-79171048D02*
X208537060Y-84201000D01*
X205867000Y-84201000D01*
X205867000Y-79121000D01*
X205856994Y-79071590D01*
X205836950Y-79038965D01*
X204439950Y-77387965D01*
X204400396Y-77356710D01*
X204343481Y-77343001D01*
X170815481Y-77216001D01*
X170766033Y-77225819D01*
X170725197Y-77253197D01*
X170090197Y-77888197D01*
X170062334Y-77930211D01*
X170053000Y-77978000D01*
X170053000Y-81153000D01*
X167132000Y-81153000D01*
X167132000Y-77017381D01*
X168832872Y-75438000D01*
X205051129Y-75438000D01*
X208659742Y-79171048D01*
X208659742Y-79171048D01*
G37*
X208659742Y-79171048D02*
X208537060Y-84201000D01*
X205867000Y-84201000D01*
X205867000Y-79121000D01*
X205856994Y-79071590D01*
X205836950Y-79038965D01*
X204439950Y-77387965D01*
X204400396Y-77356710D01*
X204343481Y-77343001D01*
X170815481Y-77216001D01*
X170766033Y-77225819D01*
X170725197Y-77253197D01*
X170090197Y-77888197D01*
X170062334Y-77930211D01*
X170053000Y-77978000D01*
X170053000Y-81153000D01*
X167132000Y-81153000D01*
X167132000Y-77017381D01*
X168832872Y-75438000D01*
X205051129Y-75438000D01*
X208659742Y-79171048D01*
G36*
X216346935Y-63796211D02*
X216510498Y-63905502D01*
X216619789Y-64069065D01*
X216668000Y-64311441D01*
X216668000Y-76073000D01*
X210872606Y-76073000D01*
X207900407Y-73100801D01*
X212447804Y-73100801D01*
X212447804Y-73325307D01*
X213042169Y-73919672D01*
X213275558Y-74016345D01*
X213528177Y-74016346D01*
X213761566Y-73919673D01*
X214568064Y-73113175D01*
X214568064Y-72888669D01*
X213614000Y-71934605D01*
X212447804Y-73100801D01*
X207900407Y-73100801D01*
X205829803Y-71030197D01*
X205787789Y-71002334D01*
X205740000Y-70993000D01*
X182372000Y-70993000D01*
X182370876Y-70993005D01*
X168019876Y-71120005D01*
X167970557Y-71130448D01*
X167937165Y-71151602D01*
X163746165Y-74834602D01*
X163715655Y-74874734D01*
X163703000Y-74930000D01*
X163703000Y-101048267D01*
X163576006Y-101023005D01*
X163576001Y-101023006D01*
X162425255Y-101023006D01*
X162386362Y-100984045D01*
X162119256Y-100873132D01*
X161830037Y-100872880D01*
X161701002Y-100926196D01*
X161701002Y-100238996D01*
X162040002Y-99899996D01*
X162165079Y-99712803D01*
X162209001Y-99491995D01*
X162209001Y-76842006D01*
X162209002Y-76842001D01*
X162165079Y-76621193D01*
X162134831Y-76575923D01*
X162040002Y-76434000D01*
X162039999Y-76433998D01*
X159056491Y-73450489D01*
X159385000Y-73515834D01*
X159931089Y-73407210D01*
X160394041Y-73097875D01*
X160534077Y-72888296D01*
X160858683Y-73300922D01*
X161416645Y-73614144D01*
X161544566Y-73645124D01*
X161798000Y-73525777D01*
X161798000Y-71882000D01*
X162052000Y-71882000D01*
X162052000Y-73525777D01*
X162305434Y-73645124D01*
X162433355Y-73614144D01*
X162991317Y-73300922D01*
X163386942Y-72798020D01*
X163560000Y-72182000D01*
X163560000Y-71882000D01*
X162052000Y-71882000D01*
X161798000Y-71882000D01*
X161778000Y-71882000D01*
X161778000Y-71628000D01*
X161798000Y-71628000D01*
X161798000Y-69984223D01*
X162052000Y-69984223D01*
X162052000Y-71628000D01*
X163560000Y-71628000D01*
X163560000Y-71328000D01*
X163386942Y-70711980D01*
X162991317Y-70209078D01*
X162433355Y-69895856D01*
X162305434Y-69864876D01*
X162052000Y-69984223D01*
X161798000Y-69984223D01*
X161544566Y-69864876D01*
X161416645Y-69895856D01*
X160858683Y-70209078D01*
X160534077Y-70621704D01*
X160394041Y-70412125D01*
X159931089Y-70102790D01*
X159385000Y-69994166D01*
X158838911Y-70102790D01*
X158375959Y-70412125D01*
X158115000Y-70802677D01*
X157854041Y-70412125D01*
X157391089Y-70102790D01*
X156845000Y-69994166D01*
X156298911Y-70102790D01*
X155835959Y-70412125D01*
X155575000Y-70802677D01*
X155314041Y-70412125D01*
X154851089Y-70102790D01*
X154305000Y-69994166D01*
X153758911Y-70102790D01*
X153295959Y-70412125D01*
X153035000Y-70802677D01*
X152774041Y-70412125D01*
X152311089Y-70102790D01*
X151765000Y-69994166D01*
X151218911Y-70102790D01*
X150755959Y-70412125D01*
X150495000Y-70802677D01*
X150234041Y-70412125D01*
X149771089Y-70102790D01*
X149225000Y-69994166D01*
X148678911Y-70102790D01*
X148215959Y-70412125D01*
X148120365Y-70555191D01*
X148120365Y-70455000D01*
X148090591Y-70296763D01*
X147997073Y-70151433D01*
X147854381Y-70053936D01*
X147685000Y-70019635D01*
X145685000Y-70019635D01*
X145526763Y-70049409D01*
X145381433Y-70142927D01*
X145283936Y-70285619D01*
X145249635Y-70455000D01*
X145249635Y-72532942D01*
X140989578Y-76793000D01*
X130810000Y-76793000D01*
X130810000Y-76200000D01*
X130766573Y-75969205D01*
X130630173Y-75757233D01*
X130422051Y-75615029D01*
X130217000Y-75573505D01*
X130217000Y-65035353D01*
X130266874Y-64915244D01*
X130266875Y-64913975D01*
X166658870Y-64913975D01*
X166708996Y-65035289D01*
X166708996Y-69658943D01*
X166760530Y-69918020D01*
X166871480Y-70084068D01*
X166907285Y-70137654D01*
X167605116Y-70835486D01*
X167664369Y-70875077D01*
X167824751Y-70982241D01*
X168083828Y-71033775D01*
X168242739Y-71033775D01*
X168362848Y-71083649D01*
X168652067Y-71083901D01*
X168919367Y-70973455D01*
X169124053Y-70769125D01*
X169234966Y-70502019D01*
X169235218Y-70212800D01*
X169124772Y-69945500D01*
X168920442Y-69740814D01*
X168653336Y-69629901D01*
X168364117Y-69629649D01*
X168328742Y-69644266D01*
X168062996Y-69378521D01*
X168062996Y-67834975D01*
X168436874Y-67834975D01*
X168547320Y-68102275D01*
X168751650Y-68306961D01*
X169018756Y-68417874D01*
X169307975Y-68418126D01*
X169575275Y-68307680D01*
X169615024Y-68268000D01*
X175824757Y-68268000D01*
X175863650Y-68306961D01*
X176130756Y-68417874D01*
X176419975Y-68418126D01*
X176687275Y-68307680D01*
X176891961Y-68103350D01*
X177002874Y-67836244D01*
X177003126Y-67547025D01*
X176892680Y-67279725D01*
X176688350Y-67075039D01*
X176421244Y-66964126D01*
X176132025Y-66963874D01*
X175864725Y-67074320D01*
X175824976Y-67114000D01*
X169615243Y-67114000D01*
X169576350Y-67075039D01*
X169309244Y-66964126D01*
X169020025Y-66963874D01*
X168752725Y-67074320D01*
X168548039Y-67278650D01*
X168437126Y-67545756D01*
X168436874Y-67834975D01*
X168062996Y-67834975D01*
X168062996Y-65035353D01*
X168112870Y-64915244D01*
X168112871Y-64913975D01*
X179993874Y-64913975D01*
X180044000Y-65035289D01*
X180044000Y-67933647D01*
X179994126Y-68053756D01*
X179993874Y-68342975D01*
X180104320Y-68610275D01*
X180308650Y-68814961D01*
X180575756Y-68925874D01*
X180864975Y-68926126D01*
X181132275Y-68815680D01*
X181336961Y-68611350D01*
X181425156Y-68398954D01*
X208358843Y-68398954D01*
X208467466Y-68945043D01*
X208776801Y-69407995D01*
X209239753Y-69717330D01*
X209785842Y-69825953D01*
X210246530Y-69734317D01*
X210154894Y-70195005D01*
X210263517Y-70741094D01*
X210572852Y-71204046D01*
X211035804Y-71513381D01*
X211459168Y-71597593D01*
X211449327Y-71607434D01*
X211352654Y-71840823D01*
X211352655Y-72093442D01*
X211449328Y-72326831D01*
X212043693Y-72921196D01*
X212268199Y-72921196D01*
X213434395Y-71755000D01*
X213793605Y-71755000D01*
X214747669Y-72709064D01*
X214972175Y-72709064D01*
X215778673Y-71902566D01*
X215875346Y-71669177D01*
X215875345Y-71416558D01*
X215778672Y-71183169D01*
X215184307Y-70588804D01*
X214959801Y-70588804D01*
X213793605Y-71755000D01*
X213434395Y-71755000D01*
X213420253Y-71740858D01*
X213599858Y-71561253D01*
X213614000Y-71575395D01*
X214780196Y-70409199D01*
X214780196Y-70184693D01*
X214185831Y-69590328D01*
X213952442Y-69493655D01*
X213699823Y-69493654D01*
X213466434Y-69590327D01*
X213456593Y-69600168D01*
X213372381Y-69176804D01*
X213063046Y-68713852D01*
X212600094Y-68404517D01*
X212054005Y-68295894D01*
X211593317Y-68387530D01*
X211684953Y-67926842D01*
X211576330Y-67380753D01*
X211266995Y-66917801D01*
X210804043Y-66608466D01*
X210257954Y-66499843D01*
X209711864Y-66608466D01*
X209248912Y-66917801D01*
X208776801Y-67389913D01*
X208467466Y-67852865D01*
X208358843Y-68398954D01*
X181425156Y-68398954D01*
X181447874Y-68344244D01*
X181448126Y-68055025D01*
X181398000Y-67933711D01*
X181398000Y-65035353D01*
X181447874Y-64915244D01*
X181448126Y-64626025D01*
X181337680Y-64358725D01*
X181133350Y-64154039D01*
X180866244Y-64043126D01*
X180577025Y-64042874D01*
X180309725Y-64153320D01*
X180105039Y-64357650D01*
X179994126Y-64624756D01*
X179993874Y-64913975D01*
X168112871Y-64913975D01*
X168113122Y-64626025D01*
X168002676Y-64358725D01*
X167798346Y-64154039D01*
X167531240Y-64043126D01*
X167242021Y-64042874D01*
X166974721Y-64153320D01*
X166770035Y-64357650D01*
X166659122Y-64624756D01*
X166658870Y-64913975D01*
X130266875Y-64913975D01*
X130267126Y-64626025D01*
X130156680Y-64358725D01*
X129952350Y-64154039D01*
X129685244Y-64043126D01*
X129396025Y-64042874D01*
X129128725Y-64153320D01*
X128924039Y-64357650D01*
X128813126Y-64624756D01*
X128812874Y-64913975D01*
X128863000Y-65035289D01*
X128863000Y-75565000D01*
X126365000Y-75565000D01*
X126134205Y-75608427D01*
X125922233Y-75744827D01*
X125780029Y-75952949D01*
X125730000Y-76200000D01*
X125730000Y-76369760D01*
X124947512Y-77152248D01*
X124910000Y-77208389D01*
X124910000Y-66364247D01*
X124948965Y-66325350D01*
X125059878Y-66058244D01*
X125060130Y-65769025D01*
X124949684Y-65501725D01*
X124745354Y-65297039D01*
X124478248Y-65186126D01*
X124189029Y-65185874D01*
X123921729Y-65296320D01*
X123717043Y-65500650D01*
X123606130Y-65767756D01*
X123605878Y-66056975D01*
X123716324Y-66324275D01*
X123756000Y-66364020D01*
X123756000Y-110292757D01*
X123717039Y-110331650D01*
X123634434Y-110530584D01*
X123552680Y-110332725D01*
X123348350Y-110128039D01*
X123227123Y-110077701D01*
X122343000Y-109193578D01*
X122343000Y-71639359D01*
X122392874Y-71519250D01*
X122393126Y-71230031D01*
X122282680Y-70962731D01*
X122078350Y-70758045D01*
X121811244Y-70647132D01*
X121522025Y-70646880D01*
X121254725Y-70757326D01*
X121050039Y-70961656D01*
X120939126Y-71228762D01*
X120938874Y-71517981D01*
X120989000Y-71639295D01*
X120989000Y-109474000D01*
X121040534Y-109733077D01*
X121086668Y-109802121D01*
X121187289Y-109952711D01*
X122269655Y-111035077D01*
X122319320Y-111155275D01*
X122346997Y-111183000D01*
X121651002Y-111183000D01*
X121250078Y-110782076D01*
X121250126Y-110727025D01*
X121139680Y-110459725D01*
X120935350Y-110255039D01*
X120668244Y-110144126D01*
X120379025Y-110143874D01*
X120140643Y-110242371D01*
X120167078Y-110202809D01*
X120211000Y-109982000D01*
X120211000Y-68692002D01*
X120992923Y-67910078D01*
X121047975Y-67910126D01*
X121315275Y-67799680D01*
X121519961Y-67595350D01*
X121630874Y-67328244D01*
X121631126Y-67039025D01*
X121520680Y-66771725D01*
X121316350Y-66567039D01*
X121049244Y-66456126D01*
X120760025Y-66455874D01*
X120492725Y-66566320D01*
X120288039Y-66770650D01*
X120177126Y-67037756D01*
X120177077Y-67093922D01*
X119225999Y-68044999D01*
X119100922Y-68232192D01*
X119056999Y-68453000D01*
X119057000Y-68453005D01*
X119057000Y-109742999D01*
X119037077Y-109762922D01*
X118982025Y-109762874D01*
X118714725Y-109873320D01*
X118510039Y-110077650D01*
X118399126Y-110344756D01*
X118398874Y-110633975D01*
X118509320Y-110901275D01*
X118713650Y-111105961D01*
X118980756Y-111216874D01*
X119269975Y-111217126D01*
X119537275Y-111106680D01*
X119741961Y-110902350D01*
X119796086Y-110772004D01*
X119795874Y-111014975D01*
X119906320Y-111282275D01*
X120110650Y-111486961D01*
X120377756Y-111597874D01*
X120433921Y-111597923D01*
X121003999Y-112168001D01*
X121191192Y-112293078D01*
X121412000Y-112337001D01*
X121412005Y-112337000D01*
X132968995Y-112337000D01*
X132969000Y-112337001D01*
X133189808Y-112293078D01*
X133377001Y-112168001D01*
X135409001Y-110136001D01*
X135534078Y-109948808D01*
X135578001Y-109728000D01*
X135578000Y-109727995D01*
X135578000Y-105299975D01*
X135924874Y-105299975D01*
X136035320Y-105567275D01*
X136075000Y-105607024D01*
X136075000Y-107752757D01*
X136036039Y-107791650D01*
X135925126Y-108058756D01*
X135924874Y-108347975D01*
X136035320Y-108615275D01*
X136239650Y-108819961D01*
X136506756Y-108930874D01*
X136795975Y-108931126D01*
X137063275Y-108820680D01*
X137267961Y-108616350D01*
X137378874Y-108349244D01*
X137379126Y-108060025D01*
X137268680Y-107792725D01*
X137229000Y-107752976D01*
X137229000Y-107204975D01*
X137448870Y-107204975D01*
X137559316Y-107472275D01*
X137598998Y-107512026D01*
X137598998Y-112324757D01*
X137560037Y-112363650D01*
X137449124Y-112630756D01*
X137448872Y-112919975D01*
X137559318Y-113187275D01*
X137763648Y-113391961D01*
X138030754Y-113502874D01*
X138319973Y-113503126D01*
X138587273Y-113392680D01*
X138791959Y-113188350D01*
X138902872Y-112921244D01*
X138903124Y-112632025D01*
X138792678Y-112364725D01*
X138752998Y-112324976D01*
X138752998Y-109109975D01*
X138845874Y-109109975D01*
X138956320Y-109377275D01*
X138996004Y-109417028D01*
X138996004Y-113848757D01*
X138957043Y-113887650D01*
X138846130Y-114154756D01*
X138845878Y-114443975D01*
X138956324Y-114711275D01*
X139160654Y-114915961D01*
X139427760Y-115026874D01*
X139716979Y-115027126D01*
X139984279Y-114916680D01*
X140188965Y-114712350D01*
X140299878Y-114445244D01*
X140300130Y-114156025D01*
X140189684Y-113888725D01*
X140150004Y-113848976D01*
X140150004Y-109417239D01*
X140188961Y-109378350D01*
X140299874Y-109111244D01*
X140300126Y-108822025D01*
X140189680Y-108554725D01*
X139985350Y-108350039D01*
X139718244Y-108239126D01*
X139429025Y-108238874D01*
X139161725Y-108349320D01*
X138957039Y-108553650D01*
X138846126Y-108820756D01*
X138845874Y-109109975D01*
X138752998Y-109109975D01*
X138752998Y-107512241D01*
X138791957Y-107473350D01*
X138902870Y-107206244D01*
X138903122Y-106917025D01*
X138792676Y-106649725D01*
X138588346Y-106445039D01*
X138321240Y-106334126D01*
X138032021Y-106333874D01*
X137764721Y-106444320D01*
X137560035Y-106648650D01*
X137449122Y-106915756D01*
X137448870Y-107204975D01*
X137229000Y-107204975D01*
X137229000Y-105607243D01*
X137267961Y-105568350D01*
X137378874Y-105301244D01*
X137379126Y-105012025D01*
X137268680Y-104744725D01*
X137064350Y-104540039D01*
X136797244Y-104429126D01*
X136508025Y-104428874D01*
X136240725Y-104539320D01*
X136036039Y-104743650D01*
X135925126Y-105010756D01*
X135924874Y-105299975D01*
X135578000Y-105299975D01*
X135578000Y-102092994D01*
X136440406Y-101230588D01*
X136633756Y-101310874D01*
X136922975Y-101311126D01*
X137190275Y-101200680D01*
X137394961Y-100996350D01*
X137505874Y-100729244D01*
X137505985Y-100600975D01*
X137956874Y-100600975D01*
X138067320Y-100868275D01*
X138271650Y-101072961D01*
X138538756Y-101183874D01*
X138594921Y-101183923D01*
X141028000Y-103617001D01*
X141028000Y-111435761D01*
X140989039Y-111474654D01*
X140878126Y-111741760D01*
X140877874Y-112030979D01*
X140988320Y-112298279D01*
X141192650Y-112502965D01*
X141459756Y-112613878D01*
X141748975Y-112614130D01*
X142016275Y-112503684D01*
X142220961Y-112299354D01*
X142331874Y-112032248D01*
X142332126Y-111743029D01*
X142221680Y-111475729D01*
X142182000Y-111435980D01*
X142182000Y-103378000D01*
X142138078Y-103157192D01*
X142013001Y-102969999D01*
X142012998Y-102969997D01*
X139643977Y-100600975D01*
X143290872Y-100600975D01*
X143401318Y-100868275D01*
X143568000Y-101035247D01*
X143568000Y-109911757D01*
X143529039Y-109950650D01*
X143418126Y-110217756D01*
X143417874Y-110506975D01*
X143528320Y-110774275D01*
X143732650Y-110978961D01*
X143999756Y-111089874D01*
X144288975Y-111090126D01*
X144556275Y-110979680D01*
X144760961Y-110775350D01*
X144871874Y-110508244D01*
X144872126Y-110219025D01*
X144761680Y-109951725D01*
X144722000Y-109911976D01*
X144722000Y-100657325D01*
X144744872Y-100602244D01*
X144745072Y-100372603D01*
X146941752Y-100372603D01*
X147158543Y-100897275D01*
X147559614Y-101299047D01*
X148083907Y-101516752D01*
X148651603Y-101517248D01*
X149176275Y-101300457D01*
X149578047Y-100899386D01*
X149795752Y-100375093D01*
X149796248Y-99807397D01*
X149579457Y-99282725D01*
X149178386Y-98880953D01*
X148654093Y-98663248D01*
X148086397Y-98662752D01*
X147561725Y-98879543D01*
X147159953Y-99280614D01*
X146942248Y-99804907D01*
X146941752Y-100372603D01*
X144745072Y-100372603D01*
X144745124Y-100313025D01*
X144634678Y-100045725D01*
X144430348Y-99841039D01*
X144163242Y-99730126D01*
X143874023Y-99729874D01*
X143606723Y-99840320D01*
X143402037Y-100044650D01*
X143291124Y-100311756D01*
X143290872Y-100600975D01*
X139643977Y-100600975D01*
X139411078Y-100368076D01*
X139411126Y-100313025D01*
X139300680Y-100045725D01*
X139096350Y-99841039D01*
X138829244Y-99730126D01*
X138540025Y-99729874D01*
X138272725Y-99840320D01*
X138068039Y-100044650D01*
X137957126Y-100311756D01*
X137956874Y-100600975D01*
X137505985Y-100600975D01*
X137506126Y-100440025D01*
X137395680Y-100172725D01*
X137191350Y-99968039D01*
X136924244Y-99857126D01*
X136635025Y-99856874D01*
X136367725Y-99967320D01*
X136327976Y-100007000D01*
X136270997Y-100007000D01*
X136270992Y-100006999D01*
X136050184Y-100050922D01*
X135862991Y-100175999D01*
X134592999Y-101445991D01*
X134467922Y-101633184D01*
X134423999Y-101853992D01*
X134424000Y-101853997D01*
X134424000Y-109488998D01*
X132729998Y-111183000D01*
X124922265Y-111183000D01*
X124948961Y-111156350D01*
X125059874Y-110889244D01*
X125060111Y-110617000D01*
X126365000Y-110617000D01*
X126595795Y-110573573D01*
X126807767Y-110437173D01*
X126949971Y-110229051D01*
X127000000Y-109982000D01*
X127000000Y-107950000D01*
X126956573Y-107719205D01*
X126820173Y-107507233D01*
X126612051Y-107365029D01*
X126530000Y-107348413D01*
X126530000Y-91821000D01*
X127000000Y-91821000D01*
X127230795Y-91777573D01*
X127442767Y-91641173D01*
X127584971Y-91433051D01*
X127593000Y-91393403D01*
X127593000Y-92952647D01*
X127543126Y-93072756D01*
X127542874Y-93361975D01*
X127653320Y-93629275D01*
X127857650Y-93833961D01*
X128124756Y-93944874D01*
X128413975Y-93945126D01*
X128452518Y-93929200D01*
X141147800Y-93929200D01*
X141147800Y-96062800D01*
X141191227Y-96293595D01*
X141327627Y-96505567D01*
X141535749Y-96647771D01*
X141782800Y-96697800D01*
X144983200Y-96697800D01*
X145174468Y-96668309D01*
X145394976Y-96546189D01*
X146766576Y-95377789D01*
X146939771Y-95141451D01*
X146941963Y-95130624D01*
X146941752Y-95372603D01*
X147158543Y-95897275D01*
X147559614Y-96299047D01*
X148083907Y-96516752D01*
X148651603Y-96517248D01*
X149176275Y-96300457D01*
X149578047Y-95899386D01*
X149795752Y-95375093D01*
X149796248Y-94807397D01*
X149579457Y-94282725D01*
X149178386Y-93880953D01*
X148654093Y-93663248D01*
X148086397Y-93662752D01*
X147561725Y-93879543D01*
X147159953Y-94280614D01*
X146989800Y-94690389D01*
X146989800Y-93929200D01*
X146946373Y-93698405D01*
X146809973Y-93486433D01*
X146773800Y-93461717D01*
X146773800Y-90372603D01*
X146941752Y-90372603D01*
X147158543Y-90897275D01*
X147559614Y-91299047D01*
X148083907Y-91516752D01*
X148651603Y-91517248D01*
X149176275Y-91300457D01*
X149578047Y-90899386D01*
X149795752Y-90375093D01*
X149796248Y-89807397D01*
X149579457Y-89282725D01*
X149178386Y-88880953D01*
X148654093Y-88663248D01*
X148086397Y-88662752D01*
X147561725Y-88879543D01*
X147159953Y-89280614D01*
X146942248Y-89804907D01*
X146941752Y-90372603D01*
X146773800Y-90372603D01*
X146773800Y-86967920D01*
X149301200Y-86967920D01*
X149531995Y-86924493D01*
X149743967Y-86788093D01*
X149886171Y-86579971D01*
X149936200Y-86332920D01*
X149936200Y-83792920D01*
X149892773Y-83562125D01*
X149756373Y-83350153D01*
X149548251Y-83207949D01*
X149301200Y-83157920D01*
X145288000Y-83157920D01*
X145057205Y-83201347D01*
X144845233Y-83337747D01*
X144703029Y-83545869D01*
X144653000Y-83792920D01*
X144653000Y-86332920D01*
X144696427Y-86563715D01*
X144832827Y-86775687D01*
X144919800Y-86835113D01*
X144919800Y-93294200D01*
X141782800Y-93294200D01*
X141552005Y-93337627D01*
X141340033Y-93474027D01*
X141197829Y-93682149D01*
X141147800Y-93929200D01*
X128452518Y-93929200D01*
X128681275Y-93834680D01*
X128885961Y-93630350D01*
X128996874Y-93363244D01*
X128997126Y-93074025D01*
X128947000Y-92952711D01*
X128947000Y-84212353D01*
X128996874Y-84092244D01*
X128997126Y-83803025D01*
X128886680Y-83535725D01*
X128682350Y-83331039D01*
X128415244Y-83220126D01*
X128126025Y-83219874D01*
X127858725Y-83330320D01*
X127654039Y-83534650D01*
X127543126Y-83801756D01*
X127542874Y-84090975D01*
X127593000Y-84212289D01*
X127593000Y-86390789D01*
X127591573Y-86383205D01*
X127455173Y-86171233D01*
X127247051Y-86029029D01*
X127000000Y-85979000D01*
X126530000Y-85979000D01*
X126530000Y-82940532D01*
X134853573Y-82940532D01*
X134952236Y-83207387D01*
X135561961Y-83433908D01*
X136211960Y-83409856D01*
X136700764Y-83207387D01*
X136799427Y-82940532D01*
X135826500Y-81967605D01*
X134853573Y-82940532D01*
X126530000Y-82940532D01*
X126530000Y-81523461D01*
X134180592Y-81523461D01*
X134204644Y-82173460D01*
X134407113Y-82662264D01*
X134673968Y-82760927D01*
X135646895Y-81788000D01*
X136006105Y-81788000D01*
X136979032Y-82760927D01*
X137245887Y-82662264D01*
X137472408Y-82052539D01*
X137448356Y-81402540D01*
X137245887Y-80913736D01*
X136979032Y-80815073D01*
X136006105Y-81788000D01*
X135646895Y-81788000D01*
X134673968Y-80815073D01*
X134407113Y-80913736D01*
X134180592Y-81523461D01*
X126530000Y-81523461D01*
X126530000Y-79899975D01*
X129574874Y-79899975D01*
X129685320Y-80167275D01*
X129889650Y-80371961D01*
X130156756Y-80482874D01*
X130445975Y-80483126D01*
X130567289Y-80433000D01*
X134928431Y-80433000D01*
X134853573Y-80635468D01*
X135826500Y-81608395D01*
X136799427Y-80635468D01*
X136724569Y-80433000D01*
X139589643Y-80433000D01*
X139522933Y-80475927D01*
X139425436Y-80618619D01*
X139391135Y-80788000D01*
X139391135Y-82788000D01*
X139420909Y-82946237D01*
X139514427Y-83091567D01*
X139657119Y-83189064D01*
X139826500Y-83223365D01*
X141826500Y-83223365D01*
X141984737Y-83193591D01*
X142130067Y-83100073D01*
X142227564Y-82957381D01*
X142261865Y-82788000D01*
X142261865Y-80788000D01*
X142232091Y-80629763D01*
X142138573Y-80484433D01*
X142063298Y-80433000D01*
X143129000Y-80433000D01*
X143388077Y-80381466D01*
X143401341Y-80372603D01*
X146941752Y-80372603D01*
X147158543Y-80897275D01*
X147559614Y-81299047D01*
X148083907Y-81516752D01*
X148651603Y-81517248D01*
X149176275Y-81300457D01*
X149578047Y-80899386D01*
X149795752Y-80375093D01*
X149796248Y-79807397D01*
X149579457Y-79282725D01*
X149178386Y-78880953D01*
X148654093Y-78663248D01*
X148086397Y-78662752D01*
X147561725Y-78879543D01*
X147159953Y-79280614D01*
X146942248Y-79804907D01*
X146941752Y-80372603D01*
X143401341Y-80372603D01*
X143607711Y-80234711D01*
X144817079Y-79025344D01*
X144937275Y-78975680D01*
X145141961Y-78771350D01*
X145252874Y-78504244D01*
X145253126Y-78215025D01*
X145142680Y-77947725D01*
X144938350Y-77743039D01*
X144671244Y-77632126D01*
X144382025Y-77631874D01*
X144114725Y-77742320D01*
X143910039Y-77946650D01*
X143859701Y-78067876D01*
X142848578Y-79079000D01*
X130567353Y-79079000D01*
X130447244Y-79029126D01*
X130158025Y-79028874D01*
X129890725Y-79139320D01*
X129686039Y-79343650D01*
X129575126Y-79610756D01*
X129574874Y-79899975D01*
X126530000Y-79899975D01*
X126530000Y-78740000D01*
X130175000Y-78740000D01*
X130405795Y-78696573D01*
X130617767Y-78560173D01*
X130759971Y-78352051D01*
X130801495Y-78147000D01*
X141270000Y-78147000D01*
X141529077Y-78095466D01*
X141748711Y-77948711D01*
X146207058Y-73490365D01*
X147685000Y-73490365D01*
X147843237Y-73460591D01*
X147988567Y-73367073D01*
X148086064Y-73224381D01*
X148120365Y-73055000D01*
X148120365Y-72954809D01*
X148215959Y-73097875D01*
X148648000Y-73386556D01*
X148648000Y-76199995D01*
X148647999Y-76200000D01*
X148691922Y-76420808D01*
X148816999Y-76608001D01*
X151950000Y-79741001D01*
X151950000Y-101726995D01*
X151949999Y-101727000D01*
X151993922Y-101947808D01*
X152118999Y-102135001D01*
X156803586Y-106819587D01*
X156578073Y-106792663D01*
X155962053Y-106965720D01*
X155849693Y-107034268D01*
X155754879Y-107297864D01*
X156917205Y-108460190D01*
X156931348Y-108446048D01*
X157110953Y-108625653D01*
X157096810Y-108639795D01*
X157110953Y-108653938D01*
X156931348Y-108833543D01*
X156917205Y-108819400D01*
X156903063Y-108833543D01*
X156723458Y-108653938D01*
X156737600Y-108639795D01*
X155575274Y-107477469D01*
X155311678Y-107572283D01*
X155243130Y-107684643D01*
X155070073Y-108300663D01*
X155132312Y-108821965D01*
X154885098Y-108772791D01*
X154339009Y-108881414D01*
X153876057Y-109190749D01*
X153566722Y-109653701D01*
X153458099Y-110199790D01*
X153549735Y-110660479D01*
X153089046Y-110568843D01*
X152542957Y-110677466D01*
X152080005Y-110986801D01*
X151770670Y-111449753D01*
X151662047Y-111995842D01*
X151753683Y-112456530D01*
X151292995Y-112364894D01*
X150746906Y-112473517D01*
X150283954Y-112782852D01*
X149974619Y-113245804D01*
X149865996Y-113791893D01*
X149899563Y-113960649D01*
X149828718Y-113889804D01*
X149695774Y-113798968D01*
X149526882Y-113762331D01*
X149357043Y-113794288D01*
X149213018Y-113889804D01*
X147798804Y-115304018D01*
X147707968Y-115436962D01*
X147671331Y-115605854D01*
X147703288Y-115775693D01*
X147798804Y-115919718D01*
X149637282Y-117758196D01*
X149770226Y-117849032D01*
X149939118Y-117885669D01*
X150108957Y-117853712D01*
X150252982Y-117758196D01*
X151667196Y-116343982D01*
X151758032Y-116211038D01*
X151794669Y-116042146D01*
X151762712Y-115872307D01*
X151667196Y-115728282D01*
X151596351Y-115657437D01*
X151765107Y-115691004D01*
X152311196Y-115582381D01*
X152774148Y-115273046D01*
X153083483Y-114810094D01*
X153192106Y-114264005D01*
X153100470Y-113803317D01*
X153561158Y-113894953D01*
X154107247Y-113786330D01*
X154570199Y-113476995D01*
X154879534Y-113014043D01*
X154988157Y-112467954D01*
X154896521Y-112007265D01*
X155357210Y-112098901D01*
X155903299Y-111990278D01*
X156366251Y-111680943D01*
X156675586Y-111217991D01*
X156784209Y-110671902D01*
X156735036Y-110424688D01*
X157256337Y-110486927D01*
X157872357Y-110313870D01*
X157984717Y-110245322D01*
X158079530Y-109981728D01*
X158091999Y-109994197D01*
X158091999Y-110325839D01*
X157957725Y-110381320D01*
X157753039Y-110585650D01*
X157642126Y-110852756D01*
X157641874Y-111141975D01*
X157752320Y-111409275D01*
X157956650Y-111613961D01*
X158223756Y-111724874D01*
X158512975Y-111725126D01*
X158780275Y-111614680D01*
X158984961Y-111410350D01*
X159095874Y-111143244D01*
X159095931Y-111077669D01*
X159202077Y-110918809D01*
X159206599Y-110896078D01*
X159246000Y-110698001D01*
X159245999Y-110697996D01*
X159245999Y-107868999D01*
X159202077Y-107648191D01*
X159077000Y-107460998D01*
X159076997Y-107460996D01*
X153104000Y-101487998D01*
X153104000Y-79502000D01*
X153060078Y-79281192D01*
X152935001Y-79093999D01*
X152934998Y-79093997D01*
X149802000Y-75960998D01*
X149802000Y-73386556D01*
X150234041Y-73097875D01*
X150495000Y-72707323D01*
X150755959Y-73097875D01*
X151188000Y-73386556D01*
X151188000Y-75564995D01*
X151187999Y-75565000D01*
X151231922Y-75785808D01*
X151356999Y-75973001D01*
X155379000Y-79995002D01*
X155379000Y-103504995D01*
X155378999Y-103505000D01*
X155422922Y-103725808D01*
X155547999Y-103913001D01*
X159316000Y-107681001D01*
X159316000Y-112140995D01*
X159315999Y-112141000D01*
X159359922Y-112361808D01*
X159484999Y-112549001D01*
X159927922Y-112991924D01*
X159927874Y-113046975D01*
X160038320Y-113314275D01*
X160242650Y-113518961D01*
X160509756Y-113629874D01*
X160798975Y-113630126D01*
X161066275Y-113519680D01*
X161270961Y-113315350D01*
X161381874Y-113048244D01*
X161382126Y-112759025D01*
X161271680Y-112491725D01*
X161067350Y-112287039D01*
X160800244Y-112176126D01*
X160744079Y-112176077D01*
X160470000Y-111901998D01*
X160470000Y-107442005D01*
X160470001Y-107442000D01*
X160426078Y-107221192D01*
X160399718Y-107181741D01*
X160301001Y-107033999D01*
X160300998Y-107033997D01*
X156533000Y-103265998D01*
X156533000Y-79756005D01*
X156533001Y-79756000D01*
X156489078Y-79535192D01*
X156364001Y-79347999D01*
X152342000Y-75325998D01*
X152342000Y-73386556D01*
X152774041Y-73097875D01*
X153035000Y-72707323D01*
X153295959Y-73097875D01*
X153728000Y-73386556D01*
X153728000Y-74929995D01*
X153727999Y-74930000D01*
X153771922Y-75150808D01*
X153896999Y-75338001D01*
X158427000Y-79868001D01*
X158427000Y-104901995D01*
X158426999Y-104902000D01*
X158470922Y-105122808D01*
X158595999Y-105310001D01*
X160586000Y-107300002D01*
X160586000Y-111505995D01*
X160585999Y-111506000D01*
X160629922Y-111726808D01*
X160754999Y-111914001D01*
X163400148Y-114559149D01*
X163357126Y-114662756D01*
X163356874Y-114951975D01*
X163467320Y-115219275D01*
X163671650Y-115423961D01*
X163938756Y-115534874D01*
X164227975Y-115535126D01*
X164495275Y-115424680D01*
X164699961Y-115220350D01*
X164810874Y-114953244D01*
X164811126Y-114664025D01*
X164700680Y-114396725D01*
X164643606Y-114339551D01*
X164617078Y-114206192D01*
X164533344Y-114080874D01*
X164492001Y-114018999D01*
X164491998Y-114018997D01*
X161740000Y-111266998D01*
X161740000Y-107061000D01*
X161696078Y-106840192D01*
X161571001Y-106652999D01*
X159581000Y-104662998D01*
X159581000Y-79629005D01*
X159581001Y-79629000D01*
X159537078Y-79408192D01*
X159493953Y-79343650D01*
X159412001Y-79220999D01*
X159411998Y-79220997D01*
X154882000Y-74690998D01*
X154882000Y-73386556D01*
X155314041Y-73097875D01*
X155575000Y-72707323D01*
X155835959Y-73097875D01*
X156298911Y-73407210D01*
X156845000Y-73515834D01*
X157382848Y-73408849D01*
X161055001Y-77081002D01*
X161055001Y-99252993D01*
X160716001Y-99591993D01*
X160590924Y-99779186D01*
X160547001Y-99999994D01*
X160547002Y-99999999D01*
X160547002Y-105104999D01*
X160547001Y-105105004D01*
X160590924Y-105325812D01*
X160716001Y-105513005D01*
X161838644Y-106635647D01*
X161838644Y-110345639D01*
X161838643Y-110345644D01*
X161882566Y-110566452D01*
X162007643Y-110753645D01*
X165158000Y-113904001D01*
X165158000Y-116388757D01*
X165119039Y-116427650D01*
X165008126Y-116694756D01*
X165007874Y-116983975D01*
X165118320Y-117251275D01*
X165322650Y-117455961D01*
X165589756Y-117566874D01*
X165878975Y-117567126D01*
X166146275Y-117456680D01*
X166350961Y-117252350D01*
X166356863Y-117238136D01*
X170613879Y-117238136D01*
X170708693Y-117501732D01*
X170821053Y-117570280D01*
X171437073Y-117743337D01*
X172072428Y-117667481D01*
X172630390Y-117354259D01*
X172842522Y-117142127D01*
X171776205Y-116075810D01*
X170613879Y-117238136D01*
X166356863Y-117238136D01*
X166461874Y-116985244D01*
X166462126Y-116696025D01*
X166351680Y-116428725D01*
X166312000Y-116388976D01*
X166312000Y-113665000D01*
X166268078Y-113444192D01*
X166143001Y-113256999D01*
X166142998Y-113256997D01*
X162992644Y-110106642D01*
X162992644Y-109566822D01*
X164072018Y-110646196D01*
X164204962Y-110737032D01*
X164373854Y-110773669D01*
X164543693Y-110741712D01*
X164687718Y-110646196D01*
X164758563Y-110575351D01*
X164724996Y-110744107D01*
X164833619Y-111290196D01*
X165142954Y-111753148D01*
X165605906Y-112062483D01*
X166151995Y-112171106D01*
X166612683Y-112079470D01*
X166521047Y-112540158D01*
X166629670Y-113086247D01*
X166939005Y-113549199D01*
X167401957Y-113858534D01*
X167948046Y-113967157D01*
X168408735Y-113875521D01*
X168317099Y-114336210D01*
X168425722Y-114882299D01*
X168735057Y-115345251D01*
X169198009Y-115654586D01*
X169744098Y-115763209D01*
X169991312Y-115714035D01*
X169929073Y-116235337D01*
X170102130Y-116851357D01*
X170170678Y-116963717D01*
X170434274Y-117058531D01*
X171596600Y-115896205D01*
X171955810Y-115896205D01*
X173022127Y-116962522D01*
X173234259Y-116750390D01*
X173547481Y-116192428D01*
X173623337Y-115557073D01*
X173450280Y-114941053D01*
X173381732Y-114828693D01*
X173118136Y-114733879D01*
X171955810Y-115896205D01*
X171596600Y-115896205D01*
X171582458Y-115882063D01*
X171762063Y-115702458D01*
X171776205Y-115716600D01*
X172938531Y-114554274D01*
X172843717Y-114290678D01*
X172731357Y-114222130D01*
X172115337Y-114049073D01*
X171594036Y-114111312D01*
X171643209Y-113864098D01*
X171534586Y-113318009D01*
X171225251Y-112855057D01*
X170943334Y-112666686D01*
X171731001Y-111879019D01*
X171856078Y-111691826D01*
X171900001Y-111471018D01*
X171900000Y-111471013D01*
X171900000Y-109347005D01*
X171900001Y-109347000D01*
X171856078Y-109126192D01*
X171731001Y-108938999D01*
X168329002Y-105537000D01*
X174879000Y-105537000D01*
X174879000Y-109728000D01*
X174889006Y-109777410D01*
X174917908Y-109819481D01*
X178308000Y-113084014D01*
X178308000Y-114052021D01*
X178072244Y-113954126D01*
X177783025Y-113953874D01*
X177661711Y-114004000D01*
X176403000Y-114004000D01*
X176143923Y-114055534D01*
X175924289Y-114202289D01*
X175781902Y-114415386D01*
X173057422Y-117139866D01*
X172816725Y-117239320D01*
X172612039Y-117443650D01*
X172501126Y-117710756D01*
X172500874Y-117999975D01*
X172611320Y-118267275D01*
X172815650Y-118471961D01*
X173082756Y-118582874D01*
X173371975Y-118583126D01*
X173639275Y-118472680D01*
X173843961Y-118268350D01*
X173944511Y-118026201D01*
X176612712Y-115358000D01*
X177661647Y-115358000D01*
X177781756Y-115407874D01*
X178070975Y-115408126D01*
X178308000Y-115310189D01*
X178308000Y-118878000D01*
X105205441Y-118878000D01*
X104963065Y-118829789D01*
X104799502Y-118720498D01*
X104690211Y-118556935D01*
X104642000Y-118314559D01*
X104642000Y-116225426D01*
X105668649Y-116225426D01*
X105976591Y-116970703D01*
X106546298Y-117541405D01*
X107291036Y-117850647D01*
X108097426Y-117851351D01*
X108842703Y-117543409D01*
X109413405Y-116973702D01*
X109722647Y-116228964D01*
X109723351Y-115422574D01*
X109415409Y-114677297D01*
X108845702Y-114106595D01*
X108100964Y-113797353D01*
X107294574Y-113796649D01*
X106549297Y-114104591D01*
X105978595Y-114674298D01*
X105669353Y-115419036D01*
X105668649Y-116225426D01*
X104642000Y-116225426D01*
X104642000Y-99187000D01*
X112226000Y-99187000D01*
X112226000Y-113708000D01*
X112277534Y-113967077D01*
X112367505Y-114101728D01*
X112424289Y-114186711D01*
X113463655Y-115226077D01*
X113513320Y-115346275D01*
X113717650Y-115550961D01*
X113984756Y-115661874D01*
X114273975Y-115662126D01*
X114541275Y-115551680D01*
X114745961Y-115347350D01*
X114844370Y-115110357D01*
X115030650Y-115296961D01*
X115297756Y-115407874D01*
X115586975Y-115408126D01*
X115708289Y-115358000D01*
X115797578Y-115358000D01*
X117123288Y-116683711D01*
X117223081Y-116750390D01*
X117292516Y-116796785D01*
X117316650Y-116820961D01*
X117583756Y-116931874D01*
X117872975Y-116932126D01*
X118140275Y-116821680D01*
X118344961Y-116617350D01*
X118455874Y-116350244D01*
X118456126Y-116061025D01*
X118345680Y-115793725D01*
X118141350Y-115589039D01*
X117874244Y-115478126D01*
X117832512Y-115478090D01*
X116556711Y-114202289D01*
X116485573Y-114154756D01*
X116337077Y-114055534D01*
X116078000Y-114004000D01*
X115708353Y-114004000D01*
X115588244Y-113954126D01*
X115299025Y-113953874D01*
X115031725Y-114064320D01*
X114827039Y-114268650D01*
X114728630Y-114505643D01*
X114542350Y-114319039D01*
X114421123Y-114268701D01*
X113580000Y-113427578D01*
X113580000Y-100219975D01*
X114334874Y-100219975D01*
X114445320Y-100487275D01*
X114485000Y-100527024D01*
X114485000Y-108033731D01*
X114484999Y-108033736D01*
X114528922Y-108254544D01*
X114653999Y-108441737D01*
X116930842Y-110718579D01*
X116875126Y-110852756D01*
X116874874Y-111141975D01*
X116985320Y-111409275D01*
X117189650Y-111613961D01*
X117456756Y-111724874D01*
X117745975Y-111725126D01*
X118013275Y-111614680D01*
X118217961Y-111410350D01*
X118328874Y-111143244D01*
X118329126Y-110854025D01*
X118218680Y-110586725D01*
X118172352Y-110540317D01*
X118146644Y-110411071D01*
X118135078Y-110352927D01*
X118069191Y-110254320D01*
X118010001Y-110165735D01*
X118009998Y-110165733D01*
X115639000Y-107794734D01*
X115639000Y-100527243D01*
X115677961Y-100488350D01*
X115788874Y-100221244D01*
X115788985Y-100092975D01*
X116747874Y-100092975D01*
X116858320Y-100360275D01*
X117062650Y-100564961D01*
X117329756Y-100675874D01*
X117618975Y-100676126D01*
X117886275Y-100565680D01*
X118090961Y-100361350D01*
X118201874Y-100094244D01*
X118201923Y-100038079D01*
X118690997Y-99549004D01*
X118691000Y-99549002D01*
X118793874Y-99395039D01*
X118816077Y-99361810D01*
X118859999Y-99141001D01*
X118859999Y-68499004D01*
X118860000Y-68498999D01*
X118816077Y-68278191D01*
X118710070Y-68119539D01*
X118710126Y-68055025D01*
X118599680Y-67787725D01*
X118395350Y-67583039D01*
X118128244Y-67472126D01*
X117839025Y-67471874D01*
X117571725Y-67582320D01*
X117367039Y-67786650D01*
X117256126Y-68053756D01*
X117255874Y-68342975D01*
X117366320Y-68610275D01*
X117570650Y-68814961D01*
X117705999Y-68871163D01*
X117705999Y-98902000D01*
X117386076Y-99221922D01*
X117331025Y-99221874D01*
X117063725Y-99332320D01*
X116859039Y-99536650D01*
X116748126Y-99803756D01*
X116747874Y-100092975D01*
X115788985Y-100092975D01*
X115789126Y-99932025D01*
X115678680Y-99664725D01*
X115474350Y-99460039D01*
X115207244Y-99349126D01*
X114918025Y-99348874D01*
X114650725Y-99459320D01*
X114446039Y-99663650D01*
X114335126Y-99930756D01*
X114334874Y-100219975D01*
X113580000Y-100219975D01*
X113580000Y-99538196D01*
X113645961Y-99472350D01*
X113756874Y-99205244D01*
X113757126Y-98916025D01*
X113646680Y-98648725D01*
X113442350Y-98444039D01*
X113175244Y-98333126D01*
X112886025Y-98332874D01*
X112618725Y-98443320D01*
X112414039Y-98647650D01*
X112330696Y-98848361D01*
X112277534Y-98927923D01*
X112226000Y-99187000D01*
X104642000Y-99187000D01*
X104642000Y-80009434D01*
X105424876Y-80009434D01*
X105455856Y-80137355D01*
X105769078Y-80695317D01*
X106181704Y-81019923D01*
X105972125Y-81159959D01*
X105662790Y-81622911D01*
X105554166Y-82169000D01*
X105662790Y-82715089D01*
X105972125Y-83178041D01*
X106362677Y-83439000D01*
X105972125Y-83699959D01*
X105662790Y-84162911D01*
X105554166Y-84709000D01*
X105662790Y-85255089D01*
X105972125Y-85718041D01*
X106362677Y-85979000D01*
X105972125Y-86239959D01*
X105662790Y-86702911D01*
X105554166Y-87249000D01*
X105662790Y-87795089D01*
X105972125Y-88258041D01*
X106362677Y-88519000D01*
X105972125Y-88779959D01*
X105662790Y-89242911D01*
X105554166Y-89789000D01*
X105662790Y-90335089D01*
X105972125Y-90798041D01*
X106115191Y-90893635D01*
X106015000Y-90893635D01*
X105856763Y-90923409D01*
X105711433Y-91016927D01*
X105613936Y-91159619D01*
X105579635Y-91329000D01*
X105579635Y-93329000D01*
X105609409Y-93487237D01*
X105702927Y-93632567D01*
X105845619Y-93730064D01*
X106015000Y-93764365D01*
X108615000Y-93764365D01*
X108773237Y-93734591D01*
X108918567Y-93641073D01*
X109016064Y-93498381D01*
X109050365Y-93329000D01*
X109050365Y-91329000D01*
X109020591Y-91170763D01*
X108927073Y-91025433D01*
X108784381Y-90927936D01*
X108615000Y-90893635D01*
X108514809Y-90893635D01*
X108657875Y-90798041D01*
X108967210Y-90335089D01*
X109075834Y-89789000D01*
X108967210Y-89242911D01*
X108657875Y-88779959D01*
X108267323Y-88519000D01*
X108657875Y-88258041D01*
X108967210Y-87795089D01*
X109047195Y-87392973D01*
X111667874Y-87392973D01*
X111718002Y-87514292D01*
X111718002Y-91809647D01*
X111668128Y-91929756D01*
X111667876Y-92218975D01*
X111778322Y-92486275D01*
X111982652Y-92690961D01*
X112249758Y-92801874D01*
X112538977Y-92802126D01*
X112806277Y-92691680D01*
X113010963Y-92487350D01*
X113121876Y-92220244D01*
X113122128Y-91931025D01*
X113072002Y-91809711D01*
X113072002Y-89678975D01*
X113445874Y-89678975D01*
X113496000Y-89800289D01*
X113496000Y-91059000D01*
X113547534Y-91318077D01*
X113641242Y-91458320D01*
X113694289Y-91537711D01*
X114268656Y-92112078D01*
X114318320Y-92232275D01*
X114522650Y-92436961D01*
X114789756Y-92547874D01*
X115078975Y-92548126D01*
X115346275Y-92437680D01*
X115550961Y-92233350D01*
X115661874Y-91966244D01*
X115662126Y-91677025D01*
X115551680Y-91409725D01*
X115347350Y-91205039D01*
X115226123Y-91154701D01*
X114850000Y-90778578D01*
X114850000Y-89800353D01*
X114899874Y-89680244D01*
X114900126Y-89391025D01*
X114789680Y-89123725D01*
X114585350Y-88919039D01*
X114318244Y-88808126D01*
X114029025Y-88807874D01*
X113761725Y-88918320D01*
X113557039Y-89122650D01*
X113446126Y-89389756D01*
X113445874Y-89678975D01*
X113072002Y-89678975D01*
X113072002Y-87514346D01*
X113121874Y-87394242D01*
X113122126Y-87105023D01*
X113011680Y-86837723D01*
X112807350Y-86633037D01*
X112540244Y-86522124D01*
X112251025Y-86521872D01*
X111983725Y-86632318D01*
X111779039Y-86836648D01*
X111668126Y-87103754D01*
X111667874Y-87392973D01*
X109047195Y-87392973D01*
X109075834Y-87249000D01*
X108967210Y-86702911D01*
X108657875Y-86239959D01*
X108267323Y-85979000D01*
X108657875Y-85718041D01*
X108924000Y-85319757D01*
X108924000Y-85840647D01*
X108874126Y-85960756D01*
X108873874Y-86249975D01*
X108984320Y-86517275D01*
X109188650Y-86721961D01*
X109455756Y-86832874D01*
X109744975Y-86833126D01*
X110012275Y-86722680D01*
X110216961Y-86518350D01*
X110327874Y-86251244D01*
X110328126Y-85962025D01*
X110278000Y-85840711D01*
X110278000Y-82434353D01*
X110327874Y-82314244D01*
X110328126Y-82025025D01*
X110217680Y-81757725D01*
X110013350Y-81553039D01*
X109746244Y-81442126D01*
X109457025Y-81441874D01*
X109189725Y-81552320D01*
X108992359Y-81749343D01*
X108967210Y-81622911D01*
X108657875Y-81159959D01*
X108448296Y-81019923D01*
X108860922Y-80695317D01*
X109174144Y-80137355D01*
X109205124Y-80009434D01*
X109085777Y-79756000D01*
X107442000Y-79756000D01*
X107442000Y-79776000D01*
X107188000Y-79776000D01*
X107188000Y-79756000D01*
X105544223Y-79756000D01*
X105424876Y-80009434D01*
X104642000Y-80009434D01*
X104642000Y-79518975D01*
X110016874Y-79518975D01*
X110127320Y-79786275D01*
X110331650Y-79990961D01*
X110452877Y-80041299D01*
X110575000Y-80163423D01*
X110575000Y-83185000D01*
X110626534Y-83444077D01*
X110719343Y-83582975D01*
X110773289Y-83663711D01*
X110839655Y-83730077D01*
X110889320Y-83850275D01*
X111093650Y-84054961D01*
X111360756Y-84165874D01*
X111649975Y-84166126D01*
X111917275Y-84055680D01*
X112121961Y-83851350D01*
X112232874Y-83584244D01*
X112233126Y-83295025D01*
X112122680Y-83027725D01*
X111929000Y-82833708D01*
X111929000Y-81042975D01*
X112175868Y-81042975D01*
X112286314Y-81310275D01*
X112490644Y-81514961D01*
X112757750Y-81625874D01*
X113046969Y-81626126D01*
X113314269Y-81515680D01*
X113518955Y-81311350D01*
X113569293Y-81190124D01*
X113681705Y-81077712D01*
X113681707Y-81077709D01*
X113762711Y-80996705D01*
X113818149Y-80913736D01*
X113909466Y-80777071D01*
X113961000Y-80517994D01*
X113961000Y-79259353D01*
X114010874Y-79139244D01*
X114011126Y-78850025D01*
X113900680Y-78582725D01*
X113696350Y-78378039D01*
X113429244Y-78267126D01*
X113140025Y-78266874D01*
X112872725Y-78377320D01*
X112668039Y-78581650D01*
X112557126Y-78848756D01*
X112556874Y-79137975D01*
X112607000Y-79259289D01*
X112607000Y-80234687D01*
X112491719Y-80282320D01*
X112287033Y-80486650D01*
X112176120Y-80753756D01*
X112175868Y-81042975D01*
X111929000Y-81042975D01*
X111929000Y-79883000D01*
X111877466Y-79623923D01*
X111792607Y-79496923D01*
X111730711Y-79404288D01*
X111410344Y-79083922D01*
X111360680Y-78963725D01*
X111156350Y-78759039D01*
X110889244Y-78648126D01*
X110600025Y-78647874D01*
X110332725Y-78758320D01*
X110128039Y-78962650D01*
X110017126Y-79229756D01*
X110016874Y-79518975D01*
X104642000Y-79518975D01*
X104642000Y-79248566D01*
X105424876Y-79248566D01*
X105544223Y-79502000D01*
X107188000Y-79502000D01*
X107188000Y-77994000D01*
X107442000Y-77994000D01*
X107442000Y-79502000D01*
X109085777Y-79502000D01*
X109205124Y-79248566D01*
X109174144Y-79120645D01*
X108860922Y-78562683D01*
X108358020Y-78167058D01*
X107742000Y-77994000D01*
X107442000Y-77994000D01*
X107188000Y-77994000D01*
X106888000Y-77994000D01*
X106271980Y-78167058D01*
X105769078Y-78562683D01*
X105455856Y-79120645D01*
X105424876Y-79248566D01*
X104642000Y-79248566D01*
X104642000Y-77740975D01*
X115350874Y-77740975D01*
X115461320Y-78008275D01*
X115665650Y-78212961D01*
X115786877Y-78263299D01*
X115954996Y-78431419D01*
X115954996Y-97336582D01*
X115899291Y-97392287D01*
X115899288Y-97392289D01*
X115786922Y-97504656D01*
X115666725Y-97554320D01*
X115462039Y-97758650D01*
X115351126Y-98025756D01*
X115350874Y-98314975D01*
X115461320Y-98582275D01*
X115665650Y-98786961D01*
X115932756Y-98897874D01*
X116221975Y-98898126D01*
X116489275Y-98787680D01*
X116693961Y-98583350D01*
X116744299Y-98462124D01*
X116856711Y-98349712D01*
X116856713Y-98349709D01*
X117110707Y-98095715D01*
X117233512Y-97911924D01*
X117257462Y-97876081D01*
X117308996Y-97617004D01*
X117308996Y-78150996D01*
X117280607Y-78008275D01*
X117257463Y-77891920D01*
X117110708Y-77672285D01*
X116744344Y-77305922D01*
X116694680Y-77185725D01*
X116490350Y-76981039D01*
X116223244Y-76870126D01*
X115934025Y-76869874D01*
X115666725Y-76980320D01*
X115462039Y-77184650D01*
X115351126Y-77451756D01*
X115350874Y-77740975D01*
X104642000Y-77740975D01*
X104642000Y-75839426D01*
X105922649Y-75839426D01*
X106230591Y-76584703D01*
X106800298Y-77155405D01*
X107545036Y-77464647D01*
X108351426Y-77465351D01*
X109096703Y-77157409D01*
X109667405Y-76587702D01*
X109976647Y-75842964D01*
X109977351Y-75036574D01*
X109669409Y-74291297D01*
X109099702Y-73720595D01*
X108994654Y-73676975D01*
X112048874Y-73676975D01*
X112099000Y-73798289D01*
X112099000Y-76315647D01*
X112049126Y-76435756D01*
X112048874Y-76724975D01*
X112159320Y-76992275D01*
X112363650Y-77196961D01*
X112630756Y-77307874D01*
X112919975Y-77308126D01*
X113187275Y-77197680D01*
X113391961Y-76993350D01*
X113502874Y-76726244D01*
X113503126Y-76437025D01*
X113453000Y-76315711D01*
X113453000Y-73798353D01*
X113502874Y-73678244D01*
X113503126Y-73389025D01*
X113392680Y-73121725D01*
X113188350Y-72917039D01*
X112921244Y-72806126D01*
X112632025Y-72805874D01*
X112364725Y-72916320D01*
X112160039Y-73120650D01*
X112049126Y-73387756D01*
X112048874Y-73676975D01*
X108994654Y-73676975D01*
X108354964Y-73411353D01*
X107548574Y-73410649D01*
X106803297Y-73718591D01*
X106232595Y-74288298D01*
X105923353Y-75033036D01*
X105922649Y-75839426D01*
X104642000Y-75839426D01*
X104642000Y-70158046D01*
X107520843Y-70158046D01*
X107629466Y-70704135D01*
X107938801Y-71167087D01*
X108410912Y-71639199D01*
X108873864Y-71948534D01*
X109419954Y-72057157D01*
X109966043Y-71948534D01*
X110428995Y-71639199D01*
X110738330Y-71176247D01*
X110846953Y-70630158D01*
X110755317Y-70169470D01*
X111216005Y-70261106D01*
X111762094Y-70152483D01*
X112225046Y-69843148D01*
X112534381Y-69380196D01*
X112618593Y-68956832D01*
X112628434Y-68966673D01*
X112861823Y-69063346D01*
X113114442Y-69063345D01*
X113347831Y-68966672D01*
X113942196Y-68372307D01*
X113942196Y-68147801D01*
X112776000Y-66981605D01*
X112761858Y-66995748D01*
X112582253Y-66816143D01*
X112596395Y-66802000D01*
X112955605Y-66802000D01*
X114121801Y-67968196D01*
X114346307Y-67968196D01*
X114940672Y-67373831D01*
X115037345Y-67140442D01*
X115037346Y-66887823D01*
X114940673Y-66654434D01*
X114134175Y-65847936D01*
X113909669Y-65847936D01*
X112955605Y-66802000D01*
X112596395Y-66802000D01*
X111430199Y-65635804D01*
X111205693Y-65635804D01*
X110611328Y-66230169D01*
X110514655Y-66463558D01*
X110514654Y-66716177D01*
X110611327Y-66949566D01*
X110621168Y-66959407D01*
X110197804Y-67043619D01*
X109734852Y-67352954D01*
X109425517Y-67815906D01*
X109316894Y-68361995D01*
X109408530Y-68822683D01*
X108947842Y-68731047D01*
X108401753Y-68839670D01*
X107938801Y-69149005D01*
X107629466Y-69611957D01*
X107520843Y-70158046D01*
X104642000Y-70158046D01*
X104642000Y-65231693D01*
X111609804Y-65231693D01*
X111609804Y-65456199D01*
X112776000Y-66622395D01*
X113730064Y-65668331D01*
X113730064Y-65443825D01*
X112923566Y-64637327D01*
X112690177Y-64540654D01*
X112437558Y-64540655D01*
X112204169Y-64637328D01*
X111609804Y-65231693D01*
X104642000Y-65231693D01*
X104642000Y-64311441D01*
X104690211Y-64069065D01*
X104799502Y-63905502D01*
X104963065Y-63796211D01*
X105205441Y-63748000D01*
X216104559Y-63748000D01*
X216346935Y-63796211D01*
X216346935Y-63796211D01*
G37*
X216346935Y-63796211D02*
X216510498Y-63905502D01*
X216619789Y-64069065D01*
X216668000Y-64311441D01*
X216668000Y-76073000D01*
X210872606Y-76073000D01*
X207900407Y-73100801D01*
X212447804Y-73100801D01*
X212447804Y-73325307D01*
X213042169Y-73919672D01*
X213275558Y-74016345D01*
X213528177Y-74016346D01*
X213761566Y-73919673D01*
X214568064Y-73113175D01*
X214568064Y-72888669D01*
X213614000Y-71934605D01*
X212447804Y-73100801D01*
X207900407Y-73100801D01*
X205829803Y-71030197D01*
X205787789Y-71002334D01*
X205740000Y-70993000D01*
X182372000Y-70993000D01*
X182370876Y-70993005D01*
X168019876Y-71120005D01*
X167970557Y-71130448D01*
X167937165Y-71151602D01*
X163746165Y-74834602D01*
X163715655Y-74874734D01*
X163703000Y-74930000D01*
X163703000Y-101048267D01*
X163576006Y-101023005D01*
X163576001Y-101023006D01*
X162425255Y-101023006D01*
X162386362Y-100984045D01*
X162119256Y-100873132D01*
X161830037Y-100872880D01*
X161701002Y-100926196D01*
X161701002Y-100238996D01*
X162040002Y-99899996D01*
X162165079Y-99712803D01*
X162209001Y-99491995D01*
X162209001Y-76842006D01*
X162209002Y-76842001D01*
X162165079Y-76621193D01*
X162134831Y-76575923D01*
X162040002Y-76434000D01*
X162039999Y-76433998D01*
X159056491Y-73450489D01*
X159385000Y-73515834D01*
X159931089Y-73407210D01*
X160394041Y-73097875D01*
X160534077Y-72888296D01*
X160858683Y-73300922D01*
X161416645Y-73614144D01*
X161544566Y-73645124D01*
X161798000Y-73525777D01*
X161798000Y-71882000D01*
X162052000Y-71882000D01*
X162052000Y-73525777D01*
X162305434Y-73645124D01*
X162433355Y-73614144D01*
X162991317Y-73300922D01*
X163386942Y-72798020D01*
X163560000Y-72182000D01*
X163560000Y-71882000D01*
X162052000Y-71882000D01*
X161798000Y-71882000D01*
X161778000Y-71882000D01*
X161778000Y-71628000D01*
X161798000Y-71628000D01*
X161798000Y-69984223D01*
X162052000Y-69984223D01*
X162052000Y-71628000D01*
X163560000Y-71628000D01*
X163560000Y-71328000D01*
X163386942Y-70711980D01*
X162991317Y-70209078D01*
X162433355Y-69895856D01*
X162305434Y-69864876D01*
X162052000Y-69984223D01*
X161798000Y-69984223D01*
X161544566Y-69864876D01*
X161416645Y-69895856D01*
X160858683Y-70209078D01*
X160534077Y-70621704D01*
X160394041Y-70412125D01*
X159931089Y-70102790D01*
X159385000Y-69994166D01*
X158838911Y-70102790D01*
X158375959Y-70412125D01*
X158115000Y-70802677D01*
X157854041Y-70412125D01*
X157391089Y-70102790D01*
X156845000Y-69994166D01*
X156298911Y-70102790D01*
X155835959Y-70412125D01*
X155575000Y-70802677D01*
X155314041Y-70412125D01*
X154851089Y-70102790D01*
X154305000Y-69994166D01*
X153758911Y-70102790D01*
X153295959Y-70412125D01*
X153035000Y-70802677D01*
X152774041Y-70412125D01*
X152311089Y-70102790D01*
X151765000Y-69994166D01*
X151218911Y-70102790D01*
X150755959Y-70412125D01*
X150495000Y-70802677D01*
X150234041Y-70412125D01*
X149771089Y-70102790D01*
X149225000Y-69994166D01*
X148678911Y-70102790D01*
X148215959Y-70412125D01*
X148120365Y-70555191D01*
X148120365Y-70455000D01*
X148090591Y-70296763D01*
X147997073Y-70151433D01*
X147854381Y-70053936D01*
X147685000Y-70019635D01*
X145685000Y-70019635D01*
X145526763Y-70049409D01*
X145381433Y-70142927D01*
X145283936Y-70285619D01*
X145249635Y-70455000D01*
X145249635Y-72532942D01*
X140989578Y-76793000D01*
X130810000Y-76793000D01*
X130810000Y-76200000D01*
X130766573Y-75969205D01*
X130630173Y-75757233D01*
X130422051Y-75615029D01*
X130217000Y-75573505D01*
X130217000Y-65035353D01*
X130266874Y-64915244D01*
X130266875Y-64913975D01*
X166658870Y-64913975D01*
X166708996Y-65035289D01*
X166708996Y-69658943D01*
X166760530Y-69918020D01*
X166871480Y-70084068D01*
X166907285Y-70137654D01*
X167605116Y-70835486D01*
X167664369Y-70875077D01*
X167824751Y-70982241D01*
X168083828Y-71033775D01*
X168242739Y-71033775D01*
X168362848Y-71083649D01*
X168652067Y-71083901D01*
X168919367Y-70973455D01*
X169124053Y-70769125D01*
X169234966Y-70502019D01*
X169235218Y-70212800D01*
X169124772Y-69945500D01*
X168920442Y-69740814D01*
X168653336Y-69629901D01*
X168364117Y-69629649D01*
X168328742Y-69644266D01*
X168062996Y-69378521D01*
X168062996Y-67834975D01*
X168436874Y-67834975D01*
X168547320Y-68102275D01*
X168751650Y-68306961D01*
X169018756Y-68417874D01*
X169307975Y-68418126D01*
X169575275Y-68307680D01*
X169615024Y-68268000D01*
X175824757Y-68268000D01*
X175863650Y-68306961D01*
X176130756Y-68417874D01*
X176419975Y-68418126D01*
X176687275Y-68307680D01*
X176891961Y-68103350D01*
X177002874Y-67836244D01*
X177003126Y-67547025D01*
X176892680Y-67279725D01*
X176688350Y-67075039D01*
X176421244Y-66964126D01*
X176132025Y-66963874D01*
X175864725Y-67074320D01*
X175824976Y-67114000D01*
X169615243Y-67114000D01*
X169576350Y-67075039D01*
X169309244Y-66964126D01*
X169020025Y-66963874D01*
X168752725Y-67074320D01*
X168548039Y-67278650D01*
X168437126Y-67545756D01*
X168436874Y-67834975D01*
X168062996Y-67834975D01*
X168062996Y-65035353D01*
X168112870Y-64915244D01*
X168112871Y-64913975D01*
X179993874Y-64913975D01*
X180044000Y-65035289D01*
X180044000Y-67933647D01*
X179994126Y-68053756D01*
X179993874Y-68342975D01*
X180104320Y-68610275D01*
X180308650Y-68814961D01*
X180575756Y-68925874D01*
X180864975Y-68926126D01*
X181132275Y-68815680D01*
X181336961Y-68611350D01*
X181425156Y-68398954D01*
X208358843Y-68398954D01*
X208467466Y-68945043D01*
X208776801Y-69407995D01*
X209239753Y-69717330D01*
X209785842Y-69825953D01*
X210246530Y-69734317D01*
X210154894Y-70195005D01*
X210263517Y-70741094D01*
X210572852Y-71204046D01*
X211035804Y-71513381D01*
X211459168Y-71597593D01*
X211449327Y-71607434D01*
X211352654Y-71840823D01*
X211352655Y-72093442D01*
X211449328Y-72326831D01*
X212043693Y-72921196D01*
X212268199Y-72921196D01*
X213434395Y-71755000D01*
X213793605Y-71755000D01*
X214747669Y-72709064D01*
X214972175Y-72709064D01*
X215778673Y-71902566D01*
X215875346Y-71669177D01*
X215875345Y-71416558D01*
X215778672Y-71183169D01*
X215184307Y-70588804D01*
X214959801Y-70588804D01*
X213793605Y-71755000D01*
X213434395Y-71755000D01*
X213420253Y-71740858D01*
X213599858Y-71561253D01*
X213614000Y-71575395D01*
X214780196Y-70409199D01*
X214780196Y-70184693D01*
X214185831Y-69590328D01*
X213952442Y-69493655D01*
X213699823Y-69493654D01*
X213466434Y-69590327D01*
X213456593Y-69600168D01*
X213372381Y-69176804D01*
X213063046Y-68713852D01*
X212600094Y-68404517D01*
X212054005Y-68295894D01*
X211593317Y-68387530D01*
X211684953Y-67926842D01*
X211576330Y-67380753D01*
X211266995Y-66917801D01*
X210804043Y-66608466D01*
X210257954Y-66499843D01*
X209711864Y-66608466D01*
X209248912Y-66917801D01*
X208776801Y-67389913D01*
X208467466Y-67852865D01*
X208358843Y-68398954D01*
X181425156Y-68398954D01*
X181447874Y-68344244D01*
X181448126Y-68055025D01*
X181398000Y-67933711D01*
X181398000Y-65035353D01*
X181447874Y-64915244D01*
X181448126Y-64626025D01*
X181337680Y-64358725D01*
X181133350Y-64154039D01*
X180866244Y-64043126D01*
X180577025Y-64042874D01*
X180309725Y-64153320D01*
X180105039Y-64357650D01*
X179994126Y-64624756D01*
X179993874Y-64913975D01*
X168112871Y-64913975D01*
X168113122Y-64626025D01*
X168002676Y-64358725D01*
X167798346Y-64154039D01*
X167531240Y-64043126D01*
X167242021Y-64042874D01*
X166974721Y-64153320D01*
X166770035Y-64357650D01*
X166659122Y-64624756D01*
X166658870Y-64913975D01*
X130266875Y-64913975D01*
X130267126Y-64626025D01*
X130156680Y-64358725D01*
X129952350Y-64154039D01*
X129685244Y-64043126D01*
X129396025Y-64042874D01*
X129128725Y-64153320D01*
X128924039Y-64357650D01*
X128813126Y-64624756D01*
X128812874Y-64913975D01*
X128863000Y-65035289D01*
X128863000Y-75565000D01*
X126365000Y-75565000D01*
X126134205Y-75608427D01*
X125922233Y-75744827D01*
X125780029Y-75952949D01*
X125730000Y-76200000D01*
X125730000Y-76369760D01*
X124947512Y-77152248D01*
X124910000Y-77208389D01*
X124910000Y-66364247D01*
X124948965Y-66325350D01*
X125059878Y-66058244D01*
X125060130Y-65769025D01*
X124949684Y-65501725D01*
X124745354Y-65297039D01*
X124478248Y-65186126D01*
X124189029Y-65185874D01*
X123921729Y-65296320D01*
X123717043Y-65500650D01*
X123606130Y-65767756D01*
X123605878Y-66056975D01*
X123716324Y-66324275D01*
X123756000Y-66364020D01*
X123756000Y-110292757D01*
X123717039Y-110331650D01*
X123634434Y-110530584D01*
X123552680Y-110332725D01*
X123348350Y-110128039D01*
X123227123Y-110077701D01*
X122343000Y-109193578D01*
X122343000Y-71639359D01*
X122392874Y-71519250D01*
X122393126Y-71230031D01*
X122282680Y-70962731D01*
X122078350Y-70758045D01*
X121811244Y-70647132D01*
X121522025Y-70646880D01*
X121254725Y-70757326D01*
X121050039Y-70961656D01*
X120939126Y-71228762D01*
X120938874Y-71517981D01*
X120989000Y-71639295D01*
X120989000Y-109474000D01*
X121040534Y-109733077D01*
X121086668Y-109802121D01*
X121187289Y-109952711D01*
X122269655Y-111035077D01*
X122319320Y-111155275D01*
X122346997Y-111183000D01*
X121651002Y-111183000D01*
X121250078Y-110782076D01*
X121250126Y-110727025D01*
X121139680Y-110459725D01*
X120935350Y-110255039D01*
X120668244Y-110144126D01*
X120379025Y-110143874D01*
X120140643Y-110242371D01*
X120167078Y-110202809D01*
X120211000Y-109982000D01*
X120211000Y-68692002D01*
X120992923Y-67910078D01*
X121047975Y-67910126D01*
X121315275Y-67799680D01*
X121519961Y-67595350D01*
X121630874Y-67328244D01*
X121631126Y-67039025D01*
X121520680Y-66771725D01*
X121316350Y-66567039D01*
X121049244Y-66456126D01*
X120760025Y-66455874D01*
X120492725Y-66566320D01*
X120288039Y-66770650D01*
X120177126Y-67037756D01*
X120177077Y-67093922D01*
X119225999Y-68044999D01*
X119100922Y-68232192D01*
X119056999Y-68453000D01*
X119057000Y-68453005D01*
X119057000Y-109742999D01*
X119037077Y-109762922D01*
X118982025Y-109762874D01*
X118714725Y-109873320D01*
X118510039Y-110077650D01*
X118399126Y-110344756D01*
X118398874Y-110633975D01*
X118509320Y-110901275D01*
X118713650Y-111105961D01*
X118980756Y-111216874D01*
X119269975Y-111217126D01*
X119537275Y-111106680D01*
X119741961Y-110902350D01*
X119796086Y-110772004D01*
X119795874Y-111014975D01*
X119906320Y-111282275D01*
X120110650Y-111486961D01*
X120377756Y-111597874D01*
X120433921Y-111597923D01*
X121003999Y-112168001D01*
X121191192Y-112293078D01*
X121412000Y-112337001D01*
X121412005Y-112337000D01*
X132968995Y-112337000D01*
X132969000Y-112337001D01*
X133189808Y-112293078D01*
X133377001Y-112168001D01*
X135409001Y-110136001D01*
X135534078Y-109948808D01*
X135578001Y-109728000D01*
X135578000Y-109727995D01*
X135578000Y-105299975D01*
X135924874Y-105299975D01*
X136035320Y-105567275D01*
X136075000Y-105607024D01*
X136075000Y-107752757D01*
X136036039Y-107791650D01*
X135925126Y-108058756D01*
X135924874Y-108347975D01*
X136035320Y-108615275D01*
X136239650Y-108819961D01*
X136506756Y-108930874D01*
X136795975Y-108931126D01*
X137063275Y-108820680D01*
X137267961Y-108616350D01*
X137378874Y-108349244D01*
X137379126Y-108060025D01*
X137268680Y-107792725D01*
X137229000Y-107752976D01*
X137229000Y-107204975D01*
X137448870Y-107204975D01*
X137559316Y-107472275D01*
X137598998Y-107512026D01*
X137598998Y-112324757D01*
X137560037Y-112363650D01*
X137449124Y-112630756D01*
X137448872Y-112919975D01*
X137559318Y-113187275D01*
X137763648Y-113391961D01*
X138030754Y-113502874D01*
X138319973Y-113503126D01*
X138587273Y-113392680D01*
X138791959Y-113188350D01*
X138902872Y-112921244D01*
X138903124Y-112632025D01*
X138792678Y-112364725D01*
X138752998Y-112324976D01*
X138752998Y-109109975D01*
X138845874Y-109109975D01*
X138956320Y-109377275D01*
X138996004Y-109417028D01*
X138996004Y-113848757D01*
X138957043Y-113887650D01*
X138846130Y-114154756D01*
X138845878Y-114443975D01*
X138956324Y-114711275D01*
X139160654Y-114915961D01*
X139427760Y-115026874D01*
X139716979Y-115027126D01*
X139984279Y-114916680D01*
X140188965Y-114712350D01*
X140299878Y-114445244D01*
X140300130Y-114156025D01*
X140189684Y-113888725D01*
X140150004Y-113848976D01*
X140150004Y-109417239D01*
X140188961Y-109378350D01*
X140299874Y-109111244D01*
X140300126Y-108822025D01*
X140189680Y-108554725D01*
X139985350Y-108350039D01*
X139718244Y-108239126D01*
X139429025Y-108238874D01*
X139161725Y-108349320D01*
X138957039Y-108553650D01*
X138846126Y-108820756D01*
X138845874Y-109109975D01*
X138752998Y-109109975D01*
X138752998Y-107512241D01*
X138791957Y-107473350D01*
X138902870Y-107206244D01*
X138903122Y-106917025D01*
X138792676Y-106649725D01*
X138588346Y-106445039D01*
X138321240Y-106334126D01*
X138032021Y-106333874D01*
X137764721Y-106444320D01*
X137560035Y-106648650D01*
X137449122Y-106915756D01*
X137448870Y-107204975D01*
X137229000Y-107204975D01*
X137229000Y-105607243D01*
X137267961Y-105568350D01*
X137378874Y-105301244D01*
X137379126Y-105012025D01*
X137268680Y-104744725D01*
X137064350Y-104540039D01*
X136797244Y-104429126D01*
X136508025Y-104428874D01*
X136240725Y-104539320D01*
X136036039Y-104743650D01*
X135925126Y-105010756D01*
X135924874Y-105299975D01*
X135578000Y-105299975D01*
X135578000Y-102092994D01*
X136440406Y-101230588D01*
X136633756Y-101310874D01*
X136922975Y-101311126D01*
X137190275Y-101200680D01*
X137394961Y-100996350D01*
X137505874Y-100729244D01*
X137505985Y-100600975D01*
X137956874Y-100600975D01*
X138067320Y-100868275D01*
X138271650Y-101072961D01*
X138538756Y-101183874D01*
X138594921Y-101183923D01*
X141028000Y-103617001D01*
X141028000Y-111435761D01*
X140989039Y-111474654D01*
X140878126Y-111741760D01*
X140877874Y-112030979D01*
X140988320Y-112298279D01*
X141192650Y-112502965D01*
X141459756Y-112613878D01*
X141748975Y-112614130D01*
X142016275Y-112503684D01*
X142220961Y-112299354D01*
X142331874Y-112032248D01*
X142332126Y-111743029D01*
X142221680Y-111475729D01*
X142182000Y-111435980D01*
X142182000Y-103378000D01*
X142138078Y-103157192D01*
X142013001Y-102969999D01*
X142012998Y-102969997D01*
X139643977Y-100600975D01*
X143290872Y-100600975D01*
X143401318Y-100868275D01*
X143568000Y-101035247D01*
X143568000Y-109911757D01*
X143529039Y-109950650D01*
X143418126Y-110217756D01*
X143417874Y-110506975D01*
X143528320Y-110774275D01*
X143732650Y-110978961D01*
X143999756Y-111089874D01*
X144288975Y-111090126D01*
X144556275Y-110979680D01*
X144760961Y-110775350D01*
X144871874Y-110508244D01*
X144872126Y-110219025D01*
X144761680Y-109951725D01*
X144722000Y-109911976D01*
X144722000Y-100657325D01*
X144744872Y-100602244D01*
X144745072Y-100372603D01*
X146941752Y-100372603D01*
X147158543Y-100897275D01*
X147559614Y-101299047D01*
X148083907Y-101516752D01*
X148651603Y-101517248D01*
X149176275Y-101300457D01*
X149578047Y-100899386D01*
X149795752Y-100375093D01*
X149796248Y-99807397D01*
X149579457Y-99282725D01*
X149178386Y-98880953D01*
X148654093Y-98663248D01*
X148086397Y-98662752D01*
X147561725Y-98879543D01*
X147159953Y-99280614D01*
X146942248Y-99804907D01*
X146941752Y-100372603D01*
X144745072Y-100372603D01*
X144745124Y-100313025D01*
X144634678Y-100045725D01*
X144430348Y-99841039D01*
X144163242Y-99730126D01*
X143874023Y-99729874D01*
X143606723Y-99840320D01*
X143402037Y-100044650D01*
X143291124Y-100311756D01*
X143290872Y-100600975D01*
X139643977Y-100600975D01*
X139411078Y-100368076D01*
X139411126Y-100313025D01*
X139300680Y-100045725D01*
X139096350Y-99841039D01*
X138829244Y-99730126D01*
X138540025Y-99729874D01*
X138272725Y-99840320D01*
X138068039Y-100044650D01*
X137957126Y-100311756D01*
X137956874Y-100600975D01*
X137505985Y-100600975D01*
X137506126Y-100440025D01*
X137395680Y-100172725D01*
X137191350Y-99968039D01*
X136924244Y-99857126D01*
X136635025Y-99856874D01*
X136367725Y-99967320D01*
X136327976Y-100007000D01*
X136270997Y-100007000D01*
X136270992Y-100006999D01*
X136050184Y-100050922D01*
X135862991Y-100175999D01*
X134592999Y-101445991D01*
X134467922Y-101633184D01*
X134423999Y-101853992D01*
X134424000Y-101853997D01*
X134424000Y-109488998D01*
X132729998Y-111183000D01*
X124922265Y-111183000D01*
X124948961Y-111156350D01*
X125059874Y-110889244D01*
X125060111Y-110617000D01*
X126365000Y-110617000D01*
X126595795Y-110573573D01*
X126807767Y-110437173D01*
X126949971Y-110229051D01*
X127000000Y-109982000D01*
X127000000Y-107950000D01*
X126956573Y-107719205D01*
X126820173Y-107507233D01*
X126612051Y-107365029D01*
X126530000Y-107348413D01*
X126530000Y-91821000D01*
X127000000Y-91821000D01*
X127230795Y-91777573D01*
X127442767Y-91641173D01*
X127584971Y-91433051D01*
X127593000Y-91393403D01*
X127593000Y-92952647D01*
X127543126Y-93072756D01*
X127542874Y-93361975D01*
X127653320Y-93629275D01*
X127857650Y-93833961D01*
X128124756Y-93944874D01*
X128413975Y-93945126D01*
X128452518Y-93929200D01*
X141147800Y-93929200D01*
X141147800Y-96062800D01*
X141191227Y-96293595D01*
X141327627Y-96505567D01*
X141535749Y-96647771D01*
X141782800Y-96697800D01*
X144983200Y-96697800D01*
X145174468Y-96668309D01*
X145394976Y-96546189D01*
X146766576Y-95377789D01*
X146939771Y-95141451D01*
X146941963Y-95130624D01*
X146941752Y-95372603D01*
X147158543Y-95897275D01*
X147559614Y-96299047D01*
X148083907Y-96516752D01*
X148651603Y-96517248D01*
X149176275Y-96300457D01*
X149578047Y-95899386D01*
X149795752Y-95375093D01*
X149796248Y-94807397D01*
X149579457Y-94282725D01*
X149178386Y-93880953D01*
X148654093Y-93663248D01*
X148086397Y-93662752D01*
X147561725Y-93879543D01*
X147159953Y-94280614D01*
X146989800Y-94690389D01*
X146989800Y-93929200D01*
X146946373Y-93698405D01*
X146809973Y-93486433D01*
X146773800Y-93461717D01*
X146773800Y-90372603D01*
X146941752Y-90372603D01*
X147158543Y-90897275D01*
X147559614Y-91299047D01*
X148083907Y-91516752D01*
X148651603Y-91517248D01*
X149176275Y-91300457D01*
X149578047Y-90899386D01*
X149795752Y-90375093D01*
X149796248Y-89807397D01*
X149579457Y-89282725D01*
X149178386Y-88880953D01*
X148654093Y-88663248D01*
X148086397Y-88662752D01*
X147561725Y-88879543D01*
X147159953Y-89280614D01*
X146942248Y-89804907D01*
X146941752Y-90372603D01*
X146773800Y-90372603D01*
X146773800Y-86967920D01*
X149301200Y-86967920D01*
X149531995Y-86924493D01*
X149743967Y-86788093D01*
X149886171Y-86579971D01*
X149936200Y-86332920D01*
X149936200Y-83792920D01*
X149892773Y-83562125D01*
X149756373Y-83350153D01*
X149548251Y-83207949D01*
X149301200Y-83157920D01*
X145288000Y-83157920D01*
X145057205Y-83201347D01*
X144845233Y-83337747D01*
X144703029Y-83545869D01*
X144653000Y-83792920D01*
X144653000Y-86332920D01*
X144696427Y-86563715D01*
X144832827Y-86775687D01*
X144919800Y-86835113D01*
X144919800Y-93294200D01*
X141782800Y-93294200D01*
X141552005Y-93337627D01*
X141340033Y-93474027D01*
X141197829Y-93682149D01*
X141147800Y-93929200D01*
X128452518Y-93929200D01*
X128681275Y-93834680D01*
X128885961Y-93630350D01*
X128996874Y-93363244D01*
X128997126Y-93074025D01*
X128947000Y-92952711D01*
X128947000Y-84212353D01*
X128996874Y-84092244D01*
X128997126Y-83803025D01*
X128886680Y-83535725D01*
X128682350Y-83331039D01*
X128415244Y-83220126D01*
X128126025Y-83219874D01*
X127858725Y-83330320D01*
X127654039Y-83534650D01*
X127543126Y-83801756D01*
X127542874Y-84090975D01*
X127593000Y-84212289D01*
X127593000Y-86390789D01*
X127591573Y-86383205D01*
X127455173Y-86171233D01*
X127247051Y-86029029D01*
X127000000Y-85979000D01*
X126530000Y-85979000D01*
X126530000Y-82940532D01*
X134853573Y-82940532D01*
X134952236Y-83207387D01*
X135561961Y-83433908D01*
X136211960Y-83409856D01*
X136700764Y-83207387D01*
X136799427Y-82940532D01*
X135826500Y-81967605D01*
X134853573Y-82940532D01*
X126530000Y-82940532D01*
X126530000Y-81523461D01*
X134180592Y-81523461D01*
X134204644Y-82173460D01*
X134407113Y-82662264D01*
X134673968Y-82760927D01*
X135646895Y-81788000D01*
X136006105Y-81788000D01*
X136979032Y-82760927D01*
X137245887Y-82662264D01*
X137472408Y-82052539D01*
X137448356Y-81402540D01*
X137245887Y-80913736D01*
X136979032Y-80815073D01*
X136006105Y-81788000D01*
X135646895Y-81788000D01*
X134673968Y-80815073D01*
X134407113Y-80913736D01*
X134180592Y-81523461D01*
X126530000Y-81523461D01*
X126530000Y-79899975D01*
X129574874Y-79899975D01*
X129685320Y-80167275D01*
X129889650Y-80371961D01*
X130156756Y-80482874D01*
X130445975Y-80483126D01*
X130567289Y-80433000D01*
X134928431Y-80433000D01*
X134853573Y-80635468D01*
X135826500Y-81608395D01*
X136799427Y-80635468D01*
X136724569Y-80433000D01*
X139589643Y-80433000D01*
X139522933Y-80475927D01*
X139425436Y-80618619D01*
X139391135Y-80788000D01*
X139391135Y-82788000D01*
X139420909Y-82946237D01*
X139514427Y-83091567D01*
X139657119Y-83189064D01*
X139826500Y-83223365D01*
X141826500Y-83223365D01*
X141984737Y-83193591D01*
X142130067Y-83100073D01*
X142227564Y-82957381D01*
X142261865Y-82788000D01*
X142261865Y-80788000D01*
X142232091Y-80629763D01*
X142138573Y-80484433D01*
X142063298Y-80433000D01*
X143129000Y-80433000D01*
X143388077Y-80381466D01*
X143401341Y-80372603D01*
X146941752Y-80372603D01*
X147158543Y-80897275D01*
X147559614Y-81299047D01*
X148083907Y-81516752D01*
X148651603Y-81517248D01*
X149176275Y-81300457D01*
X149578047Y-80899386D01*
X149795752Y-80375093D01*
X149796248Y-79807397D01*
X149579457Y-79282725D01*
X149178386Y-78880953D01*
X148654093Y-78663248D01*
X148086397Y-78662752D01*
X147561725Y-78879543D01*
X147159953Y-79280614D01*
X146942248Y-79804907D01*
X146941752Y-80372603D01*
X143401341Y-80372603D01*
X143607711Y-80234711D01*
X144817079Y-79025344D01*
X144937275Y-78975680D01*
X145141961Y-78771350D01*
X145252874Y-78504244D01*
X145253126Y-78215025D01*
X145142680Y-77947725D01*
X144938350Y-77743039D01*
X144671244Y-77632126D01*
X144382025Y-77631874D01*
X144114725Y-77742320D01*
X143910039Y-77946650D01*
X143859701Y-78067876D01*
X142848578Y-79079000D01*
X130567353Y-79079000D01*
X130447244Y-79029126D01*
X130158025Y-79028874D01*
X129890725Y-79139320D01*
X129686039Y-79343650D01*
X129575126Y-79610756D01*
X129574874Y-79899975D01*
X126530000Y-79899975D01*
X126530000Y-78740000D01*
X130175000Y-78740000D01*
X130405795Y-78696573D01*
X130617767Y-78560173D01*
X130759971Y-78352051D01*
X130801495Y-78147000D01*
X141270000Y-78147000D01*
X141529077Y-78095466D01*
X141748711Y-77948711D01*
X146207058Y-73490365D01*
X147685000Y-73490365D01*
X147843237Y-73460591D01*
X147988567Y-73367073D01*
X148086064Y-73224381D01*
X148120365Y-73055000D01*
X148120365Y-72954809D01*
X148215959Y-73097875D01*
X148648000Y-73386556D01*
X148648000Y-76199995D01*
X148647999Y-76200000D01*
X148691922Y-76420808D01*
X148816999Y-76608001D01*
X151950000Y-79741001D01*
X151950000Y-101726995D01*
X151949999Y-101727000D01*
X151993922Y-101947808D01*
X152118999Y-102135001D01*
X156803586Y-106819587D01*
X156578073Y-106792663D01*
X155962053Y-106965720D01*
X155849693Y-107034268D01*
X155754879Y-107297864D01*
X156917205Y-108460190D01*
X156931348Y-108446048D01*
X157110953Y-108625653D01*
X157096810Y-108639795D01*
X157110953Y-108653938D01*
X156931348Y-108833543D01*
X156917205Y-108819400D01*
X156903063Y-108833543D01*
X156723458Y-108653938D01*
X156737600Y-108639795D01*
X155575274Y-107477469D01*
X155311678Y-107572283D01*
X155243130Y-107684643D01*
X155070073Y-108300663D01*
X155132312Y-108821965D01*
X154885098Y-108772791D01*
X154339009Y-108881414D01*
X153876057Y-109190749D01*
X153566722Y-109653701D01*
X153458099Y-110199790D01*
X153549735Y-110660479D01*
X153089046Y-110568843D01*
X152542957Y-110677466D01*
X152080005Y-110986801D01*
X151770670Y-111449753D01*
X151662047Y-111995842D01*
X151753683Y-112456530D01*
X151292995Y-112364894D01*
X150746906Y-112473517D01*
X150283954Y-112782852D01*
X149974619Y-113245804D01*
X149865996Y-113791893D01*
X149899563Y-113960649D01*
X149828718Y-113889804D01*
X149695774Y-113798968D01*
X149526882Y-113762331D01*
X149357043Y-113794288D01*
X149213018Y-113889804D01*
X147798804Y-115304018D01*
X147707968Y-115436962D01*
X147671331Y-115605854D01*
X147703288Y-115775693D01*
X147798804Y-115919718D01*
X149637282Y-117758196D01*
X149770226Y-117849032D01*
X149939118Y-117885669D01*
X150108957Y-117853712D01*
X150252982Y-117758196D01*
X151667196Y-116343982D01*
X151758032Y-116211038D01*
X151794669Y-116042146D01*
X151762712Y-115872307D01*
X151667196Y-115728282D01*
X151596351Y-115657437D01*
X151765107Y-115691004D01*
X152311196Y-115582381D01*
X152774148Y-115273046D01*
X153083483Y-114810094D01*
X153192106Y-114264005D01*
X153100470Y-113803317D01*
X153561158Y-113894953D01*
X154107247Y-113786330D01*
X154570199Y-113476995D01*
X154879534Y-113014043D01*
X154988157Y-112467954D01*
X154896521Y-112007265D01*
X155357210Y-112098901D01*
X155903299Y-111990278D01*
X156366251Y-111680943D01*
X156675586Y-111217991D01*
X156784209Y-110671902D01*
X156735036Y-110424688D01*
X157256337Y-110486927D01*
X157872357Y-110313870D01*
X157984717Y-110245322D01*
X158079530Y-109981728D01*
X158091999Y-109994197D01*
X158091999Y-110325839D01*
X157957725Y-110381320D01*
X157753039Y-110585650D01*
X157642126Y-110852756D01*
X157641874Y-111141975D01*
X157752320Y-111409275D01*
X157956650Y-111613961D01*
X158223756Y-111724874D01*
X158512975Y-111725126D01*
X158780275Y-111614680D01*
X158984961Y-111410350D01*
X159095874Y-111143244D01*
X159095931Y-111077669D01*
X159202077Y-110918809D01*
X159206599Y-110896078D01*
X159246000Y-110698001D01*
X159245999Y-110697996D01*
X159245999Y-107868999D01*
X159202077Y-107648191D01*
X159077000Y-107460998D01*
X159076997Y-107460996D01*
X153104000Y-101487998D01*
X153104000Y-79502000D01*
X153060078Y-79281192D01*
X152935001Y-79093999D01*
X152934998Y-79093997D01*
X149802000Y-75960998D01*
X149802000Y-73386556D01*
X150234041Y-73097875D01*
X150495000Y-72707323D01*
X150755959Y-73097875D01*
X151188000Y-73386556D01*
X151188000Y-75564995D01*
X151187999Y-75565000D01*
X151231922Y-75785808D01*
X151356999Y-75973001D01*
X155379000Y-79995002D01*
X155379000Y-103504995D01*
X155378999Y-103505000D01*
X155422922Y-103725808D01*
X155547999Y-103913001D01*
X159316000Y-107681001D01*
X159316000Y-112140995D01*
X159315999Y-112141000D01*
X159359922Y-112361808D01*
X159484999Y-112549001D01*
X159927922Y-112991924D01*
X159927874Y-113046975D01*
X160038320Y-113314275D01*
X160242650Y-113518961D01*
X160509756Y-113629874D01*
X160798975Y-113630126D01*
X161066275Y-113519680D01*
X161270961Y-113315350D01*
X161381874Y-113048244D01*
X161382126Y-112759025D01*
X161271680Y-112491725D01*
X161067350Y-112287039D01*
X160800244Y-112176126D01*
X160744079Y-112176077D01*
X160470000Y-111901998D01*
X160470000Y-107442005D01*
X160470001Y-107442000D01*
X160426078Y-107221192D01*
X160399718Y-107181741D01*
X160301001Y-107033999D01*
X160300998Y-107033997D01*
X156533000Y-103265998D01*
X156533000Y-79756005D01*
X156533001Y-79756000D01*
X156489078Y-79535192D01*
X156364001Y-79347999D01*
X152342000Y-75325998D01*
X152342000Y-73386556D01*
X152774041Y-73097875D01*
X153035000Y-72707323D01*
X153295959Y-73097875D01*
X153728000Y-73386556D01*
X153728000Y-74929995D01*
X153727999Y-74930000D01*
X153771922Y-75150808D01*
X153896999Y-75338001D01*
X158427000Y-79868001D01*
X158427000Y-104901995D01*
X158426999Y-104902000D01*
X158470922Y-105122808D01*
X158595999Y-105310001D01*
X160586000Y-107300002D01*
X160586000Y-111505995D01*
X160585999Y-111506000D01*
X160629922Y-111726808D01*
X160754999Y-111914001D01*
X163400148Y-114559149D01*
X163357126Y-114662756D01*
X163356874Y-114951975D01*
X163467320Y-115219275D01*
X163671650Y-115423961D01*
X163938756Y-115534874D01*
X164227975Y-115535126D01*
X164495275Y-115424680D01*
X164699961Y-115220350D01*
X164810874Y-114953244D01*
X164811126Y-114664025D01*
X164700680Y-114396725D01*
X164643606Y-114339551D01*
X164617078Y-114206192D01*
X164533344Y-114080874D01*
X164492001Y-114018999D01*
X164491998Y-114018997D01*
X161740000Y-111266998D01*
X161740000Y-107061000D01*
X161696078Y-106840192D01*
X161571001Y-106652999D01*
X159581000Y-104662998D01*
X159581000Y-79629005D01*
X159581001Y-79629000D01*
X159537078Y-79408192D01*
X159493953Y-79343650D01*
X159412001Y-79220999D01*
X159411998Y-79220997D01*
X154882000Y-74690998D01*
X154882000Y-73386556D01*
X155314041Y-73097875D01*
X155575000Y-72707323D01*
X155835959Y-73097875D01*
X156298911Y-73407210D01*
X156845000Y-73515834D01*
X157382848Y-73408849D01*
X161055001Y-77081002D01*
X161055001Y-99252993D01*
X160716001Y-99591993D01*
X160590924Y-99779186D01*
X160547001Y-99999994D01*
X160547002Y-99999999D01*
X160547002Y-105104999D01*
X160547001Y-105105004D01*
X160590924Y-105325812D01*
X160716001Y-105513005D01*
X161838644Y-106635647D01*
X161838644Y-110345639D01*
X161838643Y-110345644D01*
X161882566Y-110566452D01*
X162007643Y-110753645D01*
X165158000Y-113904001D01*
X165158000Y-116388757D01*
X165119039Y-116427650D01*
X165008126Y-116694756D01*
X165007874Y-116983975D01*
X165118320Y-117251275D01*
X165322650Y-117455961D01*
X165589756Y-117566874D01*
X165878975Y-117567126D01*
X166146275Y-117456680D01*
X166350961Y-117252350D01*
X166356863Y-117238136D01*
X170613879Y-117238136D01*
X170708693Y-117501732D01*
X170821053Y-117570280D01*
X171437073Y-117743337D01*
X172072428Y-117667481D01*
X172630390Y-117354259D01*
X172842522Y-117142127D01*
X171776205Y-116075810D01*
X170613879Y-117238136D01*
X166356863Y-117238136D01*
X166461874Y-116985244D01*
X166462126Y-116696025D01*
X166351680Y-116428725D01*
X166312000Y-116388976D01*
X166312000Y-113665000D01*
X166268078Y-113444192D01*
X166143001Y-113256999D01*
X166142998Y-113256997D01*
X162992644Y-110106642D01*
X162992644Y-109566822D01*
X164072018Y-110646196D01*
X164204962Y-110737032D01*
X164373854Y-110773669D01*
X164543693Y-110741712D01*
X164687718Y-110646196D01*
X164758563Y-110575351D01*
X164724996Y-110744107D01*
X164833619Y-111290196D01*
X165142954Y-111753148D01*
X165605906Y-112062483D01*
X166151995Y-112171106D01*
X166612683Y-112079470D01*
X166521047Y-112540158D01*
X166629670Y-113086247D01*
X166939005Y-113549199D01*
X167401957Y-113858534D01*
X167948046Y-113967157D01*
X168408735Y-113875521D01*
X168317099Y-114336210D01*
X168425722Y-114882299D01*
X168735057Y-115345251D01*
X169198009Y-115654586D01*
X169744098Y-115763209D01*
X169991312Y-115714035D01*
X169929073Y-116235337D01*
X170102130Y-116851357D01*
X170170678Y-116963717D01*
X170434274Y-117058531D01*
X171596600Y-115896205D01*
X171955810Y-115896205D01*
X173022127Y-116962522D01*
X173234259Y-116750390D01*
X173547481Y-116192428D01*
X173623337Y-115557073D01*
X173450280Y-114941053D01*
X173381732Y-114828693D01*
X173118136Y-114733879D01*
X171955810Y-115896205D01*
X171596600Y-115896205D01*
X171582458Y-115882063D01*
X171762063Y-115702458D01*
X171776205Y-115716600D01*
X172938531Y-114554274D01*
X172843717Y-114290678D01*
X172731357Y-114222130D01*
X172115337Y-114049073D01*
X171594036Y-114111312D01*
X171643209Y-113864098D01*
X171534586Y-113318009D01*
X171225251Y-112855057D01*
X170943334Y-112666686D01*
X171731001Y-111879019D01*
X171856078Y-111691826D01*
X171900001Y-111471018D01*
X171900000Y-111471013D01*
X171900000Y-109347005D01*
X171900001Y-109347000D01*
X171856078Y-109126192D01*
X171731001Y-108938999D01*
X168329002Y-105537000D01*
X174879000Y-105537000D01*
X174879000Y-109728000D01*
X174889006Y-109777410D01*
X174917908Y-109819481D01*
X178308000Y-113084014D01*
X178308000Y-114052021D01*
X178072244Y-113954126D01*
X177783025Y-113953874D01*
X177661711Y-114004000D01*
X176403000Y-114004000D01*
X176143923Y-114055534D01*
X175924289Y-114202289D01*
X175781902Y-114415386D01*
X173057422Y-117139866D01*
X172816725Y-117239320D01*
X172612039Y-117443650D01*
X172501126Y-117710756D01*
X172500874Y-117999975D01*
X172611320Y-118267275D01*
X172815650Y-118471961D01*
X173082756Y-118582874D01*
X173371975Y-118583126D01*
X173639275Y-118472680D01*
X173843961Y-118268350D01*
X173944511Y-118026201D01*
X176612712Y-115358000D01*
X177661647Y-115358000D01*
X177781756Y-115407874D01*
X178070975Y-115408126D01*
X178308000Y-115310189D01*
X178308000Y-118878000D01*
X105205441Y-118878000D01*
X104963065Y-118829789D01*
X104799502Y-118720498D01*
X104690211Y-118556935D01*
X104642000Y-118314559D01*
X104642000Y-116225426D01*
X105668649Y-116225426D01*
X105976591Y-116970703D01*
X106546298Y-117541405D01*
X107291036Y-117850647D01*
X108097426Y-117851351D01*
X108842703Y-117543409D01*
X109413405Y-116973702D01*
X109722647Y-116228964D01*
X109723351Y-115422574D01*
X109415409Y-114677297D01*
X108845702Y-114106595D01*
X108100964Y-113797353D01*
X107294574Y-113796649D01*
X106549297Y-114104591D01*
X105978595Y-114674298D01*
X105669353Y-115419036D01*
X105668649Y-116225426D01*
X104642000Y-116225426D01*
X104642000Y-99187000D01*
X112226000Y-99187000D01*
X112226000Y-113708000D01*
X112277534Y-113967077D01*
X112367505Y-114101728D01*
X112424289Y-114186711D01*
X113463655Y-115226077D01*
X113513320Y-115346275D01*
X113717650Y-115550961D01*
X113984756Y-115661874D01*
X114273975Y-115662126D01*
X114541275Y-115551680D01*
X114745961Y-115347350D01*
X114844370Y-115110357D01*
X115030650Y-115296961D01*
X115297756Y-115407874D01*
X115586975Y-115408126D01*
X115708289Y-115358000D01*
X115797578Y-115358000D01*
X117123288Y-116683711D01*
X117223081Y-116750390D01*
X117292516Y-116796785D01*
X117316650Y-116820961D01*
X117583756Y-116931874D01*
X117872975Y-116932126D01*
X118140275Y-116821680D01*
X118344961Y-116617350D01*
X118455874Y-116350244D01*
X118456126Y-116061025D01*
X118345680Y-115793725D01*
X118141350Y-115589039D01*
X117874244Y-115478126D01*
X117832512Y-115478090D01*
X116556711Y-114202289D01*
X116485573Y-114154756D01*
X116337077Y-114055534D01*
X116078000Y-114004000D01*
X115708353Y-114004000D01*
X115588244Y-113954126D01*
X115299025Y-113953874D01*
X115031725Y-114064320D01*
X114827039Y-114268650D01*
X114728630Y-114505643D01*
X114542350Y-114319039D01*
X114421123Y-114268701D01*
X113580000Y-113427578D01*
X113580000Y-100219975D01*
X114334874Y-100219975D01*
X114445320Y-100487275D01*
X114485000Y-100527024D01*
X114485000Y-108033731D01*
X114484999Y-108033736D01*
X114528922Y-108254544D01*
X114653999Y-108441737D01*
X116930842Y-110718579D01*
X116875126Y-110852756D01*
X116874874Y-111141975D01*
X116985320Y-111409275D01*
X117189650Y-111613961D01*
X117456756Y-111724874D01*
X117745975Y-111725126D01*
X118013275Y-111614680D01*
X118217961Y-111410350D01*
X118328874Y-111143244D01*
X118329126Y-110854025D01*
X118218680Y-110586725D01*
X118172352Y-110540317D01*
X118146644Y-110411071D01*
X118135078Y-110352927D01*
X118069191Y-110254320D01*
X118010001Y-110165735D01*
X118009998Y-110165733D01*
X115639000Y-107794734D01*
X115639000Y-100527243D01*
X115677961Y-100488350D01*
X115788874Y-100221244D01*
X115788985Y-100092975D01*
X116747874Y-100092975D01*
X116858320Y-100360275D01*
X117062650Y-100564961D01*
X117329756Y-100675874D01*
X117618975Y-100676126D01*
X117886275Y-100565680D01*
X118090961Y-100361350D01*
X118201874Y-100094244D01*
X118201923Y-100038079D01*
X118690997Y-99549004D01*
X118691000Y-99549002D01*
X118793874Y-99395039D01*
X118816077Y-99361810D01*
X118859999Y-99141001D01*
X118859999Y-68499004D01*
X118860000Y-68498999D01*
X118816077Y-68278191D01*
X118710070Y-68119539D01*
X118710126Y-68055025D01*
X118599680Y-67787725D01*
X118395350Y-67583039D01*
X118128244Y-67472126D01*
X117839025Y-67471874D01*
X117571725Y-67582320D01*
X117367039Y-67786650D01*
X117256126Y-68053756D01*
X117255874Y-68342975D01*
X117366320Y-68610275D01*
X117570650Y-68814961D01*
X117705999Y-68871163D01*
X117705999Y-98902000D01*
X117386076Y-99221922D01*
X117331025Y-99221874D01*
X117063725Y-99332320D01*
X116859039Y-99536650D01*
X116748126Y-99803756D01*
X116747874Y-100092975D01*
X115788985Y-100092975D01*
X115789126Y-99932025D01*
X115678680Y-99664725D01*
X115474350Y-99460039D01*
X115207244Y-99349126D01*
X114918025Y-99348874D01*
X114650725Y-99459320D01*
X114446039Y-99663650D01*
X114335126Y-99930756D01*
X114334874Y-100219975D01*
X113580000Y-100219975D01*
X113580000Y-99538196D01*
X113645961Y-99472350D01*
X113756874Y-99205244D01*
X113757126Y-98916025D01*
X113646680Y-98648725D01*
X113442350Y-98444039D01*
X113175244Y-98333126D01*
X112886025Y-98332874D01*
X112618725Y-98443320D01*
X112414039Y-98647650D01*
X112330696Y-98848361D01*
X112277534Y-98927923D01*
X112226000Y-99187000D01*
X104642000Y-99187000D01*
X104642000Y-80009434D01*
X105424876Y-80009434D01*
X105455856Y-80137355D01*
X105769078Y-80695317D01*
X106181704Y-81019923D01*
X105972125Y-81159959D01*
X105662790Y-81622911D01*
X105554166Y-82169000D01*
X105662790Y-82715089D01*
X105972125Y-83178041D01*
X106362677Y-83439000D01*
X105972125Y-83699959D01*
X105662790Y-84162911D01*
X105554166Y-84709000D01*
X105662790Y-85255089D01*
X105972125Y-85718041D01*
X106362677Y-85979000D01*
X105972125Y-86239959D01*
X105662790Y-86702911D01*
X105554166Y-87249000D01*
X105662790Y-87795089D01*
X105972125Y-88258041D01*
X106362677Y-88519000D01*
X105972125Y-88779959D01*
X105662790Y-89242911D01*
X105554166Y-89789000D01*
X105662790Y-90335089D01*
X105972125Y-90798041D01*
X106115191Y-90893635D01*
X106015000Y-90893635D01*
X105856763Y-90923409D01*
X105711433Y-91016927D01*
X105613936Y-91159619D01*
X105579635Y-91329000D01*
X105579635Y-93329000D01*
X105609409Y-93487237D01*
X105702927Y-93632567D01*
X105845619Y-93730064D01*
X106015000Y-93764365D01*
X108615000Y-93764365D01*
X108773237Y-93734591D01*
X108918567Y-93641073D01*
X109016064Y-93498381D01*
X109050365Y-93329000D01*
X109050365Y-91329000D01*
X109020591Y-91170763D01*
X108927073Y-91025433D01*
X108784381Y-90927936D01*
X108615000Y-90893635D01*
X108514809Y-90893635D01*
X108657875Y-90798041D01*
X108967210Y-90335089D01*
X109075834Y-89789000D01*
X108967210Y-89242911D01*
X108657875Y-88779959D01*
X108267323Y-88519000D01*
X108657875Y-88258041D01*
X108967210Y-87795089D01*
X109047195Y-87392973D01*
X111667874Y-87392973D01*
X111718002Y-87514292D01*
X111718002Y-91809647D01*
X111668128Y-91929756D01*
X111667876Y-92218975D01*
X111778322Y-92486275D01*
X111982652Y-92690961D01*
X112249758Y-92801874D01*
X112538977Y-92802126D01*
X112806277Y-92691680D01*
X113010963Y-92487350D01*
X113121876Y-92220244D01*
X113122128Y-91931025D01*
X113072002Y-91809711D01*
X113072002Y-89678975D01*
X113445874Y-89678975D01*
X113496000Y-89800289D01*
X113496000Y-91059000D01*
X113547534Y-91318077D01*
X113641242Y-91458320D01*
X113694289Y-91537711D01*
X114268656Y-92112078D01*
X114318320Y-92232275D01*
X114522650Y-92436961D01*
X114789756Y-92547874D01*
X115078975Y-92548126D01*
X115346275Y-92437680D01*
X115550961Y-92233350D01*
X115661874Y-91966244D01*
X115662126Y-91677025D01*
X115551680Y-91409725D01*
X115347350Y-91205039D01*
X115226123Y-91154701D01*
X114850000Y-90778578D01*
X114850000Y-89800353D01*
X114899874Y-89680244D01*
X114900126Y-89391025D01*
X114789680Y-89123725D01*
X114585350Y-88919039D01*
X114318244Y-88808126D01*
X114029025Y-88807874D01*
X113761725Y-88918320D01*
X113557039Y-89122650D01*
X113446126Y-89389756D01*
X113445874Y-89678975D01*
X113072002Y-89678975D01*
X113072002Y-87514346D01*
X113121874Y-87394242D01*
X113122126Y-87105023D01*
X113011680Y-86837723D01*
X112807350Y-86633037D01*
X112540244Y-86522124D01*
X112251025Y-86521872D01*
X111983725Y-86632318D01*
X111779039Y-86836648D01*
X111668126Y-87103754D01*
X111667874Y-87392973D01*
X109047195Y-87392973D01*
X109075834Y-87249000D01*
X108967210Y-86702911D01*
X108657875Y-86239959D01*
X108267323Y-85979000D01*
X108657875Y-85718041D01*
X108924000Y-85319757D01*
X108924000Y-85840647D01*
X108874126Y-85960756D01*
X108873874Y-86249975D01*
X108984320Y-86517275D01*
X109188650Y-86721961D01*
X109455756Y-86832874D01*
X109744975Y-86833126D01*
X110012275Y-86722680D01*
X110216961Y-86518350D01*
X110327874Y-86251244D01*
X110328126Y-85962025D01*
X110278000Y-85840711D01*
X110278000Y-82434353D01*
X110327874Y-82314244D01*
X110328126Y-82025025D01*
X110217680Y-81757725D01*
X110013350Y-81553039D01*
X109746244Y-81442126D01*
X109457025Y-81441874D01*
X109189725Y-81552320D01*
X108992359Y-81749343D01*
X108967210Y-81622911D01*
X108657875Y-81159959D01*
X108448296Y-81019923D01*
X108860922Y-80695317D01*
X109174144Y-80137355D01*
X109205124Y-80009434D01*
X109085777Y-79756000D01*
X107442000Y-79756000D01*
X107442000Y-79776000D01*
X107188000Y-79776000D01*
X107188000Y-79756000D01*
X105544223Y-79756000D01*
X105424876Y-80009434D01*
X104642000Y-80009434D01*
X104642000Y-79518975D01*
X110016874Y-79518975D01*
X110127320Y-79786275D01*
X110331650Y-79990961D01*
X110452877Y-80041299D01*
X110575000Y-80163423D01*
X110575000Y-83185000D01*
X110626534Y-83444077D01*
X110719343Y-83582975D01*
X110773289Y-83663711D01*
X110839655Y-83730077D01*
X110889320Y-83850275D01*
X111093650Y-84054961D01*
X111360756Y-84165874D01*
X111649975Y-84166126D01*
X111917275Y-84055680D01*
X112121961Y-83851350D01*
X112232874Y-83584244D01*
X112233126Y-83295025D01*
X112122680Y-83027725D01*
X111929000Y-82833708D01*
X111929000Y-81042975D01*
X112175868Y-81042975D01*
X112286314Y-81310275D01*
X112490644Y-81514961D01*
X112757750Y-81625874D01*
X113046969Y-81626126D01*
X113314269Y-81515680D01*
X113518955Y-81311350D01*
X113569293Y-81190124D01*
X113681705Y-81077712D01*
X113681707Y-81077709D01*
X113762711Y-80996705D01*
X113818149Y-80913736D01*
X113909466Y-80777071D01*
X113961000Y-80517994D01*
X113961000Y-79259353D01*
X114010874Y-79139244D01*
X114011126Y-78850025D01*
X113900680Y-78582725D01*
X113696350Y-78378039D01*
X113429244Y-78267126D01*
X113140025Y-78266874D01*
X112872725Y-78377320D01*
X112668039Y-78581650D01*
X112557126Y-78848756D01*
X112556874Y-79137975D01*
X112607000Y-79259289D01*
X112607000Y-80234687D01*
X112491719Y-80282320D01*
X112287033Y-80486650D01*
X112176120Y-80753756D01*
X112175868Y-81042975D01*
X111929000Y-81042975D01*
X111929000Y-79883000D01*
X111877466Y-79623923D01*
X111792607Y-79496923D01*
X111730711Y-79404288D01*
X111410344Y-79083922D01*
X111360680Y-78963725D01*
X111156350Y-78759039D01*
X110889244Y-78648126D01*
X110600025Y-78647874D01*
X110332725Y-78758320D01*
X110128039Y-78962650D01*
X110017126Y-79229756D01*
X110016874Y-79518975D01*
X104642000Y-79518975D01*
X104642000Y-79248566D01*
X105424876Y-79248566D01*
X105544223Y-79502000D01*
X107188000Y-79502000D01*
X107188000Y-77994000D01*
X107442000Y-77994000D01*
X107442000Y-79502000D01*
X109085777Y-79502000D01*
X109205124Y-79248566D01*
X109174144Y-79120645D01*
X108860922Y-78562683D01*
X108358020Y-78167058D01*
X107742000Y-77994000D01*
X107442000Y-77994000D01*
X107188000Y-77994000D01*
X106888000Y-77994000D01*
X106271980Y-78167058D01*
X105769078Y-78562683D01*
X105455856Y-79120645D01*
X105424876Y-79248566D01*
X104642000Y-79248566D01*
X104642000Y-77740975D01*
X115350874Y-77740975D01*
X115461320Y-78008275D01*
X115665650Y-78212961D01*
X115786877Y-78263299D01*
X115954996Y-78431419D01*
X115954996Y-97336582D01*
X115899291Y-97392287D01*
X115899288Y-97392289D01*
X115786922Y-97504656D01*
X115666725Y-97554320D01*
X115462039Y-97758650D01*
X115351126Y-98025756D01*
X115350874Y-98314975D01*
X115461320Y-98582275D01*
X115665650Y-98786961D01*
X115932756Y-98897874D01*
X116221975Y-98898126D01*
X116489275Y-98787680D01*
X116693961Y-98583350D01*
X116744299Y-98462124D01*
X116856711Y-98349712D01*
X116856713Y-98349709D01*
X117110707Y-98095715D01*
X117233512Y-97911924D01*
X117257462Y-97876081D01*
X117308996Y-97617004D01*
X117308996Y-78150996D01*
X117280607Y-78008275D01*
X117257463Y-77891920D01*
X117110708Y-77672285D01*
X116744344Y-77305922D01*
X116694680Y-77185725D01*
X116490350Y-76981039D01*
X116223244Y-76870126D01*
X115934025Y-76869874D01*
X115666725Y-76980320D01*
X115462039Y-77184650D01*
X115351126Y-77451756D01*
X115350874Y-77740975D01*
X104642000Y-77740975D01*
X104642000Y-75839426D01*
X105922649Y-75839426D01*
X106230591Y-76584703D01*
X106800298Y-77155405D01*
X107545036Y-77464647D01*
X108351426Y-77465351D01*
X109096703Y-77157409D01*
X109667405Y-76587702D01*
X109976647Y-75842964D01*
X109977351Y-75036574D01*
X109669409Y-74291297D01*
X109099702Y-73720595D01*
X108994654Y-73676975D01*
X112048874Y-73676975D01*
X112099000Y-73798289D01*
X112099000Y-76315647D01*
X112049126Y-76435756D01*
X112048874Y-76724975D01*
X112159320Y-76992275D01*
X112363650Y-77196961D01*
X112630756Y-77307874D01*
X112919975Y-77308126D01*
X113187275Y-77197680D01*
X113391961Y-76993350D01*
X113502874Y-76726244D01*
X113503126Y-76437025D01*
X113453000Y-76315711D01*
X113453000Y-73798353D01*
X113502874Y-73678244D01*
X113503126Y-73389025D01*
X113392680Y-73121725D01*
X113188350Y-72917039D01*
X112921244Y-72806126D01*
X112632025Y-72805874D01*
X112364725Y-72916320D01*
X112160039Y-73120650D01*
X112049126Y-73387756D01*
X112048874Y-73676975D01*
X108994654Y-73676975D01*
X108354964Y-73411353D01*
X107548574Y-73410649D01*
X106803297Y-73718591D01*
X106232595Y-74288298D01*
X105923353Y-75033036D01*
X105922649Y-75839426D01*
X104642000Y-75839426D01*
X104642000Y-70158046D01*
X107520843Y-70158046D01*
X107629466Y-70704135D01*
X107938801Y-71167087D01*
X108410912Y-71639199D01*
X108873864Y-71948534D01*
X109419954Y-72057157D01*
X109966043Y-71948534D01*
X110428995Y-71639199D01*
X110738330Y-71176247D01*
X110846953Y-70630158D01*
X110755317Y-70169470D01*
X111216005Y-70261106D01*
X111762094Y-70152483D01*
X112225046Y-69843148D01*
X112534381Y-69380196D01*
X112618593Y-68956832D01*
X112628434Y-68966673D01*
X112861823Y-69063346D01*
X113114442Y-69063345D01*
X113347831Y-68966672D01*
X113942196Y-68372307D01*
X113942196Y-68147801D01*
X112776000Y-66981605D01*
X112761858Y-66995748D01*
X112582253Y-66816143D01*
X112596395Y-66802000D01*
X112955605Y-66802000D01*
X114121801Y-67968196D01*
X114346307Y-67968196D01*
X114940672Y-67373831D01*
X115037345Y-67140442D01*
X115037346Y-66887823D01*
X114940673Y-66654434D01*
X114134175Y-65847936D01*
X113909669Y-65847936D01*
X112955605Y-66802000D01*
X112596395Y-66802000D01*
X111430199Y-65635804D01*
X111205693Y-65635804D01*
X110611328Y-66230169D01*
X110514655Y-66463558D01*
X110514654Y-66716177D01*
X110611327Y-66949566D01*
X110621168Y-66959407D01*
X110197804Y-67043619D01*
X109734852Y-67352954D01*
X109425517Y-67815906D01*
X109316894Y-68361995D01*
X109408530Y-68822683D01*
X108947842Y-68731047D01*
X108401753Y-68839670D01*
X107938801Y-69149005D01*
X107629466Y-69611957D01*
X107520843Y-70158046D01*
X104642000Y-70158046D01*
X104642000Y-65231693D01*
X111609804Y-65231693D01*
X111609804Y-65456199D01*
X112776000Y-66622395D01*
X113730064Y-65668331D01*
X113730064Y-65443825D01*
X112923566Y-64637327D01*
X112690177Y-64540654D01*
X112437558Y-64540655D01*
X112204169Y-64637328D01*
X111609804Y-65231693D01*
X104642000Y-65231693D01*
X104642000Y-64311441D01*
X104690211Y-64069065D01*
X104799502Y-63905502D01*
X104963065Y-63796211D01*
X105205441Y-63748000D01*
X216104559Y-63748000D01*
X216346935Y-63796211D01*
G36*
X170746000Y-109586002D02*
X170746000Y-111232016D01*
X169831561Y-112146455D01*
X169847157Y-112068046D01*
X169738534Y-111521957D01*
X169722457Y-111497896D01*
X169824078Y-111345808D01*
X169868000Y-111125000D01*
X169868000Y-108712005D01*
X169868001Y-108712000D01*
X169867008Y-108707010D01*
X170746000Y-109586002D01*
X170746000Y-109586002D01*
G37*
X170746000Y-109586002D02*
X170746000Y-111232016D01*
X169831561Y-112146455D01*
X169847157Y-112068046D01*
X169738534Y-111521957D01*
X169722457Y-111497896D01*
X169824078Y-111345808D01*
X169868000Y-111125000D01*
X169868000Y-108712005D01*
X169868001Y-108712000D01*
X169867008Y-108707010D01*
X170746000Y-109586002D01*
G36*
X168714000Y-108951001D02*
X168714000Y-110699495D01*
X168420158Y-110641047D01*
X167959470Y-110732683D01*
X168051106Y-110271995D01*
X167942483Y-109725906D01*
X167920276Y-109692671D01*
X167955000Y-109518102D01*
X167955000Y-108323000D01*
X167922472Y-108159473D01*
X168714000Y-108951001D01*
X168714000Y-108951001D01*
G37*
X168714000Y-108951001D02*
X168714000Y-110699495D01*
X168420158Y-110641047D01*
X167959470Y-110732683D01*
X168051106Y-110271995D01*
X167942483Y-109725906D01*
X167920276Y-109692671D01*
X167955000Y-109518102D01*
X167955000Y-108323000D01*
X167922472Y-108159473D01*
X168714000Y-108951001D01*
G36*
X164911264Y-106672266D02*
X164810146Y-106650331D01*
X164640307Y-106682288D01*
X164496282Y-106777804D01*
X162992644Y-108281442D01*
X162992644Y-106396651D01*
X162992645Y-106396646D01*
X162948722Y-106175838D01*
X162922687Y-106136874D01*
X162902977Y-106107375D01*
X163098275Y-106026680D01*
X163138024Y-105987000D01*
X164225998Y-105987000D01*
X164911264Y-106672266D01*
X164911264Y-106672266D01*
G37*
X164911264Y-106672266D02*
X164810146Y-106650331D01*
X164640307Y-106682288D01*
X164496282Y-106777804D01*
X162992644Y-108281442D01*
X162992644Y-106396651D01*
X162992645Y-106396646D01*
X162948722Y-106175838D01*
X162922687Y-106136874D01*
X162902977Y-106107375D01*
X163098275Y-106026680D01*
X163138024Y-105987000D01*
X164225998Y-105987000D01*
X164911264Y-106672266D01*
G36*
X162550018Y-102200016D02*
X162593940Y-102420824D01*
X162719017Y-102608017D01*
X162906210Y-102733094D01*
X163078901Y-102767445D01*
X163634000Y-103322543D01*
X163634000Y-103378000D01*
X163645537Y-103436000D01*
X163604265Y-103436000D01*
X163392265Y-103223999D01*
X163205072Y-103098922D01*
X163017927Y-103061695D01*
X162972350Y-103016039D01*
X162705244Y-102905126D01*
X162416025Y-102904874D01*
X162148725Y-103015320D01*
X161944039Y-103219650D01*
X161833126Y-103486756D01*
X161832874Y-103775975D01*
X161943320Y-104043275D01*
X162147650Y-104247961D01*
X162414756Y-104358874D01*
X162703975Y-104359126D01*
X162839423Y-104303160D01*
X162957261Y-104420998D01*
X162957263Y-104421001D01*
X163117405Y-104528003D01*
X163144456Y-104546078D01*
X163365264Y-104590000D01*
X164352998Y-104590000D01*
X164628525Y-104865527D01*
X164465000Y-104832999D01*
X164464995Y-104833000D01*
X163138243Y-104833000D01*
X163099350Y-104794039D01*
X162832244Y-104683126D01*
X162543025Y-104682874D01*
X162275725Y-104793320D01*
X162071039Y-104997650D01*
X162001094Y-105166095D01*
X161701002Y-104866002D01*
X161701002Y-102273826D01*
X161828768Y-102326880D01*
X162117987Y-102327132D01*
X162385287Y-102216686D01*
X162425036Y-102177006D01*
X162554595Y-102177006D01*
X162550018Y-102200016D01*
X162550018Y-102200016D01*
G37*
X162550018Y-102200016D02*
X162593940Y-102420824D01*
X162719017Y-102608017D01*
X162906210Y-102733094D01*
X163078901Y-102767445D01*
X163634000Y-103322543D01*
X163634000Y-103378000D01*
X163645537Y-103436000D01*
X163604265Y-103436000D01*
X163392265Y-103223999D01*
X163205072Y-103098922D01*
X163017927Y-103061695D01*
X162972350Y-103016039D01*
X162705244Y-102905126D01*
X162416025Y-102904874D01*
X162148725Y-103015320D01*
X161944039Y-103219650D01*
X161833126Y-103486756D01*
X161832874Y-103775975D01*
X161943320Y-104043275D01*
X162147650Y-104247961D01*
X162414756Y-104358874D01*
X162703975Y-104359126D01*
X162839423Y-104303160D01*
X162957261Y-104420998D01*
X162957263Y-104421001D01*
X163117405Y-104528003D01*
X163144456Y-104546078D01*
X163365264Y-104590000D01*
X164352998Y-104590000D01*
X164628525Y-104865527D01*
X164465000Y-104832999D01*
X164464995Y-104833000D01*
X163138243Y-104833000D01*
X163099350Y-104794039D01*
X162832244Y-104683126D01*
X162543025Y-104682874D01*
X162275725Y-104793320D01*
X162071039Y-104997650D01*
X162001094Y-105166095D01*
X161701002Y-104866002D01*
X161701002Y-102273826D01*
X161828768Y-102326880D01*
X162117987Y-102327132D01*
X162385287Y-102216686D01*
X162425036Y-102177006D01*
X162554595Y-102177006D01*
X162550018Y-102200016D01*
G36*
X130048000Y-77978000D02*
X126492000Y-77978000D01*
X126492000Y-76327000D01*
X130048000Y-76327000D01*
X130048000Y-77978000D01*
X130048000Y-77978000D01*
G37*
X130048000Y-77978000D02*
X126492000Y-77978000D01*
X126492000Y-76327000D01*
X130048000Y-76327000D01*
X130048000Y-77978000D01*
G36*
X126238000Y-109855000D02*
X125118000Y-109855000D01*
X125118000Y-108077000D01*
X126238000Y-108077000D01*
X126238000Y-109855000D01*
X126238000Y-109855000D01*
G37*
X126238000Y-109855000D02*
X125118000Y-109855000D01*
X125118000Y-108077000D01*
X126238000Y-108077000D01*
X126238000Y-109855000D01*
G36*
X126873000Y-91059000D02*
X125222000Y-91059000D01*
X125222000Y-86741000D01*
X126873000Y-86741000D01*
X126873000Y-91059000D01*
X126873000Y-91059000D01*
G37*
X126873000Y-91059000D02*
X125222000Y-91059000D01*
X125222000Y-86741000D01*
X126873000Y-86741000D01*
X126873000Y-91059000D01*
G36*
X149174200Y-86205920D02*
X145415000Y-86205920D01*
X145415000Y-83919920D01*
X149174200Y-83919920D01*
X149174200Y-86205920D01*
X149174200Y-86205920D01*
G37*
X149174200Y-86205920D02*
X145415000Y-86205920D01*
X145415000Y-83919920D01*
X149174200Y-83919920D01*
X149174200Y-86205920D01*
G36*
X146227800Y-94835753D02*
X144936440Y-95935800D01*
X141909800Y-95935800D01*
X141909800Y-94056200D01*
X146227800Y-94056200D01*
X146227800Y-94835753D01*
X146227800Y-94835753D01*
G37*
X146227800Y-94835753D02*
X144936440Y-95935800D01*
X141909800Y-95935800D01*
X141909800Y-94056200D01*
X146227800Y-94056200D01*
X146227800Y-94835753D01*
M02*
