%TF.GenerationSoftware,KiCad,Pcbnew,4.0.7*%
%TF.CreationDate,2017-11-04T19:59:08+02:00*%
%TF.ProjectId,BleTouchDimmer,426C65546F75636844696D6D65722E6B,rev?*%
%TF.FileFunction,Soldermask,Bot*%
%FSLAX46Y46*%
G04 Gerber Fmt 4.6, Leading zero omitted, Abs format (unit mm)*
G04 Created by KiCad (PCBNEW 4.0.7) date 11/04/17 19:59:08*
%MOMM*%
%LPD*%
G01*
G04 APERTURE LIST*
%ADD10C,0.100000*%
%ADD11C,3.600000*%
%ADD12C,2.900000*%
%ADD13R,2.900000X2.900000*%
%ADD14R,2.400000X2.400000*%
%ADD15C,2.400000*%
%ADD16C,2.400000*%
%ADD17O,2.400000X3.000000*%
%ADD18R,2.400000X3.000000*%
%ADD19O,3.000000X2.400000*%
%ADD20R,3.000000X2.400000*%
%ADD21C,2.000000*%
G04 APERTURE END LIST*
D10*
D11*
X213487000Y-78867000D03*
X107696000Y-115824000D03*
X107950000Y-75438000D03*
D12*
X207010000Y-89060000D03*
X207010000Y-94060000D03*
D13*
X207010000Y-104060000D03*
D12*
X207010000Y-99060000D03*
D14*
X168369000Y-100090000D03*
D15*
X168369000Y-95090000D03*
X168369000Y-85090000D03*
X168369000Y-80090000D03*
X148369000Y-80090000D03*
X148369000Y-85090000D03*
X148369000Y-90090000D03*
X148369000Y-95090000D03*
X148369000Y-100090000D03*
D16*
X109396030Y-70606234D02*
X108971766Y-70181970D01*
X111192081Y-68810183D02*
X110767817Y-68385919D01*
D10*
G36*
X112563868Y-64892812D02*
X114685188Y-67014132D01*
X112988132Y-68711188D01*
X110866812Y-66589868D01*
X112563868Y-64892812D01*
X112563868Y-64892812D01*
G37*
G36*
X215523188Y-71542868D02*
X213401868Y-73664188D01*
X211704812Y-71967132D01*
X213826132Y-69845812D01*
X215523188Y-71542868D01*
X215523188Y-71542868D01*
G37*
D16*
X211605817Y-70171081D02*
X212030081Y-69746817D01*
X209809766Y-68375030D02*
X210234030Y-67950766D01*
D17*
X161925000Y-71755000D03*
X159385000Y-71755000D03*
X156845000Y-71755000D03*
X154305000Y-71755000D03*
X151765000Y-71755000D03*
X149225000Y-71755000D03*
D18*
X146685000Y-71755000D03*
D19*
X107315000Y-79629000D03*
X107315000Y-82169000D03*
X107315000Y-84709000D03*
X107315000Y-87249000D03*
X107315000Y-89789000D03*
D20*
X107315000Y-92329000D03*
D16*
X156705073Y-108427663D02*
X157129337Y-108851927D01*
X154909022Y-110223714D02*
X155333286Y-110647978D01*
X153112970Y-112019766D02*
X153537234Y-112444030D01*
X151316919Y-113815817D02*
X151741183Y-114240081D01*
D10*
G36*
X149945132Y-117733188D02*
X147823812Y-115611868D01*
X149520868Y-113914812D01*
X151642188Y-116036132D01*
X149945132Y-117733188D01*
X149945132Y-117733188D01*
G37*
G36*
X162682812Y-108924132D02*
X164804132Y-106802812D01*
X166501188Y-108499868D01*
X164379868Y-110621188D01*
X162682812Y-108924132D01*
X162682812Y-108924132D01*
G37*
D16*
X166600183Y-110295919D02*
X166175919Y-110720183D01*
X168396234Y-112091970D02*
X167971970Y-112516234D01*
X170192286Y-113888022D02*
X169768022Y-114312286D01*
X171988337Y-115684073D02*
X171564073Y-116108337D01*
D21*
X207184000Y-83280000D03*
X202184000Y-81280000D03*
D14*
X140826500Y-81788000D03*
D15*
X135826500Y-81788000D03*
D21*
X194056000Y-86868000D03*
X199056000Y-89668000D03*
D11*
X213487000Y-115697000D03*
M02*
