M48
;DRILL file {KiCad 4.0.7} date 11/04/17 19:58:57
;FORMAT={-:-/ absolute / metric / decimal}
FMAT,2
METRIC,TZ
T1C0.400
T2C0.600
T3C0.900
T4C1.000
T5C1.200
T6C1.300
T7C3.200
%
G90
G05
M71
T1
X106.045Y-95.758
X106.172Y-104.013
X106.172Y-111.887
X109.347Y-88.265
X109.347Y-93.853
X109.601Y-82.169
X109.601Y-86.106
X109.728Y-78.359
X110.236Y-88.265
X110.363Y-93.218
X110.744Y-79.375
X111.252Y-92.583
X111.252Y-88.265
X111.506Y-77.851
X111.506Y-83.439
X112.395Y-87.249
X112.395Y-92.075
X112.776Y-73.533
X112.776Y-76.581
X112.903Y-80.899
X113.03Y-99.06
X113.284Y-78.994
X114.13Y-114.935
X114.173Y-89.535
X114.681Y-85.979
X114.935Y-91.821
X115.062Y-100.076
X115.189Y-87.122
X115.443Y-114.681
X116.078Y-77.597
X116.078Y-98.171
X116.332Y-117.133
X116.713Y-65.278
X117.475Y-99.949
X117.602Y-110.998
X117.729Y-116.205
X117.983Y-68.199
X119.126Y-110.49
X120.523Y-110.871
X120.904Y-67.183
X121.666Y-71.374
X122.047Y-64.897
X122.516Y-89.662
X122.516Y-90.551
X122.936Y-110.744
X124.333Y-110.744
X124.333Y-65.913
X124.46Y-117.094
X124.599Y-114.648
X125.603Y-108.712
X125.603Y-109.347
X126.492Y-88.519
X126.492Y-89.408
X126.492Y-90.043
X126.492Y-90.805
X127.Y-76.835
X127.635Y-64.389
X127.635Y-76.835
X127.635Y-77.47
X128.27Y-76.835
X128.27Y-77.47
X128.27Y-83.947
X128.27Y-93.218
X128.905Y-77.47
X129.54Y-64.77
X129.54Y-77.47
X130.302Y-79.756
X130.302Y-79.756
X130.302Y-113.919
X132.715Y-109.855
X132.842Y-105.664
X133.096Y-101.6
X134.239Y-114.046
X134.579Y-99.482
X136.398Y-111.125
X136.652Y-105.156
X136.652Y-108.204
X136.779Y-100.584
X138.176Y-107.061
X138.176Y-112.776
X138.684Y-100.457
X139.573Y-108.966
X139.573Y-114.3
X140.716Y-73.025
X140.97Y-73.914
X141.605Y-111.887
X141.859Y-114.935
X142.494Y-100.711
X142.494Y-104.267
X142.494Y-105.918
X142.621Y-107.696
X142.748Y-102.743
X142.875Y-113.411
X143.383Y-111.125
X143.764Y-116.459
X144.018Y-100.457
X144.145Y-110.363
X144.526Y-78.359
X144.678Y-94.996
X145.593Y-94.996
X145.796Y-104.255
X145.796Y-105.918
X145.796Y-109.474
X145.796Y-115.57
X145.898Y-85.09
X145.923Y-107.696
X147.066Y-111.125
X147.193Y-74.549
X148.336Y-117.475
X149.479Y-105.906
X149.479Y-107.696
X149.479Y-109.474
X150.495Y-74.168
X151.13Y-111.125
X151.511Y-101.219
X151.638Y-104.14
X152.527Y-105.906
X152.781Y-109.474
X152.908Y-107.696
X153.035Y-74.168
X153.543Y-116.332
X154.051Y-80.518
X154.305Y-88.773
X154.559Y-98.425
X154.686Y-100.838
X155.575Y-74.295
X155.829Y-114.173
X157.353Y-88.519
X157.48Y-100.838
X157.607Y-80.137
X157.607Y-98.552
X157.776Y-111.792
X158.242Y-116.332
X158.369Y-110.998
X159.766Y-77.978
X160.02Y-100.711
X160.02Y-102.87
X160.147Y-98.552
X160.528Y-114.173
X160.655Y-112.903
X160.782Y-88.011
X161.925Y-75.819
X161.974Y-101.6
X162.433Y-102.616
X162.56Y-103.632
X162.687Y-105.41
X162.687Y-116.332
X162.775Y-104.506
X162.814Y-92.964
X162.941Y-87.63
X162.941Y-98.679
X163.449Y-106.426
X164.084Y-114.808
X165.1Y-71.12
X165.735Y-116.84
X167.386Y-64.77
X168.402Y-109.22
X168.508Y-70.357
X168.578Y-68.592
X168.656Y-69.215
X169.164Y-67.691
X170.18Y-110.363
X170.266Y-107.229
X171.768Y-112.087
X172.212Y-106.172
X173.228Y-117.856
X173.355Y-114.046
X174.371Y-108.966
X175.26Y-69.977
X176.276Y-67.691
X177.038Y-118.237
X177.419Y-69.088
X177.927Y-114.681
X180.721Y-64.77
X180.721Y-68.199
X182.372Y-68.58
X184.15Y-93.472
X184.15Y-94.488
X187.452Y-65.913
X187.452Y-68.834
X187.96Y-100.584
X187.96Y-101.6
X187.96Y-102.616
X189.23Y-100.584
X189.23Y-101.6
X189.23Y-102.616
X190.5Y-100.584
X190.5Y-101.6
X190.5Y-102.616
X194.818Y-95.758
X195.072Y-68.768
X195.58Y-102.616
X196.342Y-95.758
X197.104Y-102.616
X197.358Y-112.268
X197.358Y-113.792
X200.152Y-66.167
X204.089Y-64.516
X210.947Y-73.914
X212.471Y-65.278
X215.646Y-69.723
X215.646Y-69.723
T2
X194.056Y-86.868
X199.056Y-89.668
X202.184Y-81.28
X207.184Y-83.28
T3
X148.369Y-80.09
X148.369Y-85.09
X148.369Y-90.09
X148.369Y-95.09
X148.369Y-100.09
X168.369Y-80.09
X168.369Y-85.09
X168.369Y-95.09
X168.369Y-100.09
T4
X135.826Y-81.788
X140.826Y-81.788
T5
X107.315Y-79.629
X107.315Y-82.169
X107.315Y-84.709
X107.315Y-87.249
X107.315Y-89.789
X107.315Y-92.329
X109.184Y-70.394
X110.98Y-68.598
X112.776Y-66.802
X146.685Y-71.755
X149.225Y-71.755
X149.733Y-115.824
X151.529Y-114.028
X151.765Y-71.755
X153.325Y-112.232
X154.305Y-71.755
X155.121Y-110.436
X156.845Y-71.755
X156.917Y-108.64
X159.385Y-71.755
X161.925Y-71.755
X164.592Y-108.712
X166.388Y-110.508
X168.184Y-112.304
X169.98Y-114.1
X171.776Y-115.896
X210.022Y-68.163
X211.818Y-69.959
X213.614Y-71.755
T6
X207.01Y-89.06
X207.01Y-94.06
X207.01Y-99.06
X207.01Y-104.06
T7
X107.696Y-115.824
X107.95Y-75.438
X213.487Y-78.867
X213.487Y-115.697
T0
M30
