M48
;DRILL file {KiCad 4.0.7} date 11/07/17 19:45:03
;FORMAT={2:4/ absolute / inch / suppress leading zeros}
FMAT,2
INCH,TZ
T1C0.016
T2C0.024
T3C0.035
T4C0.039
T5C0.047
T6C0.051
T7C0.126
%
G90
G05
M72
T1
X43050Y-34750
X43100Y-37050
X43150Y-32350
X43150Y-33900
X43200Y-30850
X43400Y-34750
X43450Y-36700
X43450Y-44600
X43600Y-31250
X43800Y-36450
X43800Y-41450
X43800Y-43350
X43800Y-34750
X43850Y-38400
X43850Y-46500
X43900Y-30650
X43900Y-32850
X44250Y-34350
X44250Y-36250
X44400Y-28950
X44400Y-30150
X44450Y-31850
X44500Y-39000
X44600Y-31100
X44933Y-45250
X44950Y-35250
X45150Y-33850
X45250Y-36150
X45300Y-39400
X45350Y-34300
X45450Y-45150
X45700Y-30550
X45700Y-38650
X45800Y-46115
X45950Y-25700
X46250Y-39350
X46300Y-43700
X46350Y-45750
X46450Y-26850
X46900Y-43500
X47450Y-43650
X47600Y-26450
X47900Y-28100
X48050Y-25550
X48235Y-35300
X48235Y-35650
X48400Y-43600
X48950Y-43600
X48950Y-25950
X49000Y-46100
X49055Y-45137
X49450Y-42800
X49450Y-43050
X49800Y-34850
X49800Y-35200
X49800Y-35450
X49800Y-35750
X50000Y-30250
X50250Y-25350
X50250Y-30250
X50250Y-30500
X50500Y-30250
X50500Y-30500
X50500Y-33050
X50500Y-36700
X50750Y-30500
X51000Y-25500
X51000Y-30500
X51300Y-31400
X51300Y-31400
X51300Y-44850
X52250Y-43250
X52300Y-41600
X52400Y-40000
X52850Y-44900
X52984Y-39166
X53700Y-43750
X53800Y-41400
X53800Y-42600
X53850Y-39600
X54400Y-42150
X54400Y-44400
X54600Y-39550
X54950Y-42900
X54950Y-45000
X55400Y-28750
X55500Y-29100
X55750Y-44050
X55850Y-45250
X56100Y-39650
X56100Y-41050
X56100Y-41700
X56150Y-42400
X56200Y-40450
X56250Y-44650
X56450Y-43750
X56600Y-45850
X56700Y-39550
X56750Y-43450
X56900Y-30850
X56960Y-37400
X57320Y-37400
X57400Y-41045
X57400Y-41700
X57400Y-43100
X57400Y-45500
X57440Y-33500
X57450Y-42400
X57900Y-43750
X57950Y-29350
X58400Y-46250
X58850Y-41695
X58850Y-42400
X58850Y-43100
X59250Y-29200
X59500Y-43750
X59650Y-39850
X59700Y-41000
X60050Y-41695
X60150Y-43100
X60200Y-42400
X60250Y-29200
X60450Y-45800
X60650Y-31700
X60750Y-34950
X60850Y-38750
X60900Y-39700
X61250Y-29250
X61350Y-44950
X61950Y-34850
X62000Y-39700
X62050Y-31550
X62050Y-38800
X62117Y-44013
X62300Y-45800
X62350Y-43700
X62900Y-30700
X62955Y-39650
X62955Y-40500
X63050Y-38800
X63200Y-44950
X63250Y-44450
X63300Y-34650
X63750Y-29850
X63769Y-40000
X63785Y-41185
X63800Y-40800
X63949Y-40393
X64050Y-45800
X64100Y-36600
X64150Y-34500
X64150Y-38850
X64250Y-41500
X64350Y-41900
X64600Y-45200
X65000Y-28000
X65250Y-46000
X65900Y-25500
X66300Y-43000
X66342Y-27700
X66369Y-27005
X66400Y-27250
X66600Y-26650
X67000Y-43450
X67034Y-42216
X67625Y-44129
X67800Y-41800
X68200Y-46400
X68250Y-44900
X68650Y-42900
X69000Y-27550
X69400Y-26650
X69700Y-46550
X69850Y-27200
X70050Y-45150
X71150Y-25500
X71150Y-26850
X71800Y-27000
X72500Y-36800
X72500Y-37200
X73800Y-25950
X73800Y-27100
X74000Y-39600
X74000Y-40000
X74000Y-40400
X74500Y-39600
X74500Y-40000
X74500Y-40400
X75000Y-39600
X75000Y-40000
X75000Y-40400
X76700Y-37700
X76800Y-27074
X77000Y-40400
X77300Y-37700
X77600Y-40400
X77700Y-44200
X77700Y-44800
X78800Y-26050
X80350Y-25400
X83050Y-29100
X83650Y-25700
X84900Y-27450
X84900Y-27450
T2
X76400Y-34200
X78369Y-35302
X79600Y-32000
X81569Y-32787
T3
X58413Y-31531
X58413Y-33500
X58413Y-35469
X58413Y-37437
X58413Y-39406
X66287Y-31531
X66287Y-33500
X66287Y-37437
X66287Y-39406
T4
X53475Y-32200
X55444Y-32200
T5
X42250Y-31350
X42250Y-32350
X42250Y-33350
X42250Y-34350
X42250Y-35350
X42250Y-36350
X42986Y-27714
X43693Y-27007
X44400Y-26300
X57750Y-28250
X58750Y-28250
X58950Y-45600
X59657Y-44893
X59750Y-28250
X60364Y-44186
X60750Y-28250
X61071Y-43479
X61750Y-28250
X61778Y-42772
X62750Y-28250
X63750Y-28250
X64800Y-42800
X65507Y-43507
X66214Y-44214
X66921Y-44921
X67628Y-45628
X82686Y-26836
X83393Y-27543
X84100Y-28250
T6
X81500Y-35063
X81500Y-37031
X81500Y-39000
X81500Y-40969
T7
X42400Y-45600
X42500Y-29700
X84050Y-31050
X84050Y-45550
T0
M30
