G04 #@! TF.FileFunction,Soldermask,Top*
%FSLAX46Y46*%
G04 Gerber Fmt 4.6, Leading zero omitted, Abs format (unit mm)*
G04 Created by KiCad (PCBNEW 4.0.7) date 11/07/17 19:12:29*
%MOMM*%
%LPD*%
G01*
G04 APERTURE LIST*
%ADD10C,0.100000*%
%ADD11C,3.600000*%
%ADD12R,3.150000X1.400000*%
%ADD13R,1.300000X2.900000*%
%ADD14R,1.700000X1.900000*%
%ADD15R,1.200100X1.200100*%
%ADD16R,1.300000X2.100000*%
%ADD17R,2.100000X1.300000*%
%ADD18R,1.950000X2.500000*%
%ADD19C,2.900000*%
%ADD20R,2.900000X2.900000*%
%ADD21R,3.448000X2.051000*%
%ADD22R,6.496000X6.496000*%
%ADD23R,2.400000X2.400000*%
%ADD24C,2.400000*%
%ADD25R,1.200000X1.150000*%
%ADD26R,1.150000X1.200000*%
%ADD27R,1.200000X1.200000*%
%ADD28C,2.400000*%
%ADD29O,2.400000X3.000000*%
%ADD30R,2.400000X3.000000*%
%ADD31O,3.000000X2.400000*%
%ADD32R,3.000000X2.400000*%
%ADD33R,1.300000X1.200000*%
%ADD34R,1.300000X0.900000*%
%ADD35R,0.900000X1.300000*%
%ADD36C,2.000000*%
%ADD37R,2.400000X1.900000*%
%ADD38R,2.400000X4.200000*%
%ADD39O,1.300000X2.900000*%
%ADD40O,2.900000X1.300000*%
%ADD41R,6.400000X6.400000*%
G04 APERTURE END LIST*
D10*
D11*
X213487000Y-78867000D03*
X107696000Y-115824000D03*
X107950000Y-75438000D03*
D12*
X124287000Y-78200000D03*
X118537000Y-78200000D03*
X118537000Y-74200000D03*
X124287000Y-74200000D03*
D13*
X189791000Y-79756000D03*
X186891000Y-79756000D03*
X189791000Y-74168000D03*
X186891000Y-74168000D03*
X194998000Y-79756000D03*
X192098000Y-79756000D03*
X194998000Y-74168000D03*
X192098000Y-74168000D03*
D14*
X174697000Y-79375000D03*
X174697000Y-76835000D03*
X183697000Y-76835000D03*
X183697000Y-79375000D03*
D15*
X184211000Y-69611240D03*
X182311000Y-69611240D03*
X183261000Y-71610220D03*
D14*
X182626000Y-85090000D03*
X182626000Y-87630000D03*
X182626000Y-90170000D03*
X173626000Y-90170000D03*
X173626000Y-87630000D03*
X173626000Y-85090000D03*
D15*
X173395640Y-109844800D03*
X173395640Y-111744800D03*
X175394620Y-110794800D03*
D16*
X185367000Y-85026500D03*
X188267000Y-85026500D03*
X180160000Y-93726000D03*
X183060000Y-93726000D03*
X180160000Y-98552000D03*
X183060000Y-98552000D03*
X192860000Y-113030000D03*
X195760000Y-113030000D03*
D17*
X199644000Y-95070000D03*
X199644000Y-97970000D03*
X199644000Y-104214000D03*
X199644000Y-107114000D03*
D14*
X182935000Y-102235000D03*
X182935000Y-104775000D03*
X182935000Y-107315000D03*
X173935000Y-107315000D03*
X173935000Y-104775000D03*
X173935000Y-102235000D03*
D18*
X142557500Y-94996000D03*
X140017500Y-94996000D03*
X140017500Y-88496000D03*
X142557500Y-88496000D03*
D19*
X207010000Y-89060000D03*
X207010000Y-94060000D03*
D20*
X207010000Y-104060000D03*
D19*
X207010000Y-99060000D03*
D21*
X195580000Y-98806000D03*
D22*
X189230000Y-96520000D03*
D21*
X195580000Y-94234000D03*
X195580000Y-108966000D03*
D22*
X189230000Y-106680000D03*
D21*
X195580000Y-104394000D03*
D23*
X168369000Y-100090000D03*
D24*
X168369000Y-95090000D03*
X168369000Y-85090000D03*
X168369000Y-80090000D03*
X148369000Y-80090000D03*
X148369000Y-85090000D03*
X148369000Y-90090000D03*
X148369000Y-95090000D03*
X148369000Y-100090000D03*
D25*
X173470000Y-67818000D03*
X171970000Y-67818000D03*
X140918500Y-76073000D03*
X142418500Y-76073000D03*
D26*
X131635500Y-76593000D03*
X131635500Y-78093000D03*
D27*
X129641600Y-72021800D03*
X129641600Y-73621800D03*
D28*
X109396030Y-70606234D02*
X108971766Y-70181970D01*
X111192081Y-68810183D02*
X110767817Y-68385919D01*
D10*
G36*
X112563868Y-64892812D02*
X114685188Y-67014132D01*
X112988132Y-68711188D01*
X110866812Y-66589868D01*
X112563868Y-64892812D01*
X112563868Y-64892812D01*
G37*
G36*
X215523188Y-71542868D02*
X213401868Y-73664188D01*
X211704812Y-71967132D01*
X213826132Y-69845812D01*
X215523188Y-71542868D01*
X215523188Y-71542868D01*
G37*
D28*
X211605817Y-70171081D02*
X212030081Y-69746817D01*
X209809766Y-68375030D02*
X210234030Y-67950766D01*
D29*
X161925000Y-71755000D03*
X159385000Y-71755000D03*
X156845000Y-71755000D03*
X154305000Y-71755000D03*
X151765000Y-71755000D03*
X149225000Y-71755000D03*
D30*
X146685000Y-71755000D03*
D31*
X107315000Y-79629000D03*
X107315000Y-82169000D03*
X107315000Y-84709000D03*
X107315000Y-87249000D03*
X107315000Y-89789000D03*
D32*
X107315000Y-92329000D03*
D28*
X156705073Y-108427663D02*
X157129337Y-108851927D01*
X154909022Y-110223714D02*
X155333286Y-110647978D01*
X153112970Y-112019766D02*
X153537234Y-112444030D01*
X151316919Y-113815817D02*
X151741183Y-114240081D01*
D10*
G36*
X149945132Y-117733188D02*
X147823812Y-115611868D01*
X149520868Y-113914812D01*
X151642188Y-116036132D01*
X149945132Y-117733188D01*
X149945132Y-117733188D01*
G37*
G36*
X162682812Y-108924132D02*
X164804132Y-106802812D01*
X166501188Y-108499868D01*
X164379868Y-110621188D01*
X162682812Y-108924132D01*
X162682812Y-108924132D01*
G37*
D28*
X166600183Y-110295919D02*
X166175919Y-110720183D01*
X168396234Y-112091970D02*
X167971970Y-112516234D01*
X170192286Y-113888022D02*
X169768022Y-114312286D01*
X171988337Y-115684073D02*
X171564073Y-116108337D01*
D33*
X115681000Y-71435000D03*
X115681000Y-69535000D03*
X113681000Y-70485000D03*
X200009000Y-67818000D03*
X198009000Y-68768000D03*
X198009000Y-66868000D03*
X116570000Y-80010000D03*
X114570000Y-80960000D03*
X114570000Y-79060000D03*
X114570000Y-82870000D03*
X114570000Y-84770000D03*
X116570000Y-83820000D03*
D34*
X129692400Y-75094400D03*
X129692400Y-76594400D03*
D35*
X163310000Y-111125000D03*
X161810000Y-111125000D03*
X164350000Y-113030000D03*
X165850000Y-113030000D03*
X167120000Y-114935000D03*
X165620000Y-114935000D03*
X169025000Y-116840000D03*
X167525000Y-116840000D03*
X112192500Y-82169000D03*
X110692500Y-82169000D03*
X110692500Y-84709000D03*
X112192500Y-84709000D03*
X111835500Y-116268500D03*
X113335500Y-116268500D03*
D36*
X207184000Y-83280000D03*
X202184000Y-81280000D03*
D25*
X123964000Y-88900000D03*
X125464000Y-88900000D03*
X116129500Y-116205000D03*
X114629500Y-116205000D03*
X123964000Y-90678000D03*
X125464000Y-90678000D03*
D27*
X123101000Y-116205000D03*
X121501000Y-116205000D03*
X171920000Y-69469000D03*
X173520000Y-69469000D03*
X180594000Y-73571000D03*
X180594000Y-71971000D03*
X175006000Y-114820600D03*
X175006000Y-113220600D03*
D35*
X112764000Y-72263000D03*
X111264000Y-72263000D03*
X205093000Y-66421000D03*
X203593000Y-66421000D03*
D34*
X111887000Y-89547000D03*
X111887000Y-91047000D03*
D35*
X120003000Y-116205000D03*
X118503000Y-116205000D03*
D34*
X170243500Y-70981000D03*
X170243500Y-69481000D03*
D35*
X172224000Y-71247000D03*
X173724000Y-71247000D03*
D34*
X180721000Y-69100000D03*
X180721000Y-70600000D03*
X178943000Y-71870000D03*
X178943000Y-70370000D03*
D35*
X175195800Y-116484400D03*
X176695800Y-116484400D03*
D34*
X176657000Y-113219800D03*
X176657000Y-114719800D03*
D37*
X138405000Y-75134500D03*
X138405000Y-70534500D03*
X138405000Y-72834500D03*
D38*
X132105000Y-72834500D03*
D39*
X111590000Y-94840000D03*
X112860000Y-94840000D03*
X114130000Y-94840000D03*
X115400000Y-94840000D03*
X116670000Y-94840000D03*
X117940000Y-94840000D03*
X119210000Y-94840000D03*
X120480000Y-94840000D03*
X121750000Y-94840000D03*
X123020000Y-94840000D03*
X124290000Y-94840000D03*
X125560000Y-94840000D03*
X126830000Y-94840000D03*
X128100000Y-94840000D03*
D40*
X129590000Y-98125000D03*
X129590000Y-99395000D03*
X129590000Y-100665000D03*
X129590000Y-101935000D03*
X129590000Y-103205000D03*
X129590000Y-104475000D03*
X129590000Y-105745000D03*
X129590000Y-107015000D03*
X129590000Y-108285000D03*
X129590000Y-109555000D03*
D39*
X128100000Y-112840000D03*
X126830000Y-112840000D03*
X125560000Y-112840000D03*
X124290000Y-112840000D03*
X123020000Y-112840000D03*
X121750000Y-112840000D03*
X120480000Y-112840000D03*
X119210000Y-112840000D03*
X117940000Y-112840000D03*
X116670000Y-112840000D03*
X115400000Y-112840000D03*
X114130000Y-112840000D03*
X112860000Y-112840000D03*
X111590000Y-112840000D03*
D41*
X119290000Y-104140000D03*
D23*
X140826500Y-81788000D03*
D24*
X135826500Y-81788000D03*
D36*
X194056000Y-86868000D03*
X199056000Y-89668000D03*
D11*
X213487000Y-115697000D03*
M02*
